<svg width="63" height="53" viewBox="0 0 63 53" fill="none" xmlns="http://www.w3.org/2000/svg">
<path d="M18.0665 13.4553V21.8146C17.234 22.2975 16.7695 22.8353 16.7695 23.4022C16.7695 25.4949 23.1 27.1914 30.909 27.1914C38.7181 27.1914 45.0485 25.4949 45.0485 23.4022C45.0485 22.8628 44.6281 22.3498 43.8702 21.8854V12.7344" stroke="#3480A3" stroke-width="1.6" stroke-linecap="round"/>
<path d="M18.0665 25.2968V33.656C17.234 34.1389 16.7695 34.6767 16.7695 35.2436C16.7695 37.3363 23.1 39.0328 30.909 39.0328C38.7181 39.0328 45.0485 37.3363 45.0485 35.2436C45.0485 34.7042 44.6281 34.1912 43.8702 33.7268V25.2968" stroke="#3480A3" stroke-width="1.6" stroke-linecap="round"/>
<path d="M18.1681 37.5047V45.864C17.3356 46.3469 16.8711 46.8847 16.8711 47.4515C16.8711 49.5443 23.2016 51.2408 31.0106 51.2408C38.8196 51.2408 45.1501 49.5443 45.1501 47.4515C45.1501 46.9122 44.7297 46.3992 43.9718 45.9347V37.5047" stroke="#3480A3" stroke-width="1.6" stroke-linecap="round"/>
<path d="M44.6434 12.0344C44.6434 12.1055 44.5675 12.3967 43.858 12.8242C43.2003 13.2205 42.1999 13.6052 40.9058 13.9392C38.3296 14.6041 34.7663 15.0237 30.9112 15.0237C27.0561 15.0237 23.4928 14.6041 20.9166 13.9392C19.6225 13.6052 18.6221 13.2205 17.9643 12.8242C17.2549 12.3967 17.1789 12.1055 17.1789 12.0344C17.1789 11.9633 17.2549 11.6722 17.9643 11.2447C18.6221 10.8483 19.6225 10.4636 20.9166 10.1296C23.4928 9.46476 27.0561 9.04518 30.9112 9.04518C34.7663 9.04518 38.3296 9.46476 40.9058 10.1296C42.1999 10.4636 43.2003 10.8483 43.858 11.2447C44.5675 11.6722 44.6434 11.9633 44.6434 12.0344Z" stroke="#3480A3" stroke-width="1.6"/>
<path d="M2.13995 5.19897V12.4706C1.41576 12.8907 1.01172 13.3585 1.01172 13.8516C1.01172 15.672 6.51852 17.1478 13.3115 17.1478C14.9045 17.1478 16.4267 17.0667 17.8238 16.9189" stroke="#3480A3" stroke-width="1.6" stroke-linecap="round"/>
<path d="M2.13995 15.3196V22.5913C1.41576 23.0113 1.01172 23.4791 1.01172 23.9723C1.01172 25.7927 6.51852 27.2685 13.3115 27.2685C14.9045 27.2685 16.4267 27.1873 17.8238 27.0396" stroke="#3480A3" stroke-width="1.6" stroke-linecap="round"/>
<path d="M2.13995 25.6628V32.9345C1.41576 33.3545 1.01172 33.8223 1.01172 34.3155C1.01172 36.1359 6.51852 37.6117 13.3115 37.6117C14.9045 37.6117 16.4267 37.5305 17.8238 37.3828" stroke="#3480A3" stroke-width="1.6" stroke-linecap="round"/>
<path d="M25.1509 3.96291C25.1509 3.96593 25.1295 4.19222 24.518 4.56074C23.9581 4.89812 23.0988 5.22969 21.9776 5.51907C19.7471 6.09473 16.6565 6.45913 13.3094 6.45913C9.96231 6.45913 6.87175 6.09473 4.64124 5.51907C3.51999 5.22969 2.66072 4.89812 2.10083 4.56074C1.48928 4.19222 1.46797 3.96593 1.46797 3.96291C1.46797 3.95989 1.48928 3.7336 2.10083 3.36508C2.66072 3.0277 3.51999 2.69612 4.64124 2.40675C6.87175 1.83108 9.96231 1.46669 13.3094 1.46669C16.6565 1.46669 19.7471 1.83108 21.9776 2.40675C23.0988 2.69612 23.9581 3.0277 24.518 3.36508C25.1295 3.7336 25.1509 3.95989 25.1509 3.96291Z" stroke="#3480A3" stroke-width="1.6"/>
<path d="M60.6101 5.19897V12.4706C61.3342 12.8907 61.7383 13.3585 61.7383 13.8516C61.7383 15.672 56.2315 17.1478 49.4385 17.1478C47.8455 17.1478 46.3233 17.0667 44.9262 16.9189" stroke="#3480A3" stroke-width="1.6" stroke-linecap="round"/>
<path d="M60.6101 15.3196V22.5913C61.3342 23.0113 61.7383 23.4791 61.7383 23.9723C61.7383 25.7927 56.2315 27.2685 49.4385 27.2685C47.8455 27.2685 46.3233 27.1873 44.9262 27.0396" stroke="#3480A3" stroke-width="1.6" stroke-linecap="round"/>
<path d="M60.6101 25.6628V32.9345C61.3342 33.3545 61.7383 33.8223 61.7383 34.3155C61.7383 36.1359 56.2315 37.6117 49.4385 37.6117C47.8455 37.6117 46.3233 37.5305 44.9262 37.3828" stroke="#3480A3" stroke-width="1.6" stroke-linecap="round"/>
<path d="M37.5991 3.96291C37.5991 3.96593 37.6205 4.19222 38.232 4.56074C38.7919 4.89812 39.6512 5.22969 40.7724 5.51907C43.0029 6.09473 46.0935 6.45913 49.4406 6.45913C52.7877 6.45913 55.8783 6.09473 58.1088 5.51907C59.23 5.22969 60.0893 4.89812 60.6492 4.56074C61.2607 4.19222 61.282 3.96593 61.282 3.96291C61.282 3.95989 61.2607 3.7336 60.6492 3.36508C60.0893 3.0277 59.23 2.69612 58.1088 2.40675C55.8783 1.83108 52.7877 1.46669 49.4406 1.46669C46.0935 1.46669 43.0029 1.83108 40.7724 2.40675C39.6512 2.69612 38.7919 3.0277 38.232 3.36508C37.6205 3.7336 37.5991 3.95989 37.5991 3.96291Z" stroke="#3480A3" stroke-width="1.6"/>
<path d="M24.6289 4.47729V8.71862" stroke="#3480A3" stroke-width="1.6" stroke-linecap="round" stroke-linejoin="round"/>
<path d="M38.3711 4.47729V8.71862" stroke="#3480A3" stroke-width="1.6" stroke-linecap="round" stroke-linejoin="round"/>
</svg>
