<svg width="42" height="48" viewBox="0 0 42 48" fill="none" xmlns="http://www.w3.org/2000/svg">
<mask id="path-1-outside-1" maskUnits="userSpaceOnUse" x="0" y="0" width="42" height="48" fill="black">
<rect fill="white" width="42" height="48"/>
<path fill-rule="evenodd" clip-rule="evenodd" d="M21.2057 1.0379L40.6317 8.51295C40.8537 8.5983 41 8.81168 41 9.04977V24.4176C41 31.5333 37.1425 38.1004 30.933 41.5549L21.2786 46.9276C21.1923 46.9759 21.0958 47 21 47C20.9042 47 20.8077 46.9759 20.7214 46.9276L11.067 41.5549C4.85752 38.1004 1 31.5333 1 24.4176V9.04977C1 8.81168 1.1463 8.5983 1.36826 8.51295L20.7943 1.0379C20.9266 0.987366 21.0734 0.987366 21.2057 1.0379ZM30.3759 40.5497C36.221 37.2974 39.8521 31.1161 39.8521 24.4176V9.44508L21 2.19072L2.14795 9.44508V24.4176C2.14795 31.1161 5.77901 37.2974 11.6241 40.5497L21 45.7674L30.3759 40.5497ZM16.9265 16.7763L21.0408 11.2187C21.2564 10.9271 21.7436 10.9271 21.9592 11.2187L26.0735 16.7763L32.6107 18.9867C32.7822 19.0445 32.9162 19.1802 32.9721 19.3534C33.028 19.5262 32.9989 19.7151 32.8944 19.8632L28.9002 25.5088L28.8259 32.4317C28.8237 32.6134 28.7365 32.7833 28.5902 32.8899C28.4913 32.9622 28.3734 32.9998 28.2539 32.9998C28.1963 32.9998 28.1388 32.9914 28.0829 32.9734L21.5 30.9054L14.9171 32.9734C14.7456 33.0284 14.5562 32.997 14.4098 32.8899C14.2635 32.7833 14.1763 32.6134 14.1741 32.4317L14.0998 25.5088L10.1056 19.8632C10.0011 19.7151 9.97205 19.5262 10.0279 19.3534C10.0838 19.1802 10.2178 19.0445 10.3893 18.9867L16.9265 16.7763ZM25.5384 17.8069C25.4277 17.7699 25.3317 17.6992 25.2618 17.6056L21.5 12.5241L17.7382 17.6056C17.6683 17.6992 17.5723 17.7699 17.4616 17.8069L11.4843 19.8284L15.1366 24.9901C15.2042 25.0854 15.2411 25.1992 15.2422 25.3164L15.3098 31.6467L21.3291 29.7559C21.3849 29.7385 21.4425 29.7295 21.5 29.7295C21.5575 29.7295 21.6151 29.7385 21.6709 29.7559L27.6902 31.6467L27.7578 25.3164C27.7589 25.1992 27.7958 25.0854 27.8634 24.9901L31.5157 19.8284L25.5384 17.8069Z"/>
</mask>
<path fill-rule="evenodd" clip-rule="evenodd" d="M21.2057 1.0379L40.6317 8.51295C40.8537 8.5983 41 8.81168 41 9.04977V24.4176C41 31.5333 37.1425 38.1004 30.933 41.5549L21.2786 46.9276C21.1923 46.9759 21.0958 47 21 47C20.9042 47 20.8077 46.9759 20.7214 46.9276L11.067 41.5549C4.85752 38.1004 1 31.5333 1 24.4176V9.04977C1 8.81168 1.1463 8.5983 1.36826 8.51295L20.7943 1.0379C20.9266 0.987366 21.0734 0.987366 21.2057 1.0379ZM30.3759 40.5497C36.221 37.2974 39.8521 31.1161 39.8521 24.4176V9.44508L21 2.19072L2.14795 9.44508V24.4176C2.14795 31.1161 5.77901 37.2974 11.6241 40.5497L21 45.7674L30.3759 40.5497ZM16.9265 16.7763L21.0408 11.2187C21.2564 10.9271 21.7436 10.9271 21.9592 11.2187L26.0735 16.7763L32.6107 18.9867C32.7822 19.0445 32.9162 19.1802 32.9721 19.3534C33.028 19.5262 32.9989 19.7151 32.8944 19.8632L28.9002 25.5088L28.8259 32.4317C28.8237 32.6134 28.7365 32.7833 28.5902 32.8899C28.4913 32.9622 28.3734 32.9998 28.2539 32.9998C28.1963 32.9998 28.1388 32.9914 28.0829 32.9734L21.5 30.9054L14.9171 32.9734C14.7456 33.0284 14.5562 32.997 14.4098 32.8899C14.2635 32.7833 14.1763 32.6134 14.1741 32.4317L14.0998 25.5088L10.1056 19.8632C10.0011 19.7151 9.97205 19.5262 10.0279 19.3534C10.0838 19.1802 10.2178 19.0445 10.3893 18.9867L16.9265 16.7763ZM25.5384 17.8069C25.4277 17.7699 25.3317 17.6992 25.2618 17.6056L21.5 12.5241L17.7382 17.6056C17.6683 17.6992 17.5723 17.7699 17.4616 17.8069L11.4843 19.8284L15.1366 24.9901C15.2042 25.0854 15.2411 25.1992 15.2422 25.3164L15.3098 31.6467L21.3291 29.7559C21.3849 29.7385 21.4425 29.7295 21.5 29.7295C21.5575 29.7295 21.6151 29.7385 21.6709 29.7559L27.6902 31.6467L27.7578 25.3164C27.7589 25.1992 27.7958 25.0854 27.8634 24.9901L31.5157 19.8284L25.5384 17.8069Z" fill="#347796"/>
<path d="M40.6317 8.51295L40.524 8.79294L40.5241 8.79296L40.6317 8.51295ZM21.2057 1.0379L21.3135 0.757915L21.3128 0.757658L21.2057 1.0379ZM30.933 41.5549L30.7872 41.2927L30.7871 41.2927L30.933 41.5549ZM21.2786 46.9276L21.1327 46.6654L21.1321 46.6657L21.2786 46.9276ZM20.7214 46.9276L20.8679 46.6657L20.8673 46.6654L20.7214 46.9276ZM11.067 41.5549L11.2129 41.2927L11.2128 41.2927L11.067 41.5549ZM1.36826 8.51295L1.47594 8.79296L1.476 8.79294L1.36826 8.51295ZM20.7943 1.0379L20.6872 0.757657L20.6866 0.757916L20.7943 1.0379ZM30.3759 40.5497L30.23 40.2876L30.23 40.2876L30.3759 40.5497ZM39.8521 9.44508H40.1521V9.23908L39.9598 9.1651L39.8521 9.44508ZM21 2.19072L21.1077 1.91073L21 1.86927L20.8923 1.91073L21 2.19072ZM2.14795 9.44508L2.04021 9.1651L1.84795 9.23908V9.44508H2.14795ZM11.6241 40.5497L11.77 40.2876L11.77 40.2876L11.6241 40.5497ZM21 45.7674L20.8541 46.0296L21 46.1108L21.1459 46.0296L21 45.7674ZM21.0408 11.2187L21.2819 11.3972L21.282 11.3971L21.0408 11.2187ZM16.9265 16.7763L17.0226 17.0604L17.1116 17.0303L17.1676 16.9548L16.9265 16.7763ZM21.9592 11.2187L21.718 11.3971L21.7181 11.3972L21.9592 11.2187ZM26.0735 16.7763L25.8324 16.9548L25.8884 17.0303L25.9774 17.0604L26.0735 16.7763ZM32.6107 18.9867L32.5146 19.2709L32.5149 19.271L32.6107 18.9867ZM32.9721 19.3534L32.6866 19.4455L32.6866 19.4458L32.9721 19.3534ZM32.8944 19.8632L33.1393 20.0364L33.1396 20.0361L32.8944 19.8632ZM28.9002 25.5088L28.6553 25.3355L28.6012 25.4119L28.6002 25.5055L28.9002 25.5088ZM28.8259 32.4317L29.1259 32.4354L29.1259 32.435L28.8259 32.4317ZM28.5902 32.8899L28.4136 32.6473L28.413 32.6477L28.5902 32.8899ZM28.0829 32.9734L28.1747 32.6878L28.1728 32.6872L28.0829 32.9734ZM21.5 30.9054L21.5899 30.6192L21.5 30.5909L21.4101 30.6192L21.5 30.9054ZM14.9171 32.9734L14.8272 32.6872L14.8255 32.6877L14.9171 32.9734ZM14.4098 32.8899L14.587 32.6478L14.5864 32.6473L14.4098 32.8899ZM14.1741 32.4317L13.8741 32.435L13.8741 32.4354L14.1741 32.4317ZM14.0998 25.5088L14.3998 25.5055L14.3988 25.4119L14.3447 25.3355L14.0998 25.5088ZM10.1056 19.8632L9.86045 20.0361L9.86066 20.0364L10.1056 19.8632ZM10.0279 19.3534L10.3134 19.4458L10.3134 19.4455L10.0279 19.3534ZM10.3893 18.9867L10.4851 19.271L10.4854 19.2709L10.3893 18.9867ZM25.2618 17.6056L25.0207 17.7841L25.0213 17.7849L25.2618 17.6056ZM25.5384 17.8069L25.6345 17.5227L25.6335 17.5224L25.5384 17.8069ZM21.5 12.5241L21.7411 12.3456L21.5 12.0199L21.2589 12.3456L21.5 12.5241ZM17.7382 17.6056L17.9787 17.7849L17.9793 17.7841L17.7382 17.6056ZM17.4616 17.8069L17.3665 17.5224L17.3655 17.5227L17.4616 17.8069ZM11.4843 19.8284L11.3882 19.5442L11.0069 19.6731L11.2394 20.0017L11.4843 19.8284ZM15.1366 24.9901L14.8917 25.1634L14.8919 25.1636L15.1366 24.9901ZM15.2422 25.3164L14.9422 25.3193L14.9422 25.3196L15.2422 25.3164ZM15.3098 31.6467L15.0098 31.6499L15.0141 32.054L15.3997 31.9329L15.3098 31.6467ZM21.3291 29.7559L21.2399 29.4694L21.2392 29.4696L21.3291 29.7559ZM21.6709 29.7559L21.7608 29.4696L21.7601 29.4694L21.6709 29.7559ZM27.6902 31.6467L27.6003 31.9329L27.9859 32.054L27.9902 31.6499L27.6902 31.6467ZM27.7578 25.3164L28.0578 25.3196L28.0578 25.3193L27.7578 25.3164ZM27.8634 24.9901L28.1081 25.1636L28.1083 25.1634L27.8634 24.9901ZM31.5157 19.8284L31.7606 20.0017L31.9931 19.6731L31.6118 19.5442L31.5157 19.8284ZM40.7395 8.23296L21.3135 0.757916L21.098 1.31789L40.524 8.79294L40.7395 8.23296ZM41.3 9.04977C41.3 8.68786 41.0775 8.36296 40.7394 8.23294L40.5241 8.79296C40.6299 8.83364 40.7 8.9355 40.7 9.04977H41.3ZM41.3 24.4176V9.04977H40.7V24.4176H41.3ZM31.0789 41.817C37.3837 38.3095 41.3 31.642 41.3 24.4176H40.7C40.7 31.4246 36.9013 37.8912 30.7872 41.2927L31.0789 41.817ZM21.4245 47.1897L31.0789 41.817L30.7871 41.2927L21.1327 46.6654L21.4245 47.1897ZM21 47.3C21.1459 47.3 21.2929 47.2633 21.425 47.1894L21.1321 46.6657C21.0916 46.6884 21.0458 46.7 21 46.7V47.3ZM20.575 47.1894C20.7071 47.2633 20.8541 47.3 21 47.3V46.7C20.9542 46.7 20.9084 46.6884 20.8679 46.6657L20.575 47.1894ZM10.9211 41.817L20.5755 47.1897L20.8673 46.6654L11.2129 41.2927L10.9211 41.817ZM0.7 24.4176C0.7 31.642 4.61634 38.3095 10.9211 41.817L11.2128 41.2927C5.09869 37.8912 1.3 31.4246 1.3 24.4176H0.7ZM0.7 9.04977V24.4176H1.3V9.04977H0.7ZM1.26059 8.23294C0.92246 8.36296 0.7 8.68786 0.7 9.04977H1.3C1.3 8.9355 1.37013 8.83364 1.47594 8.79296L1.26059 8.23294ZM20.6866 0.757916L1.26053 8.23296L1.476 8.79294L20.902 1.31789L20.6866 0.757916ZM21.3128 0.757658C21.1115 0.680781 20.8885 0.680781 20.6872 0.757658L20.9014 1.31815C20.9647 1.29395 21.0353 1.29395 21.0986 1.31815L21.3128 0.757658ZM39.5521 24.4176C39.5521 31.0074 35.9798 37.0883 30.23 40.2876L30.5217 40.8119C36.4622 37.5065 40.1521 31.2248 40.1521 24.4176H39.5521ZM39.5521 9.44508V24.4176H40.1521V9.44508H39.5521ZM20.8923 2.4707L39.7443 9.72507L39.9598 9.1651L21.1077 1.91073L20.8923 2.4707ZM2.25569 9.72507L21.1077 2.4707L20.8923 1.91073L2.04021 9.1651L2.25569 9.72507ZM2.44795 24.4176V9.44508H1.84795V24.4176H2.44795ZM11.77 40.2876C6.02019 37.0883 2.44795 31.0074 2.44795 24.4176H1.84795C1.84795 31.2248 5.53784 37.5065 11.4783 40.8119L11.77 40.2876ZM21.1459 45.5053L11.77 40.2876L11.4783 40.8119L20.8541 46.0296L21.1459 45.5053ZM30.23 40.2876L20.8541 45.5053L21.1459 46.0296L30.5217 40.8119L30.23 40.2876ZM20.7997 11.0402L16.6854 16.5978L17.1676 16.9548L21.2819 11.3972L20.7997 11.0402ZM22.2004 11.0403C22.0267 10.8054 21.7539 10.7 21.5 10.7C21.2461 10.7 20.9733 10.8054 20.7996 11.0403L21.282 11.3971C21.3239 11.3404 21.4025 11.3 21.5 11.3C21.5975 11.3 21.6761 11.3404 21.718 11.3971L22.2004 11.0403ZM26.3146 16.5978L22.2003 11.0402L21.7181 11.3972L25.8324 16.9548L26.3146 16.5978ZM32.7067 18.7025L26.1696 16.4921L25.9774 17.0604L32.5146 19.2709L32.7067 18.7025ZM33.2576 19.2614C33.1726 18.9978 32.9683 18.7906 32.7064 18.7024L32.5149 19.271C32.596 19.2984 32.6598 19.3626 32.6866 19.4455L33.2576 19.2614ZM33.1396 20.0361C33.2983 19.8112 33.3425 19.524 33.2575 19.2611L32.6866 19.4458C32.7134 19.5283 32.6995 19.6191 32.6493 19.6902L33.1396 20.0361ZM29.1451 25.682L33.1393 20.0364L32.6495 19.6899L28.6553 25.3355L29.1451 25.682ZM29.1259 32.435L29.2002 25.512L28.6002 25.5055L28.5259 32.4285L29.1259 32.435ZM28.7667 33.1324C28.9903 32.9696 29.1225 32.7108 29.1259 32.4354L28.5259 32.4281C28.5249 32.516 28.4827 32.597 28.4136 32.6473L28.7667 33.1324ZM28.2539 33.2998C28.4363 33.2998 28.6164 33.2424 28.7673 33.132L28.413 32.6477C28.3662 32.682 28.3105 32.6998 28.2539 32.6998V33.2998ZM27.9912 33.259C28.0784 33.2871 28.167 33.2998 28.2539 33.2998V32.6998C28.2257 32.6998 28.1992 32.6957 28.1747 32.6878L27.9912 33.259ZM21.4101 31.1916L27.993 33.2596L28.1728 32.6872L21.5899 30.6192L21.4101 31.1916ZM15.007 33.2596L21.5899 31.1916L21.4101 30.6192L14.8272 32.6872L15.007 33.2596ZM14.2327 33.132C14.4555 33.295 14.7446 33.3437 15.0086 33.2591L14.8255 32.6877C14.7466 32.713 14.6569 32.6989 14.587 32.6478L14.2327 33.132ZM13.8741 32.4354C13.8775 32.7108 14.0097 32.9696 14.2333 33.1324L14.5864 32.6473C14.5173 32.597 14.4751 32.516 14.4741 32.4281L13.8741 32.4354ZM13.7998 25.512L13.8741 32.435L14.4741 32.4285L14.3998 25.5055L13.7998 25.512ZM9.86066 20.0364L13.8549 25.682L14.3447 25.3355L10.3505 19.6899L9.86066 20.0364ZM9.74247 19.2611C9.65745 19.524 9.70172 19.8112 9.86045 20.0361L10.3507 19.6902C10.3005 19.6191 10.2866 19.5283 10.3134 19.4458L9.74247 19.2611ZM10.2936 18.7024C10.0317 18.7906 9.82738 18.9978 9.74238 19.2614L10.3134 19.4455C10.3402 19.3626 10.404 19.2984 10.4851 19.271L10.2936 18.7024ZM16.8304 16.4921L10.2933 18.7025L10.4854 19.2709L17.0226 17.0604L16.8304 16.4921ZM25.0213 17.7849C25.1267 17.9263 25.2729 18.0344 25.4432 18.0914L25.6335 17.5224C25.5826 17.5053 25.5366 17.4722 25.5023 17.4263L25.0213 17.7849ZM21.2589 12.7026L25.0207 17.7841L25.503 17.4271L21.7411 12.3456L21.2589 12.7026ZM17.9793 17.7841L21.7411 12.7026L21.2589 12.3456L17.497 17.4271L17.9793 17.7841ZM17.5568 18.0914C17.7271 18.0344 17.8733 17.9263 17.9787 17.7849L17.4977 17.4263C17.4634 17.4722 17.4174 17.5053 17.3665 17.5224L17.5568 18.0914ZM11.5804 20.1126L17.5578 18.0911L17.3655 17.5227L11.3882 19.5442L11.5804 20.1126ZM15.3815 24.8168L11.7292 19.6551L11.2394 20.0017L14.8917 25.1634L15.3815 24.8168ZM15.5422 25.3136C15.5405 25.1353 15.4844 24.9619 15.3813 24.8165L14.8919 25.1636C14.924 25.2089 14.9417 25.2632 14.9422 25.3193L15.5422 25.3136ZM15.6098 31.6435L15.5422 25.3132L14.9422 25.3196L15.0098 31.6499L15.6098 31.6435ZM21.2392 29.4696L15.2199 31.3605L15.3997 31.9329L21.419 30.0421L21.2392 29.4696ZM21.5 29.4295C21.4112 29.4295 21.3236 29.4434 21.2399 29.4694L21.4182 30.0423C21.4462 30.0336 21.4737 30.0295 21.5 30.0295V29.4295ZM21.7601 29.4694C21.6764 29.4434 21.5888 29.4295 21.5 29.4295V30.0295C21.5263 30.0295 21.5538 30.0336 21.5818 30.0423L21.7601 29.4694ZM27.7801 31.3605L21.7608 29.4696L21.581 30.0421L27.6003 31.9329L27.7801 31.3605ZM27.4578 25.3132L27.3902 31.6435L27.9902 31.6499L28.0578 25.3196L27.4578 25.3132ZM27.6187 24.8165C27.5156 24.9619 27.4595 25.1353 27.4578 25.3136L28.0578 25.3193C28.0583 25.2632 28.076 25.2089 28.1081 25.1636L27.6187 24.8165ZM31.2708 19.6551L27.6185 24.8168L28.1083 25.1634L31.7606 20.0017L31.2708 19.6551ZM25.4422 18.0911L31.4196 20.1126L31.6118 19.5442L25.6345 17.5227L25.4422 18.0911Z" fill="#347796" mask="url(#path-1-outside-1)"/>
</svg>
