<svg width="31" height="26" viewBox="0 0 31 26" fill="none" xmlns="http://www.w3.org/2000/svg">
<path d="M29.7875 24.6467V5.08517C29.7875 4.92114 29.7471 4.79811 29.6662 4.67508C29.545 4.51104 28.6962 3.4448 25.9883 2.70662V1.23028C25.9883 0.861199 25.6649 0.533123 25.3012 0.533123C24.9374 0.533123 24.6141 0.861199 24.6141 1.23028V2.37855C23.5228 2.1735 22.189 2.00946 20.6128 1.96845V0.697161C20.6128 0.328076 20.2894 0 19.9257 0C19.5619 0 19.2386 0.328076 19.2386 0.697161V1.92745H19.1982C11.8018 1.92745 8.97262 4.42902 8.85137 4.51104C8.6897 4.63407 8.60886 4.83912 8.60886 5.04416V9.71924C3.11212 9.80126 0.970013 11.6467 0.848761 11.7287C0.687093 11.8517 0.606258 12.0568 0.606258 12.2618V24.6057C0.242503 24.6467 0 24.9338 0 25.3028C0 25.6719 0.323338 26 0.687092 26H30.3129C30.6767 26 31 25.6719 31 25.3028C31 24.9338 30.6767 24.6057 30.3129 24.6057H29.7875V24.6467Z" fill="#F5FAFF"/>
<path d="M29.7875 24.6467V5.08517C29.7875 4.92114 29.7471 4.79811 29.6662 4.67508C29.545 4.51104 28.6962 3.4448 25.9883 2.70662V1.23028C25.9883 0.861199 25.6649 0.533123 25.3012 0.533123C24.9374 0.533123 24.6141 0.861199 24.6141 1.23028V2.37855C23.5228 2.1735 22.189 2.00946 20.6128 1.96845V0.697161C20.6128 0.328076 20.2894 0 19.9257 0C19.5619 0 19.2386 0.328076 19.2386 0.697161V1.92745H19.1982C11.8018 1.92745 8.97262 4.42902 8.85137 4.51104C8.6897 4.63407 8.60886 4.83912 8.60886 5.04416V9.71924C3.11212 9.80126 0.970013 11.6467 0.848761 11.7287C0.687093 11.8517 0.606258 12.0568 0.606258 12.2618V24.6057C0.242503 24.6467 0 24.9338 0 25.3028C0 25.6719 0.323338 26 0.687092 26H30.3129C30.6767 26 31 25.6719 31 25.3028C31 24.9338 30.6767 24.6057 30.3129 24.6057H29.7875V24.6467ZM8.60886 24.6467H2.02086V17.47C2.66754 17.0599 4.6884 15.9937 8.60886 15.9527V24.6467ZM8.60886 14.5994C5.25424 14.6404 3.15254 15.3375 2.02086 15.9117V12.6719C2.66754 12.2618 4.6884 11.1956 8.60886 11.1546V14.5994ZM19.279 24.6467H9.98305V5.45426C10.751 4.92114 13.5398 3.36278 19.1982 3.36278H19.2386V24.6467H19.279ZM20.6128 3.40379C22.2295 3.48581 23.5632 3.64984 24.6141 3.85489V5.04416H20.6128V3.40379ZM28.4537 24.6467H25.9883V22.5142C25.9883 22.1451 25.6649 21.817 25.3012 21.817C24.9374 21.817 24.6141 22.1451 24.6141 22.5142V24.6467H20.6128V20.9968H26.3116C26.6754 20.9968 26.9987 20.6688 26.9987 20.2997C26.9987 19.9306 26.6754 19.6025 26.3116 19.6025H25.9883V18.0852C25.9883 17.7161 25.6649 17.388 25.3012 17.388C24.9374 17.388 24.6141 17.7161 24.6141 18.0852V19.6025H20.6128V16.1167H26.3116C26.6754 16.1167 26.9987 15.7886 26.9987 15.4196C26.9987 15.0505 26.6754 14.7224 26.3116 14.7224H25.9883V13.041C25.9883 12.6719 25.6649 12.3438 25.3012 12.3438C24.9374 12.3438 24.6141 12.6719 24.6141 13.041V14.7224H20.6128V11.2366H26.3116C26.6754 11.2366 26.9987 10.9085 26.9987 10.5394C26.9987 10.1703 26.6754 9.84227 26.3116 9.84227H25.9883V7.91483C25.9883 7.54574 25.6649 7.21767 25.3012 7.21767C24.9374 7.21767 24.6141 7.54574 24.6141 7.91483V9.84227H20.6128V6.35647H26.3116C26.6754 6.35647 26.9987 6.02839 26.9987 5.65931C26.9987 5.29022 26.6754 4.96215 26.3116 4.96215H25.9883V4.10095C27.4837 4.55205 28.1708 5.04416 28.4537 5.29022V24.6467Z" fill="#02456A"/>
</svg>
