<svg width="56" height="46" viewBox="0 0 56 46" fill="none" xmlns="http://www.w3.org/2000/svg">
<path d="M54.8853 18.4541C56.0541 17.2836 56.0549 15.388 54.8872 14.2165L42.8274 2.11686C41.6608 0.946468 39.7675 0.939807 38.5927 2.10196L34.0337 6.61203C32.6693 7.80907 31.4354 7.93919 29.8736 8.10371C29.0416 8.19158 28.1817 8.282 27.2402 8.54869C26.5415 8.74629 25.9317 8.94955 25.3867 9.16207L17.6982 1.42581C16.917 0.639705 15.6454 0.638798 14.8631 1.42379L1.40482 14.9271C0.62783 15.7067 0.626798 16.9676 1.40251 17.7485L8.42774 24.8204C8.29119 24.9211 8.15438 25.0216 8.03093 25.1455L7.11563 26.0639C6.4794 26.7022 6.12945 27.5534 6.12945 28.4606C6.12945 29.3677 6.47975 30.2189 7.11475 30.8555L7.34186 31.0838C7.97765 31.7222 8.82604 32.0737 9.73017 32.0737C9.78952 32.0737 9.84597 32.0597 9.90471 32.0567C9.85696 32.9825 10.1724 33.9236 10.8756 34.6297L11.1014 34.8555C11.7599 35.5163 12.6246 35.8471 13.4901 35.8471C13.5489 35.8471 13.6068 35.8333 13.6655 35.8303C13.6625 35.8891 13.6486 35.9455 13.6486 36.0048C13.6486 36.9119 13.9989 37.7632 14.6339 38.3997L14.861 38.6281C15.4968 39.2664 16.3452 39.6179 17.2493 39.6179C17.3086 39.6179 17.365 39.6039 17.4237 39.6009C17.3759 40.5264 17.691 41.4671 18.3934 42.1723L18.6205 42.4006C19.279 43.0614 20.1437 43.3913 21.0088 43.3913C21.8739 43.3913 22.739 43.0605 23.398 42.4006L24.179 41.6166C24.3483 41.4467 24.4935 41.2599 24.621 41.0627L28.4962 44.9619C29.1857 45.6537 30.0916 46 30.9983 46C31.9042 46 32.81 45.6545 33.4995 44.9627C34.2525 44.2068 34.5793 43.1932 34.5099 42.2025C34.593 42.2082 34.6734 42.2266 34.7574 42.2266C35.7045 42.2266 36.5923 41.8587 37.2586 41.1902C37.9249 40.5217 38.2916 39.6308 38.2916 38.6806C38.2917 38.5953 38.2732 38.514 38.2674 38.4297C38.351 38.4356 38.4318 38.454 38.5165 38.454C39.4644 38.454 40.3523 38.0861 41.0186 37.4176C41.6849 36.7491 42.0515 35.8583 42.0515 34.9081C42.0515 34.8238 42.0333 34.7434 42.0275 34.6602C42.1108 34.6661 42.1931 34.6841 42.2765 34.6841C43.1824 34.6841 44.0882 34.3377 44.7777 33.6459C45.444 32.9783 45.8115 32.0866 45.8115 31.1364C45.8115 30.1862 45.4448 29.2945 44.7786 28.626L44.7537 28.6009L54.8853 18.4541ZM40.0092 3.2056C40.4 2.81347 41.035 2.81345 41.4258 3.20555L53.8096 15.6302C54.1986 16.0205 54.1986 16.6519 53.8095 17.0422L50.4201 20.4422L36.6251 6.60127L40.0092 3.2056ZM15.5734 3.20599C15.9642 2.81389 16.5992 2.81389 16.99 3.20598L20.3744 6.60171L6.57893 20.4426L3.1902 17.0426C2.80124 16.6523 2.80124 16.021 3.19019 15.6307L15.5734 3.20599ZM8.58609 29.8373L8.35898 29.609C8.05502 29.304 7.88805 28.8965 7.88805 28.4606C7.88805 28.0246 8.05546 27.6163 8.35898 27.3113L9.27428 26.393C9.58985 26.0768 10.0041 25.9183 10.4185 25.9183C10.8336 25.9183 11.2487 26.0768 11.5647 26.3947L11.7905 26.6204C12.094 26.9254 12.2615 27.3338 12.2615 27.7696C12.2615 28.2055 12.0945 28.6131 11.7905 28.9181L10.8752 29.8364C10.2673 30.4464 9.19225 30.4456 8.58609 29.8373ZM12.3444 33.6073L12.1186 33.3816C11.4875 32.7483 11.4875 31.7171 12.1186 31.0839L13.0339 30.1656L14.7684 28.4253C15.084 28.1082 15.4987 27.9506 15.9134 27.9506C16.3277 27.9506 16.7424 28.1082 17.0575 28.4244L17.2846 28.6527C17.5886 28.9577 17.7556 29.3652 17.7556 29.8011C17.7556 30.2371 17.5886 30.6454 17.2846 30.9503L16.4148 31.8231L14.6348 33.609C14.0028 34.2413 12.9755 34.2431 12.3444 33.6073ZM16.1052 37.3815L15.8781 37.1532C15.5741 36.8483 15.4072 36.4408 15.4072 36.0048C15.4072 35.5688 15.5741 35.1613 15.8781 34.8564L17.6581 33.0705C17.962 32.7655 18.3686 32.5976 18.803 32.5976C19.2375 32.5976 19.644 32.7655 19.9484 33.0714L20.1742 33.2971C20.4777 33.6021 20.6451 34.0105 20.6451 34.4463C20.6451 34.8822 20.4782 35.2898 20.1742 35.5948L18.3943 37.3807C17.7864 37.9906 16.7114 37.9898 16.1052 37.3815ZM22.9353 40.3692L22.1544 41.1532C21.5224 41.7856 20.4951 41.7864 19.8648 41.1541L19.6377 40.9258C19.0066 40.2926 19.0066 39.2614 19.6377 38.6281L20.4191 37.8442C20.7351 37.5271 21.1498 37.3686 21.5645 37.3686C21.9791 37.3686 22.3935 37.5271 22.7087 37.8433L22.9358 38.0716C23.2393 38.3765 23.4067 38.784 23.4067 39.22C23.4067 39.656 23.2393 40.0642 22.9353 40.3692ZM43.5347 32.3986C42.8417 33.0939 41.7135 33.0955 41.0189 32.3986L37.5826 28.9509C37.2391 28.6063 36.6827 28.6063 36.3392 28.9509C35.9957 29.2955 35.9958 29.8537 36.3392 30.1984L39.7755 33.6461C40.4693 34.3422 40.4693 35.4743 39.7755 36.1703C39.0817 36.8655 37.9526 36.8672 37.2588 36.1703L33.8234 32.7234C33.48 32.3789 32.9236 32.3789 32.58 32.7234C32.2365 33.068 32.2366 33.6263 32.58 33.9709L36.0155 37.4178C36.3495 37.7529 36.5333 38.2009 36.5333 38.6799C36.5333 39.159 36.3495 39.6078 36.0155 39.9429C35.3216 40.639 34.1934 40.639 33.4997 39.9429L30.0634 36.4951C29.7199 36.1505 29.1635 36.1505 28.82 36.4951C28.4765 36.8397 28.4766 37.3979 28.82 37.7426L32.2563 41.1904C32.9501 41.8865 32.9492 43.0193 32.2563 43.7154C31.5625 44.4115 30.4342 44.4098 29.7405 43.7154L25.2215 39.1684C25.2021 39.1488 25.1766 39.1418 25.156 39.1245C25.1318 38.2539 24.7921 37.4391 24.18 36.8251L23.9529 36.5968C23.4627 36.1052 22.8299 35.8072 22.1649 35.694C22.3189 35.3021 22.4039 34.8816 22.4039 34.4465C22.4039 33.5394 22.0541 32.6882 21.4173 32.0489L21.1915 31.8232C20.6805 31.3101 20.013 31.0132 19.3162 30.9126C19.4381 30.5588 19.5142 30.1874 19.5142 29.8012C19.5142 28.8941 19.1639 28.0429 18.5289 27.4063L18.3018 27.178C17.0969 25.9699 15.2105 25.8795 13.8886 26.88C13.7368 26.3163 13.455 25.7954 13.0335 25.3722L12.8077 25.1465C12.1064 24.4429 11.1714 24.1254 10.2509 24.1711L10.2567 24.1652L7.81604 21.6965L21.615 7.85194L23.7012 9.9622C22.3344 10.7497 21.4115 11.6884 20.2049 12.9217C19.94 13.1927 17.3199 15.8263 17.3199 15.8263C15.9409 17.2099 15.9409 19.4619 17.3199 20.8458C18.0094 21.5381 18.9153 21.884 19.8215 21.884C20.7274 21.884 21.6332 21.5381 22.3228 20.8458L25.7973 17.3597C26.6182 16.5361 28.651 17.4601 31.0063 18.5297C31.7418 18.8639 32.5208 19.2164 33.3322 19.5497C33.3662 19.6036 33.3905 19.662 33.4371 19.7091L43.5357 29.8736C43.8698 30.2087 44.0535 30.6567 44.0535 31.1357C44.0535 31.6147 43.8687 32.0635 43.5347 32.3986ZM43.5126 27.3515L36.935 20.7304C38.6199 21.1091 40.3859 21.2214 42.1797 20.8032C42.6529 20.6934 42.9473 20.2196 42.8383 19.7449C42.7284 19.2697 42.2553 18.9769 41.783 19.0846C38.2858 19.8957 34.8022 18.3174 31.7309 16.9226C28.7823 15.5834 26.2346 14.426 24.5539 16.1123L21.0793 19.5984C20.3859 20.2941 19.2572 20.295 18.5631 19.5984C17.8697 18.9023 17.8697 17.7699 18.5631 17.0738C18.5631 17.0738 21.191 14.4325 21.4601 14.1576C23.3878 12.1869 24.3555 11.1979 27.7175 10.2468C28.5143 10.021 29.2991 9.93839 30.0582 9.85872C31.7042 9.68467 33.4069 9.5055 35.1912 7.9406L35.3417 7.80862L49.1761 21.6891L43.5126 27.3515Z" fill="#347796"/>
</svg>
