<svg width="29" height="28" viewBox="0 0 29 28" fill="none" xmlns="http://www.w3.org/2000/svg">
<path fill-rule="evenodd" clip-rule="evenodd" d="M9.69897 0H20.2268C25.0714 0 29 3.8755 29 8.65454V19.04C29 23.819 25.0714 27.6945 20.2268 27.6945H9.69897C4.85442 27.6945 0.925781 23.819 0.925781 19.04V8.65454C0.925781 3.8755 4.85442 0 9.69897 0ZM20.2271 25.0985C23.6136 25.0985 26.3683 22.3809 26.3683 19.0403V8.65485C26.3683 5.3142 23.6136 2.59668 20.2271 2.59668H9.69931C6.31287 2.59668 3.55809 5.3142 3.55809 8.65485V19.0403C3.55809 22.3809 6.31287 25.0985 9.69931 25.0985H20.2271Z" fill="white"/>
<path fill-rule="evenodd" clip-rule="evenodd" d="M7.94531 13.8465C7.94531 10.0229 11.0879 6.92285 14.9638 6.92285C18.8398 6.92285 21.9824 10.0229 21.9824 13.8465C21.9824 17.67 18.8398 20.7701 14.9638 20.7701C11.0879 20.7701 7.94531 17.67 7.94531 13.8465ZM10.5776 13.8478C10.5776 16.233 12.5463 18.175 14.9642 18.175C17.3821 18.175 19.3508 16.233 19.3508 13.8478C19.3508 11.4609 17.3821 9.52051 14.9642 9.52051C12.5463 9.52051 10.5776 11.4609 10.5776 13.8478Z" fill="white"/>
<ellipse cx="22.5094" cy="6.40403" rx="0.935191" ry="0.922585" fill="white"/>
</svg>
