<svg width="351" height="26" viewBox="0 0 351 26" fill="none" xmlns="http://www.w3.org/2000/svg">
<path d="M51.2312 4.07766H48.9768V20.428H57.6859L57.9469 18.4584H51.2312V4.07766V4.07766Z" fill="white"/>
<path d="M61.7439 1.91814C60.8422 1.91814 60.2251 2.55884 60.2251 3.41314C60.2251 4.24372 60.8422 4.88444 61.7439 4.88444C62.6694 4.88444 63.2864 4.24372 63.2864 3.41314C63.2864 2.55884 62.6694 1.91814 61.7439 1.91814ZM62.8593 7.92197H60.676V20.428H62.8593V7.92197V7.92197Z" fill="white"/>
<path d="M73.2532 7.63722C71.6158 7.63722 70.2869 8.49152 69.4326 9.77296L69.2428 7.92201H67.3681V20.428H69.5513V11.5528C70.3818 10.2239 71.3311 9.34583 72.7312 9.34583C73.9414 9.34583 74.7008 9.89163 74.7008 11.7663V20.428H76.884V11.4579C76.884 9.0848 75.5551 7.63722 73.2532 7.63722V7.63722Z" fill="white"/>
<path d="M83.4573 2.63022L81.2741 2.89126V20.4281H83.4573V2.63022V2.63022ZM90.6477 7.92214H88.2034L83.5997 13.5937L88.5594 20.4281H91.1698L86.0439 13.4514L90.6477 7.92214V7.92214Z" fill="white"/>
<path d="M94.492 1.91814C93.5903 1.91814 92.9733 2.55884 92.9733 3.41314C92.9733 4.24372 93.5903 4.88444 94.492 4.88444C95.4175 4.88444 96.0345 4.24372 96.0345 3.41314C96.0345 2.55884 95.4175 1.91814 94.492 1.91814ZM95.6074 7.92197H93.4242V20.428H95.6074V7.92197V7.92197Z" fill="white"/>
<path d="M106.001 7.63722C104.364 7.63722 103.035 8.49152 102.181 9.77296L101.991 7.92201H100.116V20.428H102.299V11.5528C103.13 10.2239 104.079 9.34583 105.479 9.34583C106.69 9.34583 107.449 9.89163 107.449 11.7663V20.428H109.632V11.4579C109.632 9.0848 108.303 7.63722 106.001 7.63722V7.63722Z" fill="white"/>
<path d="M123.467 6.522C121.996 7.18645 120.857 7.70851 117.748 7.63733C114.995 7.63733 112.931 9.44086 112.931 12.0038C112.931 13.6174 113.595 14.709 115.043 15.4684C114.141 16.0617 113.666 16.8685 113.666 17.6753C113.666 18.9331 114.663 20.0484 116.894 20.0484H118.863C120.43 20.0484 121.379 20.6417 121.379 21.8282C121.379 23.0859 120.43 23.7741 117.724 23.7741C114.972 23.7741 114.331 23.1096 114.331 21.6858H112.361C112.361 24.225 113.643 25.4827 117.724 25.4827C121.592 25.4827 123.586 24.1063 123.586 21.6858C123.586 19.6924 121.877 18.2212 119.314 18.2212H117.321C116.039 18.2212 115.683 17.7703 115.683 17.2007C115.683 16.7499 115.944 16.299 116.3 16.0379C116.823 16.204 117.321 16.2753 117.89 16.2753C120.88 16.2753 122.66 14.4954 122.66 12.0275C122.66 10.5799 121.925 9.53577 120.453 8.87132C121.877 8.87132 123.064 8.82386 124.108 8.49162L123.467 6.522V6.522ZM117.748 9.20353C119.528 9.20353 120.43 10.1528 120.43 11.98C120.43 13.7835 119.504 14.8277 117.795 14.8277C116.087 14.8277 115.161 13.6649 115.161 12.0038C115.161 10.3663 116.063 9.20353 117.748 9.20353V9.20353Z" fill="white"/>
<path d="M136.566 3.57947C133.149 3.57947 130.634 5.43044 130.634 8.32558C130.634 10.7698 131.986 12.2886 135.664 13.4276C138.061 14.1633 138.678 14.7091 138.678 15.9193C138.678 17.1771 137.682 17.9365 136.068 17.9365C134.43 17.9365 133.125 17.3432 131.915 16.3228L129.945 18.4822C131.298 19.7874 133.339 20.8316 136.187 20.8316C140.292 20.8316 142.712 18.6958 142.712 15.6346C142.712 12.5971 140.933 11.3156 137.824 10.3189C135.261 9.51209 134.644 9.08495 134.644 8.0408C134.644 6.99665 135.498 6.42713 136.851 6.42713C138.18 6.42713 139.319 6.878 140.458 7.80349L142.262 5.69147C140.814 4.31511 139.082 3.57947 136.566 3.57947V3.57947Z" fill="white"/>
<path d="M155.408 7.82701H151.659V16.5836C151.113 17.5328 150.401 18.0549 149.618 18.0549C148.835 18.0549 148.408 17.6752 148.408 16.3937V7.82701H144.658V16.8683C144.658 19.3126 145.821 20.8314 148.171 20.8314C149.832 20.8314 151.066 20.1669 151.991 18.838L152.157 20.4279H155.408V7.82701V7.82701Z" fill="white"/>
<path d="M165.47 7.42386C164.236 7.42386 162.883 7.92221 161.839 9.22739L161.649 7.82728H158.351V25.6964L162.1 25.293V19.5264C162.883 20.4045 163.928 20.8316 165.162 20.8316C168.27 20.8316 170.169 17.9839 170.169 14.0921C170.169 10.0105 168.721 7.42386 165.47 7.42386V7.42386ZM164.022 18.0789C163.239 18.0789 162.622 17.7229 162.1 16.9635V11.6479C162.646 10.7224 163.405 10.1766 164.283 10.1766C165.517 10.1766 166.277 11.0072 166.277 14.1396C166.277 16.9635 165.423 18.0789 164.022 18.0789V18.0789Z" fill="white"/>
<path d="M179.637 7.42386C178.403 7.42386 177.051 7.92221 176.007 9.22739L175.817 7.82728H172.518V25.6964L176.268 25.293V19.5264C177.051 20.4045 178.095 20.8316 179.329 20.8316C182.438 20.8316 184.336 17.9839 184.336 14.0921C184.336 10.0105 182.888 7.42386 179.637 7.42386V7.42386ZM178.19 18.0789C177.407 18.0789 176.79 17.7229 176.268 16.9635V11.6479C176.813 10.7224 177.573 10.1766 178.451 10.1766C179.685 10.1766 180.444 11.0072 180.444 14.1396C180.444 16.9635 179.59 18.0789 178.19 18.0789Z" fill="white"/>
<path d="M190.031 20.8315C190.933 20.8315 191.74 20.6416 192.309 20.4043L191.574 17.7465C191.408 17.8177 191.218 17.8651 190.957 17.8651C190.506 17.8651 190.316 17.6041 190.316 17.082V2.41653L186.567 2.81996V17.2244C186.567 19.5263 187.848 20.8315 190.031 20.8315Z" fill="white"/>
<path d="M204.46 7.82701H200.591L198.123 18.0311L195.869 7.82701H191.882L195.727 20.4279H197.008C196.32 22.0416 195.418 22.7535 192.95 23.062L193.354 25.6961C197.317 25.4825 199.452 23.6316 200.449 20.4517L204.46 7.82701V7.82701Z" fill="white"/>
<path d="M227.598 7.82701H224.015L222.496 17.6277L220.763 7.82701H217.109L215.139 17.6277L213.834 7.82701H210.037L212.719 20.4279H217.156L218.818 11.173L220.502 20.4279H224.988L227.598 7.82701V7.82701Z" fill="white"/>
<path d="M231.038 1.18253C229.733 1.18253 228.831 2.108 228.831 3.31826C228.831 4.52851 229.733 5.45402 231.038 5.45402C232.343 5.45402 233.269 4.52851 233.269 3.31826C233.269 2.108 232.343 1.18253 231.038 1.18253ZM232.936 7.82709H229.187V20.428H232.936V7.82709Z" fill="white"/>
<path d="M242.523 17.4617C242.024 17.7465 241.597 17.8651 241.17 17.8651C240.387 17.8651 239.983 17.438 239.983 16.2277V10.4375H242.475L242.879 7.8271H239.983V4.67093L236.234 5.09809V7.8271H234.454V10.4375H236.234V16.2752C236.234 19.2415 237.587 20.8077 240.363 20.8314C241.502 20.8314 242.831 20.4992 243.78 19.8348L242.523 17.4617Z" fill="white"/>
<path d="M252.418 7.42386C250.947 7.42386 249.808 8.01713 248.787 9.17993V2.44045L245.038 2.82012V20.4282H248.787V11.7903C249.452 10.7699 250.14 10.1766 250.971 10.1766C251.683 10.1766 252.157 10.5326 252.157 11.8615V20.4282H255.907V11.2207C255.907 8.82397 254.601 7.42386 252.418 7.42386Z" fill="white"/>
<path d="M269.005 3.98289H264.425V20.4282H269.361C273.562 20.4282 277.548 18.7433 277.548 12.1225C277.548 5.33551 273.395 3.98289 269.005 3.98289ZM269.551 6.80683C271.829 6.80683 273.514 7.70856 273.514 12.1225C273.514 16.4889 271.948 17.6042 269.599 17.6042H268.317V6.80683H269.551Z" fill="white"/>
<path d="M290.792 13.8786C290.792 9.79691 288.585 7.42386 284.978 7.42386C281.157 7.42386 279.092 10.4139 279.092 14.1871C279.092 18.1263 281.228 20.8316 285.428 20.8316C287.469 20.8316 289.083 20.0722 290.341 19.0756L288.798 16.9873C287.707 17.7467 286.805 18.1026 285.784 18.1026C284.242 18.1026 283.174 17.4856 282.913 15.2312H290.72C290.768 14.8515 290.792 14.282 290.792 13.8786V13.8786ZM287.113 12.9768H282.913C283.079 10.7224 283.815 9.91556 285.072 9.91556C286.567 9.91556 287.09 11.1021 287.113 12.8107V12.9768Z" fill="white"/>
<path d="M306.834 7.42386C305.22 7.42386 304.058 8.08831 303.061 9.41721C302.586 8.13577 301.495 7.42386 300.095 7.42386C298.552 7.42386 297.413 8.0646 296.44 9.29858L296.179 7.82728H292.904V20.4282H296.654V11.814C297.199 10.7699 297.793 10.1766 298.576 10.1766C299.145 10.1766 299.644 10.5326 299.644 11.8615V20.4282H303.393V11.814C303.939 10.7699 304.508 10.1766 305.315 10.1766C305.885 10.1766 306.383 10.5326 306.383 11.8615V20.4282H310.133V11.2207C310.133 8.82397 308.78 7.42386 306.834 7.42386Z" fill="white"/>
<path d="M322.971 16.7734V11.885C322.971 8.9661 321.405 7.42363 317.75 7.42363C316.326 7.42363 314.594 7.75584 313.004 8.34911L313.858 10.8171C315.116 10.3899 316.35 10.1526 317.157 10.1526C318.699 10.1526 319.293 10.6035 319.293 12.0985V12.6443H318.011C314.191 12.6443 312.102 14.1394 312.102 16.8921C312.102 19.194 313.692 20.8314 316.208 20.8314C317.703 20.8314 319.103 20.333 320.004 18.9329C320.574 20.1906 321.547 20.6415 323.042 20.7602L323.825 18.316C323.232 18.1024 322.971 17.7464 322.971 16.7734ZM317.299 18.1498C316.374 18.1498 315.828 17.5566 315.828 16.5599C315.828 15.3022 316.658 14.7089 318.367 14.7089H319.293V16.9396C318.842 17.699 318.177 18.1498 317.299 18.1498V18.1498Z" fill="white"/>
<path d="M333.34 7.42386C331.774 7.42386 330.564 8.06459 329.496 9.32231L329.235 7.82728H325.96V20.4282H329.71V11.814C330.374 10.7699 331.062 10.1766 331.893 10.1766C332.628 10.1766 333.079 10.5326 333.079 11.8615V20.4282H336.829V11.2207C336.829 8.82397 335.524 7.42386 333.34 7.42386Z" fill="white"/>
<path d="M347.2 2.41659V8.61027C346.464 7.87464 345.443 7.42375 344.209 7.42375C341.101 7.42375 339.06 10.2002 339.06 14.092C339.06 18.1737 340.65 20.8315 343.854 20.8315C345.562 20.8315 346.701 20.001 347.437 18.9568L347.627 20.4281H350.949V2.82001L347.2 2.41659V2.41659ZM345.016 18.0788C343.806 18.0788 342.952 17.2482 342.952 14.1158C342.952 11.2918 343.901 10.1528 345.23 10.1528C346.06 10.1528 346.63 10.5562 347.2 11.2206V16.6549C346.606 17.6042 345.918 18.0788 345.016 18.0788Z" fill="white"/>
<path d="M1.67735 17.1334C1.67735 17.1334 8.59875 17.347 12.4194 18.7669C16.2321 20.1946 18.4746 22.8445 18.4746 22.8445H5.67199L1.67735 17.1334V17.1334Z" fill="#FDD003"/>
<path d="M0.046402 0H19.2049L35.1953 22.8446H21.2694C12.853 -3.19568e-06 0.046402 0 0.046402 0" fill="#FDD003"/>
</svg>
