<svg viewBox="0 0 19 6" fill="none" xmlns="http://www.w3.org/2000/svg">
<path d="M12.3529 4.08139V3.08876H12.7855C12.8146 3.08876 12.8431 3.08978 12.8712 3.09143C12.8784 3.0918 12.8857 3.09218 12.8928 3.09282C12.9175 3.09459 12.9416 3.09687 12.9652 3.10003L12.9754 3.1013C13.0019 3.1051 13.0275 3.11003 13.0526 3.11573L13.0685 3.11991C13.0889 3.12497 13.1087 3.13105 13.1278 3.1375L13.1416 3.14219C13.1712 3.1532 13.1989 3.16662 13.225 3.18169L13.2372 3.18865C13.2579 3.20169 13.2775 3.21612 13.2954 3.23207L13.3049 3.24106C13.3231 3.2584 13.3401 3.27688 13.3546 3.29777V3.29765L13.3555 3.29866C13.3683 3.31701 13.3791 3.33739 13.3891 3.35854C13.3924 3.36575 13.3955 3.37309 13.3984 3.38044C13.4026 3.39158 13.4065 3.40297 13.41 3.41475C13.4126 3.42348 13.4154 3.43221 13.4177 3.44146C13.4192 3.44829 13.4206 3.45525 13.422 3.46234C13.4236 3.47146 13.4249 3.48095 13.4263 3.49032C13.4278 3.50095 13.4292 3.51147 13.4302 3.5226C13.4316 3.54058 13.4329 3.55881 13.4329 3.57818C13.4329 3.5997 13.4319 3.62046 13.43 3.64046L13.4295 3.64654C13.4254 3.68591 13.4181 3.72249 13.407 3.75629L13.4059 3.75959C13.4002 3.7763 13.3938 3.79225 13.3864 3.80744L13.3855 3.80946C13.3777 3.82541 13.3688 3.84061 13.3592 3.85504H13.3591C13.3496 3.86909 13.3391 3.88225 13.3278 3.89492L13.3249 3.89821C13.2774 3.94998 13.214 3.99062 13.134 4.02075L13.1307 4.02202C13.1116 4.02898 13.0914 4.03544 13.0703 4.04138L13.0655 4.04278C13.0437 4.04885 13.0212 4.0543 12.9975 4.05898L12.9952 4.05949C12.9724 4.06404 12.9485 4.06797 12.9238 4.07139L12.9098 4.07316C12.8866 4.0762 12.8629 4.07886 12.8384 4.08101L12.8291 4.08177C12.8027 4.08379 12.7752 4.08557 12.7467 4.08671L12.7382 4.08696C12.7084 4.08797 12.6779 4.0886 12.646 4.0886C12.5832 4.0886 12.522 4.0862 12.4611 4.08417C12.4323 4.08316 12.4028 4.08189 12.374 4.08151C12.3672 4.08139 12.36 4.08139 12.3529 4.08139V4.08139ZM14.8881 4.40775L15.3349 3.3936L15.7716 4.40775H14.8881ZM16.776 5.29922L16.7752 5.29896C16.7518 5.29466 16.7305 5.28922 16.7106 5.28264C16.6935 5.27682 16.6782 5.26985 16.6635 5.26238L16.6515 5.25643C16.6363 5.24795 16.6219 5.23883 16.6087 5.22858L16.608 5.22808C16.5947 5.21757 16.5824 5.20592 16.5709 5.19364L16.5667 5.18908C16.5551 5.17617 16.5442 5.1625 16.534 5.14781L16.5337 5.14743C16.524 5.13363 16.5153 5.1187 16.5067 5.10338L16.5059 5.10173L16.501 5.09313C16.4932 5.07831 16.4854 5.06287 16.478 5.04679L16.4757 5.04223L15.5067 2.91153H15.3567L14.3875 4.99641C14.3652 5.04375 14.3418 5.08578 14.3173 5.12212L14.317 5.12237C14.2552 5.21288 14.1856 5.26821 14.1046 5.28441L14.1026 5.28479H14.1024C14.0865 5.28783 14.0703 5.28947 14.0536 5.28947C14.0382 5.28947 14.0239 5.28846 14.0103 5.28618H14.0101C13.9967 5.28403 13.9839 5.28074 13.9715 5.27618L13.9698 5.27555L13.9549 5.26821C13.9425 5.26251 13.9306 5.25542 13.9185 5.24681C13.9113 5.24162 13.9041 5.23706 13.8966 5.23073L13.8963 5.23061C13.8842 5.22023 13.8719 5.2082 13.8591 5.19466L13.8575 5.19276C13.8463 5.18085 13.8347 5.16718 13.8227 5.15262L13.8097 5.13668L13.8096 5.13629C13.7978 5.12173 13.7859 5.10629 13.7733 5.0892C13.7663 5.08009 13.7587 5.06945 13.7516 5.05971C13.7407 5.04502 13.7305 5.03072 13.7186 5.01401L13.1612 4.22672C13.1769 4.22292 13.1963 4.21824 13.217 4.21279C13.2261 4.21052 13.2353 4.20824 13.2451 4.20557L13.2494 4.20444L13.2549 4.20279C13.275 4.19722 13.2965 4.19077 13.3188 4.18355L13.3332 4.17925L13.3383 4.17735C13.362 4.16937 13.3864 4.16013 13.4114 4.15L13.4243 4.14506L13.4239 4.14481V4.14469L13.4243 4.14506L13.4345 4.14013C13.4546 4.13139 13.4749 4.1219 13.4953 4.11152L13.5043 4.10721L13.5067 4.10595C13.522 4.09772 13.5372 4.08873 13.5524 4.07949L13.5677 4.07063L13.5674 4.0705C13.5835 4.06025 13.5995 4.04949 13.6148 4.03759L13.618 4.03493L13.6262 4.02847C13.635 4.02151 13.6439 4.01467 13.6523 4.00733L13.6681 3.99252L13.6734 3.98758L13.6809 3.98062C13.6891 3.97239 13.6972 3.96404 13.7052 3.95555C13.7121 3.94745 13.719 3.93922 13.7258 3.93074C13.7311 3.92391 13.7366 3.91682 13.742 3.90935C13.7471 3.90226 13.752 3.89492 13.757 3.88732C13.7611 3.88099 13.7649 3.87453 13.7688 3.8677V3.86782C13.7728 3.86111 13.7763 3.85453 13.78 3.84795C13.783 3.84162 13.7863 3.83516 13.7897 3.82845C13.7921 3.82251 13.7951 3.81668 13.7976 3.81073C13.8001 3.8044 13.8027 3.7982 13.8052 3.79199C13.8072 3.78605 13.8096 3.7801 13.8114 3.77389C13.8134 3.76832 13.8151 3.76263 13.8168 3.75706C13.8185 3.75098 13.8203 3.74541 13.8218 3.73958C13.8234 3.73364 13.8247 3.72756 13.8261 3.72161L13.8294 3.7049C13.8304 3.69945 13.8319 3.69376 13.8325 3.68794C13.8335 3.68199 13.8343 3.67642 13.8352 3.67046C13.8358 3.66477 13.8367 3.65882 13.8371 3.65325C13.8378 3.64768 13.8382 3.64198 13.8389 3.63641C13.839 3.63072 13.8395 3.62502 13.8397 3.61919C13.8399 3.61337 13.8399 3.60755 13.8402 3.60173V3.58261C13.8402 3.57539 13.8399 3.56805 13.8399 3.56109H13.8386H13.8399C13.8397 3.55387 13.8395 3.54691 13.839 3.53969C13.8386 3.53261 13.8382 3.52564 13.8377 3.51881C13.8368 3.51286 13.8365 3.50704 13.8356 3.50133C13.8352 3.49539 13.8343 3.48969 13.8335 3.48412C13.8325 3.47805 13.8319 3.4726 13.8309 3.46703L13.8295 3.46728L13.8309 3.46703C13.8301 3.46146 13.829 3.45576 13.8282 3.45019L13.8249 3.43525L13.8216 3.42044L13.8177 3.40576L13.8139 3.39133L13.8097 3.37753L13.8052 3.36436L13.8042 3.36474V3.36449L13.8052 3.36411L13.8004 3.35095L13.7957 3.33778L13.7904 3.32499L13.7849 3.31208L13.7786 3.29954L13.7725 3.28689L13.7662 3.27448L13.7586 3.26182L13.7511 3.24916L13.75 3.24967L13.7511 3.24903L13.7435 3.23675L13.7345 3.22397L13.73 3.21777L13.7283 3.21524L13.7245 3.20992L13.714 3.19612L13.7037 3.18283L13.6891 3.1665L13.6848 3.16206L13.6829 3.15991L13.6743 3.15055C13.6685 3.14459 13.6623 3.13877 13.6564 3.13295C13.6488 3.12548 13.6405 3.11852 13.6326 3.11168C13.6205 3.1013 13.608 3.0913 13.5954 3.08193L13.5845 3.07497C13.5711 3.06547 13.5569 3.05661 13.5426 3.048C13.5341 3.04294 13.526 3.03737 13.5173 3.03269C13.494 3.01977 13.4701 3.00787 13.445 2.99724L13.4443 2.99686C13.4234 2.98787 13.4022 2.97964 13.3806 2.9723L13.3769 2.97116L13.371 2.96939C13.3573 2.96471 13.3435 2.96027 13.3293 2.95635L13.3292 2.95711H13.3289L13.3293 2.95635C13.3216 2.95407 13.3136 2.9523 13.3058 2.95015L13.2984 2.94825L13.2844 2.94458C13.2708 2.94129 13.257 2.9385 13.2427 2.93559L13.2282 2.93306L13.2211 2.93179C13.2146 2.93052 13.208 2.92913 13.2013 2.92824C13.1877 2.92597 13.1741 2.92407 13.1603 2.92242L13.1487 2.9209L13.1444 2.92052C13.1363 2.91951 13.1284 2.9185 13.1202 2.91774C13.1066 2.91647 13.0933 2.91546 13.0799 2.91457L13.0669 2.91381H13.066C13.0573 2.91331 13.0485 2.91267 13.0399 2.9123C13.0271 2.91192 13.0143 2.91166 13.0016 2.91153H11.645L11.645 3.0318C11.6728 3.0318 11.698 3.03332 11.722 3.03573L11.7383 3.03788C11.7568 3.04003 11.7739 3.04319 11.7898 3.04712L11.8018 3.04977C11.8197 3.05471 11.8358 3.06079 11.8506 3.06762L11.8624 3.0737C11.8745 3.08016 11.8856 3.08712 11.8958 3.0951L11.902 3.09965C11.9134 3.1094 11.923 3.12029 11.9316 3.13194L11.9365 3.13953C11.9422 3.14801 11.9465 3.15738 11.9506 3.167C11.9539 3.17409 11.9569 3.18118 11.9594 3.1889C11.9631 3.20042 11.9664 3.2122 11.9684 3.2246L11.9693 3.22777L11.9703 3.23638C11.9726 3.25245 11.9739 3.26904 11.9739 3.28689V5.05299C11.9739 5.07274 11.9726 5.09122 11.9698 5.10882L11.9691 5.11325C11.9664 5.12984 11.9625 5.14553 11.957 5.16022L11.9563 5.16237V5.16249C11.9444 5.19351 11.9264 5.21984 11.901 5.24124L11.9003 5.24199C11.8484 5.28516 11.7663 5.30821 11.645 5.30821V5.42885H12.6928V5.30821C12.6613 5.30821 12.6324 5.30681 12.6061 5.3039H12.6044C12.5789 5.30099 12.556 5.29694 12.5348 5.29162L12.5304 5.29048C12.5134 5.28605 12.4987 5.28036 12.4846 5.27428C12.477 5.27098 12.4699 5.26757 12.4632 5.26377C12.4343 5.24832 12.4109 5.22934 12.3942 5.20604V5.20592L12.3929 5.20414C12.3838 5.19136 12.3766 5.17756 12.3709 5.16275L12.3699 5.15984C12.3582 5.12857 12.3529 5.093 12.3529 5.05299V4.25862C12.5029 4.26925 12.5781 4.26925 12.7285 4.27305L13.5331 5.42885H14.9059V5.30821C14.8136 5.30326 14.7517 5.28997 14.7083 5.27212C14.6999 5.26883 14.6924 5.26541 14.6855 5.26174C14.6496 5.24263 14.6302 5.21934 14.6212 5.1944L14.6211 5.19402L14.621 5.19389C14.6145 5.17566 14.613 5.15667 14.613 5.13806C14.613 5.10654 14.6146 5.07502 14.6198 5.04362L14.6204 5.03983C14.6231 5.02413 14.6265 5.00856 14.6312 4.99299H14.6313L14.6317 4.9921C14.6361 4.97678 14.6416 4.96172 14.6484 4.94665L14.795 4.59902H15.8538L16.0037 4.93589C16.0089 4.94716 16.0151 4.96197 16.0215 4.97792L16.023 4.98222C16.0289 4.99717 16.0342 5.01451 16.0394 5.03223C16.0423 5.04248 16.0451 5.05261 16.0472 5.06337L16.0488 5.07109C16.0518 5.08857 16.0539 5.10629 16.0539 5.12401C16.0539 5.1373 16.0529 5.14996 16.051 5.16199L16.0494 5.16857C16.0475 5.17946 16.0449 5.18971 16.0411 5.19946L16.0403 5.20123C16.0358 5.21174 16.0301 5.22161 16.023 5.23073L16.0226 5.23111L16.0213 5.23288C15.9906 5.27073 15.9347 5.29567 15.8402 5.30453L15.8351 5.30504C15.8114 5.30707 15.7855 5.30821 15.7569 5.30821V5.42885H16.8512V5.30821C16.8242 5.30643 16.7992 5.30339 16.776 5.29922" fill="white"/>
<path d="M9.19116 2.91161L9.15521 3.54255H9.27699C9.27953 3.52901 9.28244 3.51686 9.2851 3.50432C9.28839 3.48926 9.29194 3.47407 9.29535 3.46002C9.29915 3.44483 9.30308 3.42976 9.30751 3.41571L9.31067 3.40583C9.3151 3.39203 9.31966 3.37887 9.3246 3.36621L9.32776 3.35773L9.32764 3.3576C9.33422 3.34089 9.34105 3.32545 9.34827 3.31076L9.34954 3.30848C9.35637 3.29468 9.36359 3.28177 9.37118 3.26975L9.37422 3.26506C9.38118 3.25418 9.38853 3.24392 9.39599 3.2343L9.3998 3.22949C9.40713 3.2205 9.41473 3.21227 9.42245 3.2043L9.42347 3.20328L9.42954 3.19734C9.43777 3.18949 9.44625 3.18202 9.45499 3.17543L9.4579 3.17316C9.46638 3.1667 9.47537 3.161 9.48449 3.15543L9.49335 3.15036C9.50145 3.14581 9.5098 3.14163 9.51854 3.13771L9.52423 3.13505V3.13492C9.53449 3.13049 9.545 3.12669 9.55576 3.12315L9.56956 3.1191L9.58538 3.11492C9.6012 3.11074 9.61753 3.1072 9.63475 3.1048C9.67475 3.09884 9.7178 3.09631 9.76362 3.09593L9.77768 3.09568H10.1318V5.05307C10.1318 5.07206 10.1302 5.08978 10.1277 5.10662L10.1264 5.11447C10.1237 5.13029 10.1197 5.14549 10.1143 5.15954L10.113 5.16295C10.1068 5.17789 10.0992 5.19182 10.0896 5.20448L10.0888 5.20549V5.20562L10.0886 5.20587C10.048 5.25878 9.97478 5.29233 9.85439 5.30373L9.85148 5.30411C9.82148 5.30689 9.78882 5.30829 9.75261 5.30829V5.42893H10.8827V5.30829C10.8471 5.30829 10.8146 5.30689 10.7851 5.30411L10.784 5.30385C10.755 5.30107 10.7288 5.29702 10.7051 5.29158L10.7028 5.29094C10.6821 5.28613 10.664 5.27993 10.6471 5.27309C10.6384 5.26955 10.6308 5.26537 10.6231 5.26119C10.594 5.246 10.5702 5.22815 10.5533 5.206V5.20587L10.5529 5.20562L10.5526 5.20498C10.5428 5.19182 10.5348 5.17739 10.5286 5.16194L10.5285 5.16169C10.5224 5.14637 10.5182 5.13004 10.5153 5.11257L10.515 5.1108L10.5147 5.1089C10.5122 5.0913 10.5107 5.07282 10.5107 5.05307V3.09568H10.8649C10.8963 3.09568 10.9261 3.09656 10.955 3.09884L10.9566 3.09897C10.9849 3.10112 11.0117 3.10466 11.0373 3.11011L11.0401 3.11062C11.0651 3.1158 11.0888 3.12315 11.1112 3.13226L11.1151 3.13366C11.1369 3.1429 11.1575 3.15442 11.1768 3.16809L11.1825 3.17164C11.206 3.18923 11.2276 3.21012 11.2473 3.23557L11.2552 3.24645C11.2619 3.25557 11.2683 3.26518 11.2746 3.27557L11.2835 3.29152C11.2898 3.30291 11.2958 3.31456 11.3015 3.32722L11.3054 3.33595C11.3168 3.3619 11.3272 3.39064 11.3367 3.42229L11.3406 3.43659C11.3497 3.469 11.3582 3.50369 11.3652 3.54255H11.4868L11.4516 2.91161H9.19116H9.19116Z" fill="white"/>
<path d="M9.15459 4.71257H9.15484C9.15484 4.70625 9.15484 4.70004 9.15459 4.69358C9.15421 4.68738 9.15408 4.68118 9.15345 4.6751L9.15256 4.67523L9.15345 4.6751C9.15333 4.66903 9.15282 4.66295 9.15193 4.65687H9.15218L9.15104 4.64612L9.15054 4.64029L9.15041 4.63915C9.14965 4.63307 9.14876 4.62725 9.14839 4.62142C9.1475 4.61585 9.14636 4.60991 9.14535 4.60434L9.14244 4.58914L9.13978 4.57547L9.13889 4.57155L9.13737 4.56522L9.13674 4.56218H9.13687L9.13345 4.54889L9.1299 4.5361L9.12598 4.52306L9.12193 4.51066L9.1175 4.49813L9.11737 4.49825L9.1175 4.49812L9.11256 4.48597L9.10763 4.47357L9.10218 4.46141L9.09661 4.44964L9.09104 4.43761L9.09053 4.43685L9.08458 4.42597L9.07825 4.4147L9.07192 4.40356L9.07205 4.40343L9.06521 4.39229L9.05661 4.379L9.05597 4.37824L9.05572 4.37799L9.04686 4.36495L9.03673 4.35115L9.02584 4.33761L9.01711 4.32697L9.01445 4.32368L9.00381 4.31127C8.99837 4.30545 8.99306 4.29975 8.98761 4.29406C8.98204 4.28849 8.9766 4.28304 8.9709 4.2776L8.969 4.27557L8.96596 4.27253C8.95888 4.2657 8.95115 4.25861 8.9433 4.25215C8.93571 4.24557 8.92824 4.23924 8.92065 4.23316C8.90191 4.2181 8.88254 4.20367 8.86228 4.18987L8.85975 4.18797L8.84658 4.17987C8.82848 4.1681 8.80987 4.15645 8.79063 4.14543C8.78202 4.14037 8.77316 4.13569 8.7643 4.131C8.74696 4.12151 8.72911 4.11227 8.71113 4.10328C8.70303 4.09948 8.69518 4.09556 8.6872 4.09176C8.6329 4.06619 8.57656 4.04302 8.51896 4.02112L8.5158 4.01985L8.51162 4.01846C8.45959 3.99871 8.4068 3.98023 8.35414 3.96213L8.34363 3.95858C8.33489 3.95554 8.32603 3.95263 8.3173 3.9496C8.28058 3.93706 8.24413 3.92465 8.20843 3.91225C8.20248 3.91022 8.19665 3.90819 8.19083 3.9063C8.14095 3.88883 8.0926 3.8711 8.04626 3.85262L8.03411 3.84756C7.99081 3.83009 7.95005 3.81161 7.91195 3.79198C7.90549 3.78856 7.89928 3.7854 7.89308 3.78211C7.87916 3.77452 7.86586 3.76666 7.85257 3.75869C7.84511 3.75413 7.83751 3.7497 7.83029 3.74502L7.82333 3.74021C7.79345 3.71995 7.76611 3.69818 7.74256 3.67463L7.74054 3.67223C7.69142 3.6221 7.65825 3.56348 7.64686 3.49259L7.64673 3.49246C7.64395 3.47461 7.64243 3.45601 7.64243 3.43651C7.64243 3.35701 7.66711 3.27852 7.71497 3.21142L7.71636 3.20953C7.73231 3.1875 7.75054 3.16674 7.77143 3.14775L7.77218 3.14686C7.79307 3.12813 7.81637 3.11078 7.84181 3.09534L7.847 3.09255C7.87143 3.07825 7.89802 3.06572 7.92688 3.05521L7.93574 3.05204C7.966 3.04141 7.99816 3.03305 8.03284 3.0271L8.03968 3.02659C8.07462 3.02116 8.11107 3.01786 8.15045 3.01786C8.16488 3.01786 8.18045 3.01849 8.1964 3.01951L8.21185 3.0209C8.22324 3.02179 8.23476 3.02293 8.24653 3.02445C8.25286 3.0252 8.25944 3.02622 8.2659 3.02736C8.27729 3.02913 8.28894 3.03116 8.30071 3.03356C8.30743 3.03495 8.31414 3.03634 8.32097 3.03787C8.33376 3.04078 8.34654 3.04432 8.35958 3.04787C8.36553 3.04964 8.37161 3.05115 8.37769 3.05318C8.39642 3.05901 8.41554 3.06559 8.43453 3.07343L8.43541 3.07357C8.45478 3.08167 8.4744 3.09078 8.49377 3.10078L8.50997 3.10977C8.5239 3.11737 8.53782 3.12547 8.5515 3.13433C8.55859 3.13876 8.56517 3.14357 8.57201 3.14826C8.58428 3.15673 8.59619 3.16572 8.60821 3.17509C8.61518 3.18066 8.62201 3.18623 8.62897 3.19218C8.64543 3.20624 8.66151 3.22168 8.67733 3.23801L8.68822 3.24877C8.70708 3.26928 8.72518 3.29168 8.7424 3.31561C8.74936 3.32523 8.75595 3.33536 8.76266 3.34549C8.76911 3.35511 8.77557 3.36448 8.78152 3.37461C8.78861 3.38638 8.79532 3.39904 8.8019 3.41157C8.80747 3.42208 8.81316 3.4322 8.81861 3.44322C8.82507 3.45651 8.83076 3.47069 8.83671 3.48474C8.84178 3.49639 8.8471 3.5074 8.85165 3.51968C8.86165 3.54614 8.87127 3.57373 8.87975 3.60285H9.0085L8.98002 2.85481H8.86216L8.90368 2.91203L8.8619 2.85481C8.84583 2.90253 8.82532 2.93519 8.80367 2.95608L8.80304 2.95659C8.79215 2.96672 8.78114 2.97406 8.77013 2.97887L8.76974 2.979C8.75848 2.98381 8.74759 2.98596 8.73696 2.98596C8.72645 2.98596 8.71379 2.98368 8.69948 2.97975L8.69898 2.97963C8.66948 2.9714 8.63201 2.95608 8.58656 2.93861C8.57934 2.9357 8.57226 2.9333 8.56453 2.93051C8.54428 2.92279 8.52301 2.91519 8.49959 2.90734C8.49365 2.90532 8.48883 2.9033 8.48251 2.90127C8.47238 2.89798 8.46111 2.89481 8.45022 2.89165C8.44275 2.88949 8.43579 2.88722 8.42807 2.88532L8.41794 2.88215C8.40262 2.8781 8.38756 2.87431 8.37135 2.8705C8.36224 2.86848 8.35262 2.86658 8.34325 2.86481L8.33299 2.86278L8.32793 2.86164C8.31578 2.85924 8.30261 2.85696 8.28995 2.85481C8.27843 2.85304 8.26654 2.85152 8.254 2.85C8.24641 2.84899 8.23856 2.84822 8.23071 2.84734L8.22514 2.84683L8.22045 2.8462C8.20931 2.84506 8.19779 2.84418 8.18602 2.84316C8.17513 2.84265 8.16336 2.8419 8.15209 2.84152C8.14146 2.84126 8.13095 2.84076 8.12057 2.84063H8.09095C8.08146 2.84076 8.07335 2.84101 8.06411 2.84126C8.05563 2.8419 8.04677 2.84215 8.03803 2.84265V2.84329V2.84279L8.02588 2.84379L8.0217 2.84405L8.01373 2.84468C8.00563 2.84544 7.99752 2.84646 7.98955 2.84709C7.98157 2.84822 7.9741 2.84924 7.96625 2.85025C7.95954 2.85126 7.95233 2.8524 7.94549 2.85342H7.94511L7.94359 2.8538V2.85392V2.8538C7.93638 2.85481 7.92878 2.85646 7.92144 2.8576C7.91397 2.85911 7.90688 2.8605 7.89967 2.86203C7.89258 2.86354 7.88574 2.86544 7.87827 2.86721L7.87257 2.86861L7.86511 2.8705L7.85739 2.87253C7.85029 2.87431 7.84308 2.8762 7.83612 2.87835C7.82953 2.88025 7.82232 2.88228 7.81561 2.88468C7.80877 2.88671 7.80231 2.88899 7.79586 2.89114L7.79548 2.89127C7.78852 2.89367 7.78206 2.89608 7.77548 2.89848C7.76877 2.90102 7.7618 2.90355 7.75547 2.90634C7.7494 2.90899 7.74244 2.91152 7.73598 2.91444L7.72648 2.91861L7.72459 2.9195L7.71724 2.92279C7.71079 2.92558 7.70496 2.92849 7.69863 2.93178C7.69231 2.93469 7.68623 2.93786 7.68003 2.9409C7.67382 2.94431 7.66749 2.94773 7.66154 2.95102L7.65964 2.95216L7.6585 2.95279L7.64319 2.96153C7.63736 2.9652 7.63091 2.96887 7.62547 2.97254C7.61901 2.97646 7.61344 2.98027 7.60762 2.98406L7.59723 2.99115L7.59673 2.99153L7.59014 2.99596C7.58432 3.00027 7.57837 3.00457 7.57255 3.00888C7.56672 3.01318 7.56115 3.01736 7.55571 3.02191L7.55621 3.02255V3.02267L7.55571 3.02216L7.54077 3.03444L7.53836 3.03634C7.53279 3.04103 7.52773 3.04584 7.52191 3.0504L7.50596 3.06584L7.49001 3.08192L7.48988 3.08167C7.48419 3.08749 7.47912 3.09306 7.47381 3.09888C7.46887 3.10445 7.4633 3.1104 7.45849 3.11623C7.45292 3.12256 7.44798 3.12901 7.44292 3.13547L7.44013 3.13901L7.43925 3.14028L7.42797 3.15497C7.42279 3.16193 7.4176 3.16914 7.41304 3.17611C7.40861 3.18357 7.40342 3.19066 7.39873 3.19826C7.3938 3.20611 7.38949 3.21396 7.38481 3.22206C7.37987 3.23029 7.37544 3.23877 7.37164 3.24725L7.36582 3.25915L7.36316 3.26485L7.3586 3.27422C7.35456 3.28383 7.35038 3.29333 7.34632 3.30321C7.34202 3.31384 7.33822 3.32422 7.33481 3.33485L7.33493 3.33498C7.33114 3.34599 7.32784 3.35751 7.32442 3.36865C7.32114 3.38144 7.31809 3.39397 7.31506 3.40689C7.31189 3.42068 7.30949 3.43474 7.30733 3.44879C7.30607 3.45689 7.30543 3.46524 7.30455 3.47347L7.30315 3.4855L7.30215 3.4955H7.30265H7.30215C7.29999 3.51512 7.29923 3.535 7.29923 3.55513V3.56057C7.29923 3.57652 7.29974 3.59247 7.3005 3.60817C7.30113 3.61627 7.30215 3.62374 7.30303 3.63171C7.30354 3.63754 7.30392 3.64336 7.30468 3.64906L7.30569 3.65754C7.30771 3.67678 7.31139 3.6954 7.31557 3.71337L7.31594 3.71603V3.71653L7.31961 3.72818C7.32468 3.74818 7.33012 3.7678 7.33683 3.78641L7.33771 3.78869L7.34012 3.7935C7.3524 3.82528 7.36746 3.85465 7.38455 3.88237L7.38861 3.89048L7.38912 3.89022L7.38924 3.89035L7.38912 3.89048L7.39076 3.89262C7.40342 3.91225 7.41709 3.93111 7.43203 3.94883L7.43342 3.95073C7.44912 3.96921 7.46595 3.98681 7.48393 4.00352L7.49052 4.00922C7.50571 4.02301 7.5214 4.03618 7.53799 4.04897C7.54444 4.05378 7.55115 4.05834 7.55786 4.06314C7.57078 4.07239 7.58369 4.0815 7.59749 4.09024C7.60534 4.0953 7.61356 4.10011 7.62179 4.10505C7.63483 4.1129 7.64812 4.1205 7.66154 4.12784C7.67028 4.13265 7.67889 4.13721 7.68774 4.14176C7.7018 4.14898 7.7161 4.15594 7.73054 4.16278C7.73915 4.1667 7.7475 4.17075 7.75623 4.17468C7.77257 4.18202 7.7894 4.18911 7.80624 4.1962C7.81308 4.19898 7.81966 4.20189 7.82649 4.20455C7.9598 4.2581 8.1031 4.30064 8.23729 4.34647C8.24716 4.34988 8.25691 4.3533 8.26654 4.35659C8.28692 4.36381 8.30692 4.37103 8.32667 4.37837C8.34616 4.38558 8.36541 4.39292 8.38414 4.40052C8.3949 4.40495 8.40554 4.40951 8.41604 4.41419C8.43212 4.4209 8.44781 4.42799 8.46313 4.43533C8.47238 4.43964 8.48162 4.44394 8.49035 4.44837C8.51276 4.45964 8.53415 4.47129 8.55453 4.48369C8.56074 4.48749 8.56669 4.49167 8.57264 4.4956C8.58808 4.50547 8.60277 4.51585 8.61669 4.52661C8.62328 4.53142 8.62961 4.53648 8.63568 4.54167C8.65315 4.55623 8.66961 4.57143 8.68417 4.58763L8.69037 4.5951C8.70379 4.61054 8.71544 4.62699 8.72607 4.64421C8.73063 4.65143 8.7348 4.65877 8.73886 4.66637C8.74329 4.67472 8.74734 4.68333 8.75114 4.69219C8.75582 4.7027 8.76025 4.71346 8.76367 4.7246L8.76835 4.74081C8.77759 4.77461 8.78304 4.81107 8.78304 4.85107C8.78304 4.88943 8.77873 4.92538 8.77076 4.95918L8.77 4.96247C8.74518 5.06438 8.68632 5.14502 8.60644 5.20389L8.6058 5.20414C8.59264 5.21376 8.57909 5.22287 8.56479 5.23123L8.56365 5.23211C8.55036 5.23984 8.53643 5.24731 8.52225 5.25402L8.51744 5.25655C8.48706 5.27098 8.45528 5.28301 8.42186 5.29275L8.42022 5.29313C8.40414 5.29782 8.38781 5.30174 8.37123 5.30541L8.36553 5.30655C8.34958 5.30984 8.33325 5.31263 8.31679 5.31491L8.31122 5.31567C8.27615 5.32035 8.24033 5.32276 8.20412 5.32276C8.16159 5.32276 8.1188 5.31947 8.07639 5.31288L8.07462 5.31263C8.03272 5.30617 7.99107 5.29655 7.95018 5.28377L7.94587 5.2825C7.9046 5.26934 7.86409 5.25313 7.82447 5.23351L7.82422 5.23338C7.78788 5.21553 7.75294 5.19388 7.71864 5.17034C7.7118 5.16565 7.70484 5.16071 7.698 5.15578C7.66496 5.1316 7.63268 5.10527 7.60217 5.07577L7.5966 5.07033C7.56343 5.03754 7.53191 5.00172 7.50266 4.96234L7.50204 4.96171C7.47216 4.92146 7.44456 4.87765 7.41962 4.83043L7.41924 4.83006C7.3943 4.78258 7.37202 4.73169 7.35278 4.67726H7.23821L7.28138 5.48581H7.40316C7.40583 5.4767 7.40924 5.46619 7.41266 5.45543C7.41468 5.44986 7.41633 5.44429 7.41848 5.43847L7.41911 5.43694C7.43456 5.39416 7.45899 5.34858 7.50659 5.3344L7.50798 5.33402C7.51735 5.33136 7.52761 5.32972 7.53887 5.32972C7.54875 5.32972 7.56153 5.3325 7.57546 5.3363C7.58217 5.33807 7.59014 5.34061 7.59799 5.34314C7.60774 5.34643 7.61762 5.3496 7.62888 5.35377C7.6423 5.35884 7.65585 5.3639 7.67117 5.3701C7.68382 5.37504 7.69585 5.3796 7.71016 5.38517C7.72902 5.39251 7.74851 5.39985 7.7694 5.40757C7.78016 5.41137 7.79029 5.41517 7.80143 5.41897C7.81105 5.42226 7.81978 5.4258 7.82979 5.42922C7.83954 5.43239 7.8508 5.43555 7.86118 5.43872C7.87257 5.44226 7.88371 5.44581 7.89549 5.44922C7.9165 5.45518 7.93828 5.46062 7.96056 5.46593C7.97334 5.46897 7.98575 5.47214 7.99892 5.47492C8.02297 5.47999 8.04803 5.48366 8.07348 5.48733C8.08589 5.4891 8.09766 5.49151 8.11019 5.4929C8.14855 5.49708 8.18792 5.49986 8.22894 5.49986H8.24096C8.26691 5.49961 8.29211 5.49796 8.3173 5.49632C8.32363 5.49594 8.33046 5.49594 8.33679 5.49531C8.36882 5.49277 8.39984 5.48872 8.4301 5.48378L8.43642 5.48303L8.43934 5.48264V5.48252L8.44642 5.48087C8.48427 5.47416 8.52061 5.46517 8.5558 5.45504C8.56163 5.4534 8.56834 5.45264 8.57403 5.45087C8.58315 5.44783 8.59201 5.44416 8.601 5.44112C8.6129 5.43707 8.62454 5.4329 8.63619 5.42847C8.64328 5.4258 8.65087 5.42352 8.65796 5.42062C8.66847 5.41644 8.6786 5.41125 8.68885 5.40656C8.69556 5.40365 8.70227 5.40087 8.70847 5.3977C8.71443 5.39491 8.72025 5.39263 8.72594 5.38973C8.74025 5.38238 8.75379 5.37441 8.76734 5.36656L8.78164 5.35846L8.78798 5.35478C8.80608 5.3439 8.82304 5.3325 8.83988 5.32048L8.8395 5.3201L8.83988 5.32035L8.84507 5.31643L8.85393 5.30972C8.8638 5.30225 8.87381 5.29478 8.8833 5.28706C8.89052 5.28073 8.8976 5.2744 8.90469 5.26807L8.91394 5.25996L8.92065 5.25402C8.93191 5.24364 8.94242 5.23287 8.95293 5.22199L8.96141 5.21249L8.97229 5.20021L8.98027 5.19135C8.98888 5.1816 8.99685 5.17135 9.0047 5.16135L9.01242 5.15084L9.0185 5.14274L9.02622 5.13223C9.03255 5.12286 9.03876 5.11337 9.04471 5.104C9.04825 5.09843 9.05167 5.09273 9.05496 5.08691L9.05939 5.07944L9.06142 5.07615C9.06648 5.06755 9.07104 5.05868 9.07597 5.04982C9.08028 5.04096 9.08433 5.03248 9.08876 5.02349L9.0918 5.01665L9.09294 5.01387L9.10003 4.99842C9.10332 4.99019 9.10636 4.98184 9.10965 4.97387L9.10877 4.97348V4.97336L9.10965 4.97361C9.11243 4.96576 9.11547 4.95753 9.118 4.94943L9.12079 4.94108L9.12573 4.92639C9.12775 4.91842 9.13003 4.91069 9.13244 4.90297C9.13408 4.8955 9.13586 4.88841 9.13776 4.88094L9.13927 4.87309L9.13952 4.87208L9.14206 4.85892C9.14345 4.8517 9.14484 4.84436 9.14611 4.83727C9.14712 4.83043 9.14839 4.82335 9.14876 4.81676L9.15054 4.80233L9.1513 4.79714L9.15143 4.79575C9.15193 4.78879 9.15282 4.78169 9.15333 4.77486L9.15256 4.77473H9.15333C9.15408 4.7679 9.15421 4.76106 9.15459 4.75372C9.15484 4.74676 9.15484 4.73967 9.15484 4.73257H9.15522V4.71257H9.15459V4.71257Z" fill="white"/>
<path d="M6.9561 4.91876L6.95357 4.92408C6.93648 4.95813 6.9185 4.9894 6.89964 5.01738L6.89862 5.01889C6.87951 5.04712 6.85938 5.07219 6.83811 5.09472L6.83609 5.09675C6.79279 5.14169 6.74494 5.17536 6.6905 5.19967L6.68949 5.20005C6.66227 5.21207 6.63354 5.22182 6.60303 5.22942L6.60176 5.22967C6.57125 5.23727 6.53897 5.24271 6.50467 5.24626L6.50378 5.24638C6.46922 5.2498 6.43263 5.25158 6.39402 5.25158H5.88587C5.8046 5.25158 5.74371 5.24309 5.69927 5.21955L5.69839 5.21892C5.66889 5.20321 5.64674 5.18068 5.63079 5.14929L5.63028 5.1484C5.61458 5.11738 5.60496 5.07776 5.60028 5.02776L5.59952 5.01852C5.59737 4.99446 5.59623 4.96864 5.59623 4.93965V4.1949H6.07551V4.19515C6.09666 4.19515 6.1164 4.19591 6.13514 4.19755L6.14147 4.19832C6.15653 4.19983 6.17058 4.20236 6.18388 4.20553L6.1978 4.20946C6.20831 4.21262 6.21819 4.21667 6.22742 4.22135L6.2416 4.2287C6.24857 4.233 6.25464 4.23857 6.26097 4.24376C6.26793 4.24971 6.27503 4.25566 6.28135 4.263C6.28756 4.27022 6.29338 4.27895 6.2992 4.28794C6.30313 4.29427 6.30731 4.30035 6.3111 4.30782C6.31933 4.32389 6.32718 4.34124 6.33389 4.36225L6.33427 4.36377C6.34187 4.38732 6.34845 4.41415 6.35402 4.44467V4.44517C6.35984 4.47606 6.36478 4.51062 6.3687 4.54961L6.36896 4.54936H6.49023V3.67054L6.49049 3.67029H6.3687C6.36402 3.70751 6.35832 3.74055 6.35199 3.7703L6.35073 3.77587C6.3444 3.80423 6.33756 3.82955 6.32971 3.8517L6.3287 3.85423C6.3206 3.87702 6.31136 3.89677 6.30148 3.91373L6.3011 3.91449C6.27047 3.96589 6.23084 3.9926 6.18046 4.00589L6.1778 4.00653C6.16147 4.01057 6.144 4.01349 6.12539 4.01513L6.12096 4.01551C6.10222 4.01703 6.08247 4.01779 6.06121 4.01779H5.59623V3.07454H6.4044C6.4382 3.07454 6.46934 3.07606 6.49821 3.0791C6.52011 3.08138 6.5396 3.08568 6.55897 3.08998C6.56493 3.09138 6.57201 3.09201 6.57746 3.09353C6.59454 3.09809 6.60936 3.1048 6.62442 3.11125C6.63088 3.11404 6.63848 3.11581 6.64442 3.11897C6.6562 3.12505 6.66607 3.13328 6.67658 3.14075C6.68443 3.14632 6.69316 3.15063 6.70038 3.15708C6.72025 3.1743 6.7376 3.19607 6.7538 3.22C6.76177 3.23215 6.76937 3.24557 6.77672 3.25962C6.78064 3.26747 6.78519 3.27456 6.789 3.28291C6.79684 3.30013 6.80406 3.3195 6.81115 3.33912C6.81432 3.34786 6.81773 3.35545 6.82064 3.3647C6.83027 3.39406 6.83925 3.42597 6.84774 3.46103H6.96927V2.91161H4.06583V3.03188C4.09204 3.03428 4.11583 3.03745 4.1385 3.04087C4.14495 3.04188 4.15116 3.04302 4.15736 3.04403C4.17736 3.04758 4.19635 3.05125 4.21332 3.05568L4.22078 3.05783C4.2361 3.06213 4.25003 3.06669 4.26294 3.07163L4.27788 3.07796C4.28775 3.08239 4.29687 3.08708 4.30522 3.09214L4.317 3.0991C4.32598 3.10518 4.33383 3.11176 4.34105 3.11885L4.34649 3.12366L4.34991 3.12835C4.35738 3.13733 4.36409 3.14657 4.36902 3.1567C4.3732 3.16544 4.37649 3.17468 4.37902 3.1843L4.3808 3.19303C4.38295 3.20392 4.38447 3.21519 4.38447 3.22708C4.38447 3.23936 4.3832 3.25278 4.38156 3.26633L4.38029 3.27671C4.37827 3.29001 4.37573 3.30368 4.37245 3.31747L4.37003 3.32684C4.36662 3.34026 4.36282 3.35355 4.35827 3.36685H4.35814L4.35434 3.37773C4.34915 3.39166 4.34371 3.40558 4.33763 3.41862L3.67251 4.93965L3.02511 3.40786C2.99308 3.33342 2.97168 3.26607 2.97168 3.21645C2.97168 3.09568 3.05751 3.03897 3.28639 3.03187V2.91161H2.23174V3.03187C2.2525 3.03441 2.27136 3.03782 2.28934 3.042C2.29567 3.04339 2.30124 3.04529 2.30706 3.04694C2.31859 3.04998 2.32998 3.05314 2.34048 3.05707C2.34656 3.05935 2.35213 3.06213 2.35795 3.06466C2.3672 3.06871 2.37644 3.07302 2.38517 3.07783C2.39087 3.08099 2.39606 3.08454 2.4015 3.08809C2.40935 3.09327 2.41695 3.09884 2.42429 3.10466L2.43961 3.11796C2.44644 3.12429 2.4529 3.13112 2.45936 3.13822C2.46404 3.14353 2.46885 3.14885 2.47354 3.15454C2.47961 3.16227 2.48543 3.1705 2.49113 3.1791C2.49543 3.18543 2.49999 3.19151 2.50417 3.19847C2.51012 3.20809 2.51595 3.21873 2.52164 3.22923C2.52531 3.23607 2.52924 3.24253 2.53291 3.24987C2.54215 3.26823 2.55126 3.2876 2.56051 3.30886L3.5011 5.42892H3.6544L4.62006 3.30886C4.64272 3.25785 4.66411 3.21607 4.68576 3.18164L4.68639 3.18063L4.68829 3.17784C4.6983 3.16227 4.7083 3.14809 4.71855 3.13556L4.72095 3.13239C4.73197 3.11948 4.74298 3.10796 4.7545 3.09795L4.75514 3.0972C4.76678 3.08745 4.77868 3.0791 4.79109 3.07175L4.79463 3.06973C4.80704 3.06289 4.82008 3.05694 4.83401 3.05213L4.83489 3.05175C4.84869 3.04707 4.8635 3.04352 4.8792 3.04048C4.89679 3.03719 4.91528 3.03491 4.93528 3.0334C4.96401 3.03504 4.98984 3.03846 5.01364 3.04314C5.02098 3.04454 5.02706 3.04656 5.0339 3.04821C5.04959 3.05213 5.06466 3.05656 5.0782 3.06175C5.08504 3.06453 5.09137 3.06745 5.09757 3.07049C5.1091 3.07606 5.1196 3.08226 5.12922 3.08897C5.13492 3.09302 5.14049 3.09695 5.14555 3.10125C5.15366 3.10834 5.16074 3.11619 5.16733 3.12416C5.17188 3.12961 5.17694 3.13479 5.18062 3.14075L5.18707 3.15265C5.19189 3.16113 5.19632 3.17011 5.19973 3.17961L5.20391 3.19138C5.20796 3.20455 5.21164 3.21835 5.21378 3.23304V3.23316C5.21607 3.25025 5.21721 3.2681 5.21721 3.28709V5.05319C5.21721 5.07281 5.21581 5.09155 5.21315 5.10915L5.21277 5.11244C5.20707 5.14764 5.19593 5.17852 5.17783 5.2046L5.17694 5.20599C5.13023 5.27258 5.03984 5.30828 4.88831 5.30828V5.42892H7.01572L7.13028 4.80482H7.00546C6.98976 4.84634 6.97331 4.88406 6.95609 4.91875" fill="white"/>
<path d="M1.10791 5.35471C0.855229 5.34674 0.814337 5.2328 0.814847 5.13014C0.814337 5.23268 0.855229 5.34674 1.10791 5.35471V5.35471ZM1.14791 4.39981L1.59479 3.38567L2.03116 4.39981H1.14791V4.39981ZM2.73553 5.03431L1.76683 2.9036H1.61631L0.64711 4.98847C0.554066 5.18684 0.511273 5.25761 0.286951 5.30027V5.3009L0.343665 5.34762L0.286064 5.30027V5.42091H1.16551V5.30027C0.897514 5.28596 0.872319 5.20456 0.872319 5.13013C0.872319 5.06632 0.879663 5.00252 0.908271 4.93872L1.05474 4.59109H2.10838L2.25815 4.92796C2.28118 4.9672 2.31372 5.04164 2.31372 5.11608C2.31372 5.22938 2.25295 5.30027 2.01673 5.30027V5.42091H3.11088V5.30027C2.89276 5.28596 2.80705 5.19039 2.73553 5.0343" fill="white"/>
<path fill-rule="evenodd" clip-rule="evenodd" d="M15.1105 0.444026C16.0612 0.974581 16.6676 1.63983 16.6144 2.62259C17.4006 2.36535 18.1082 2.45662 18.7133 2.8083C18.0918 1.24512 16.8904 0.441622 15.1105 0.444029V0.444026Z" fill="#FFCB08"/>
<path fill-rule="evenodd" clip-rule="evenodd" d="M15.2169 1.08369L15.998 1.26016C16.4676 1.76223 16.5512 2.2581 16.5094 2.74549C17.1234 2.58535 17.5449 2.56257 17.8627 2.61485L18.2729 3.28934C17.5741 3.01767 16.8221 3.02299 16.0461 3.2758C16.1828 2.32508 15.9942 1.525 15.2169 1.08369L15.2169 1.08369Z" fill="#FFCB08"/>
</svg>
