<svg width="26" height="26" viewBox="0 0 26 26" fill="none" xmlns="http://www.w3.org/2000/svg">
<g clip-path="url(#clip0)">
<path d="M17.1611 18.2214L18.35 16.2921L20.4956 15.5604L20.7333 13.3069L22.3476 11.7177L21.5801 9.58455L22.3476 7.45139L20.7334 5.86219L20.4957 3.60872L18.3501 2.87696L17.1611 0.947629L14.9123 1.21916L13.0019 0L11.0916 1.21926L8.84279 0.94773L7.65385 2.87701L5.50824 3.60877L5.27054 5.86224L3.65625 7.45144L4.42376 9.58461L3.65625 11.7178L5.27048 13.3069L5.50819 15.5604L7.6538 16.2922L8.84274 18.2215L11.0916 17.95L13.0019 19.1692L14.9123 17.95L17.1611 18.2214ZM6.42936 9.58461C6.42936 5.9605 9.37782 3.01204 13.0019 3.01204C16.626 3.01204 19.5745 5.9605 19.5745 9.58461C19.5745 13.2087 16.626 16.1572 13.0019 16.1572C9.37782 16.1572 6.42936 13.2087 6.42936 9.58461Z" fill="white"/>
<path d="M13.0013 4.53638C10.2177 4.53638 7.95312 6.80097 7.95312 9.58454C7.95312 12.3681 10.2177 14.6327 13.0013 14.6327C15.7849 14.6327 18.0495 12.3681 18.0495 9.58454C18.0495 6.80097 15.7849 4.53638 13.0013 4.53638Z" fill="white"/>
<path d="M10.7314 19.5288L8.05627 19.8517L6.64287 17.5581L6.16238 17.3943L4.08984 23.8723L7.821 23.667L10.7402 25.9999L12.458 20.6307L10.7314 19.5288Z" fill="white"/>
<path d="M19.3581 17.5582L17.9446 19.8517L15.2695 19.5288L13.543 20.6307L15.2608 25.9999L18.18 23.667L21.9111 23.8723L19.8386 17.3943L19.3581 17.5582Z" fill="white"/>
</g>
<defs>
<clipPath id="clip0">
<rect width="26" height="26" fill="white"/>
</clipPath>
</defs>
</svg>
