<svg width="53" height="54" viewBox="0 0 53 54" fill="none" xmlns="http://www.w3.org/2000/svg">
<g clip-path="url(#clip0)">
<mask id="path-1-inside-1" fill="white">
<path d="M1.19332 53.3323H51.6408C52.2071 53.3323 52.6661 52.8731 52.6661 52.3069V45.5396C52.6661 43.632 51.3571 42.0244 49.5901 41.568V35.7988C49.5901 35.2326 49.131 34.7734 48.5647 34.7734C47.9984 34.7734 47.5394 35.2326 47.5394 35.7988V41.568C45.7724 42.0244 44.4633 43.632 44.4633 45.5396V51.2815H36.5836L33.7082 18.8754L42.3859 16.6255L43.7149 21.5851C43.8624 22.1356 44.4289 22.4568 44.973 22.3094L47.5395 21.6155V26.5704C47.5395 27.1366 47.9985 27.5958 48.5648 27.5958C49.1311 27.5958 49.5902 27.1366 49.5902 26.5704V21.0601L50.8595 20.7172C51.1715 20.6329 51.4254 20.4064 51.5448 20.106C51.6277 19.8977 53.5563 14.9442 52.1658 9.75181C50.776 4.56762 46.6908 1.20425 46.5175 1.06357C46.2605 0.855018 45.9187 0.78314 45.5996 0.870911L39.6566 2.50328C39.113 2.65257 38.7919 3.21282 38.9378 3.75728L40.2627 8.70175L3.20794 18.3094C1.41808 18.7897 0.167969 20.4189 0.167969 22.2713C0.167969 24.9789 2.73792 26.927 5.32253 26.2352L6.3201 25.9765V32.2099H4.26939C3.88098 32.2099 3.52601 32.4294 3.35231 32.7768L0.276246 38.9289C0.204984 39.0712 0.167969 39.2283 0.167969 39.3874V52.3069C0.167969 52.8732 0.62702 53.3323 1.19332 53.3323ZM15.5483 40.4128V51.2815H8.37081V40.4128H15.5483ZM34.2889 48.6214L26.7236 37.9519H33.3423L34.2889 48.6214ZM33.0008 34.1026L27.9482 28.7237H32.5235L33.0008 34.1026ZM31.8768 35.9012H25.8241L26.3458 30.0131L31.8768 35.9012ZM25.4833 39.7481L33.6613 51.2815H24.4613L25.4833 39.7481ZM46.514 45.5396C46.514 44.4088 47.4339 43.4888 48.5647 43.4888C49.6955 43.4888 50.6154 44.4088 50.6154 45.5396V51.2815H46.514V45.5396ZM32.3417 26.673H26.6418L27.1828 20.5673L31.6961 19.397L32.3417 26.673ZM45.6075 2.99534C46.5912 3.91006 49.1993 6.60603 50.1849 10.2824C51.1673 13.9508 50.2068 17.6079 49.8009 18.879C43.9424 20.4641 45.8048 19.9602 45.4298 20.0617L41.1823 4.2107L45.6075 2.99534ZM4.7998 24.2522C3.49771 24.6006 2.21868 23.6203 2.21868 22.2713C2.21868 21.3451 2.84404 20.5303 3.73108 20.2923L40.7934 10.6825L41.8551 14.6446C33.5722 16.7922 12.4749 22.2623 4.7998 24.2522ZM8.37081 25.4449L25.0757 21.1137C25.0718 21.1578 22.4034 51.2713 22.4025 51.2815H17.599V39.3874C17.599 38.8212 17.1399 38.3621 16.5736 38.3621H14.5229V33.2353C14.5229 32.6691 14.0639 32.2099 13.4976 32.2099H8.37081V25.4449ZM2.21868 39.6295L4.90306 34.2608H12.4722V38.3622H7.34545C6.77915 38.3622 6.3201 38.8213 6.3201 39.3875V51.2816H2.21868V39.6295Z"/>
</mask>
<path d="M1.19332 53.3323H51.6408C52.2071 53.3323 52.6661 52.8731 52.6661 52.3069V45.5396C52.6661 43.632 51.3571 42.0244 49.5901 41.568V35.7988C49.5901 35.2326 49.131 34.7734 48.5647 34.7734C47.9984 34.7734 47.5394 35.2326 47.5394 35.7988V41.568C45.7724 42.0244 44.4633 43.632 44.4633 45.5396V51.2815H36.5836L33.7082 18.8754L42.3859 16.6255L43.7149 21.5851C43.8624 22.1356 44.4289 22.4568 44.973 22.3094L47.5395 21.6155V26.5704C47.5395 27.1366 47.9985 27.5958 48.5648 27.5958C49.1311 27.5958 49.5902 27.1366 49.5902 26.5704V21.0601L50.8595 20.7172C51.1715 20.6329 51.4254 20.4064 51.5448 20.106C51.6277 19.8977 53.5563 14.9442 52.1658 9.75181C50.776 4.56762 46.6908 1.20425 46.5175 1.06357C46.2605 0.855018 45.9187 0.78314 45.5996 0.870911L39.6566 2.50328C39.113 2.65257 38.7919 3.21282 38.9378 3.75728L40.2627 8.70175L3.20794 18.3094C1.41808 18.7897 0.167969 20.4189 0.167969 22.2713C0.167969 24.9789 2.73792 26.927 5.32253 26.2352L6.3201 25.9765V32.2099H4.26939C3.88098 32.2099 3.52601 32.4294 3.35231 32.7768L0.276246 38.9289C0.204984 39.0712 0.167969 39.2283 0.167969 39.3874V52.3069C0.167969 52.8732 0.62702 53.3323 1.19332 53.3323ZM15.5483 40.4128V51.2815H8.37081V40.4128H15.5483ZM34.2889 48.6214L26.7236 37.9519H33.3423L34.2889 48.6214ZM33.0008 34.1026L27.9482 28.7237H32.5235L33.0008 34.1026ZM31.8768 35.9012H25.8241L26.3458 30.0131L31.8768 35.9012ZM25.4833 39.7481L33.6613 51.2815H24.4613L25.4833 39.7481ZM46.514 45.5396C46.514 44.4088 47.4339 43.4888 48.5647 43.4888C49.6955 43.4888 50.6154 44.4088 50.6154 45.5396V51.2815H46.514V45.5396ZM32.3417 26.673H26.6418L27.1828 20.5673L31.6961 19.397L32.3417 26.673ZM45.6075 2.99534C46.5912 3.91006 49.1993 6.60603 50.1849 10.2824C51.1673 13.9508 50.2068 17.6079 49.8009 18.879C43.9424 20.4641 45.8048 19.9602 45.4298 20.0617L41.1823 4.2107L45.6075 2.99534ZM4.7998 24.2522C3.49771 24.6006 2.21868 23.6203 2.21868 22.2713C2.21868 21.3451 2.84404 20.5303 3.73108 20.2923L40.7934 10.6825L41.8551 14.6446C33.5722 16.7922 12.4749 22.2623 4.7998 24.2522ZM8.37081 25.4449L25.0757 21.1137C25.0718 21.1578 22.4034 51.2713 22.4025 51.2815H17.599V39.3874C17.599 38.8212 17.1399 38.3621 16.5736 38.3621H14.5229V33.2353C14.5229 32.6691 14.0639 32.2099 13.4976 32.2099H8.37081V25.4449ZM2.21868 39.6295L4.90306 34.2608H12.4722V38.3622H7.34545C6.77915 38.3622 6.3201 38.8213 6.3201 39.3875V51.2816H2.21868V39.6295Z" fill="#3480A3"/>
<path d="M49.5901 41.568H49.4901V41.6454L49.5651 41.6648L49.5901 41.568ZM47.5394 41.568L47.5644 41.6648L47.6394 41.6454V41.568H47.5394ZM44.4633 51.2815V51.3815H44.5633V51.2815H44.4633ZM36.5836 51.2815L36.484 51.2904L36.4921 51.3815H36.5836V51.2815ZM33.7082 18.8754L33.6831 18.7786L33.6012 18.7999L33.6086 18.8843L33.7082 18.8754ZM42.3859 16.6255L42.4825 16.5996L42.4568 16.5038L42.3608 16.5287L42.3859 16.6255ZM43.7149 21.5851L43.6183 21.611V21.611L43.7149 21.5851ZM44.973 22.3094L44.9469 22.2129L44.9469 22.2129L44.973 22.3094ZM47.5395 21.6155H47.6395V21.4848L47.5134 21.5189L47.5395 21.6155ZM49.5902 21.0601L49.5641 20.9636L49.4902 20.9836V21.0601H49.5902ZM50.8595 20.7172L50.8334 20.6206L50.8334 20.6206L50.8595 20.7172ZM51.5448 20.106L51.4519 20.0691L51.4519 20.0691L51.5448 20.106ZM52.1658 9.75181L52.2624 9.72595L52.2623 9.72592L52.1658 9.75181ZM46.5175 1.06357L46.5805 0.985938L46.5805 0.985931L46.5175 1.06357ZM45.5996 0.870911L45.6261 0.967339L45.6261 0.96733L45.5996 0.870911ZM39.6566 2.50328L39.6831 2.59971L39.6831 2.5997L39.6566 2.50328ZM38.9378 3.75728L39.0344 3.7314L39.0343 3.7314L38.9378 3.75728ZM40.2627 8.70175L40.2878 8.79855L40.3854 8.77324L40.3593 8.67586L40.2627 8.70175ZM3.20794 18.3094L3.18284 18.2126L3.18202 18.2128L3.20794 18.3094ZM5.32253 26.2352L5.29743 26.1384L5.29667 26.1386L5.32253 26.2352ZM6.3201 25.9765H6.4201V25.8473L6.29499 25.8797L6.3201 25.9765ZM6.3201 32.2099V32.3099H6.4201V32.2099H6.3201ZM3.35231 32.7768L3.26287 32.732L3.35231 32.7768ZM0.276246 38.9289L0.365663 38.9737L0.365689 38.9736L0.276246 38.9289ZM15.5483 40.4128H15.6483V40.3128H15.5483V40.4128ZM15.5483 51.2815V51.3815H15.6483V51.2815H15.5483ZM8.37081 51.2815H8.27081V51.3815H8.37081V51.2815ZM8.37081 40.4128V40.3128H8.27081V40.4128H8.37081ZM34.2889 48.6214L34.2073 48.6792L34.4212 48.9808L34.3885 48.6125L34.2889 48.6214ZM26.7236 37.9519V37.8519H26.5301L26.6421 38.0098L26.7236 37.9519ZM33.3423 37.9519L33.4419 37.9431L33.4338 37.8519H33.3423V37.9519ZM33.0008 34.1026L32.9279 34.1711L33.1259 34.382L33.1004 34.0938L33.0008 34.1026ZM27.9482 28.7237V28.6237H27.7171L27.8753 28.7922L27.9482 28.7237ZM32.5235 28.7237L32.6232 28.7149L32.6151 28.6237H32.5235V28.7237ZM31.8768 35.9012V36.0012H32.1079L31.9496 35.8328L31.8768 35.9012ZM25.8241 35.9012L25.7245 35.8924L25.7148 36.0012H25.8241V35.9012ZM26.3458 30.0131L26.4187 29.9447L26.2659 29.782L26.2462 30.0043L26.3458 30.0131ZM25.4833 39.7481L25.5648 39.6902L25.4076 39.4685L25.3836 39.7392L25.4833 39.7481ZM33.6613 51.2815V51.3815H33.8548L33.7429 51.2237L33.6613 51.2815ZM24.4613 51.2815L24.3617 51.2727L24.352 51.3815H24.4613V51.2815ZM50.6154 51.2815V51.3815H50.7154V51.2815H50.6154ZM46.514 51.2815H46.414V51.3815H46.514V51.2815ZM32.3417 26.673V26.773H32.4509L32.4413 26.6642L32.3417 26.673ZM26.6418 26.673L26.5422 26.6642L26.5326 26.773H26.6418V26.673ZM27.1828 20.5673L27.1577 20.4705L27.0894 20.4882L27.0832 20.5584L27.1828 20.5673ZM31.6961 19.397L31.7957 19.3882L31.7853 19.2706L31.671 19.3002L31.6961 19.397ZM45.6075 2.99534L45.6756 2.92211L45.6348 2.88415L45.581 2.89891L45.6075 2.99534ZM50.1849 10.2824L50.2815 10.2566L50.2815 10.2565L50.1849 10.2824ZM49.8009 18.879L49.827 18.9755L49.8796 18.9613L49.8961 18.9094L49.8009 18.879ZM45.4298 20.0617L45.3332 20.0875L45.3591 20.1843L45.4559 20.1582L45.4298 20.0617ZM41.1823 4.2107L41.1558 4.11427L41.0599 4.14059L41.0857 4.23658L41.1823 4.2107ZM3.73108 20.2923L3.70598 20.1955L3.70515 20.1957L3.73108 20.2923ZM40.7934 10.6825L40.89 10.6566L40.8644 10.5608L40.7683 10.5857L40.7934 10.6825ZM41.8551 14.6446L41.8802 14.7414L41.9778 14.7161L41.9517 14.6187L41.8551 14.6446ZM8.37081 25.4449L8.34571 25.3481L8.27081 25.3675V25.4449H8.37081ZM25.0757 21.1137L25.1753 21.1225L25.1878 20.9813L25.0506 21.0169L25.0757 21.1137ZM22.4025 51.2815V51.3815H22.4939L22.5021 51.2905L22.4025 51.2815ZM17.599 51.2815H17.499V51.3815H17.599V51.2815ZM14.5229 38.3621H14.4229V38.4621H14.5229V38.3621ZM8.37081 32.2099H8.27081V32.3099H8.37081V32.2099ZM2.21868 39.6295L2.12924 39.5848L2.11868 39.6059V39.6295H2.21868ZM4.90306 34.2608V34.1608H4.84125L4.81361 34.216L4.90306 34.2608ZM12.4722 34.2608H12.5722V34.1608H12.4722V34.2608ZM12.4722 38.3622V38.4622H12.5722V38.3622H12.4722ZM6.3201 51.2816V51.3816H6.4201V51.2816H6.3201ZM2.21868 51.2816H2.11868V51.3816H2.21868V51.2816ZM1.19332 53.4323H51.6408V53.2323H1.19332V53.4323ZM51.6408 53.4323C52.2623 53.4323 52.7661 52.9283 52.7661 52.3069H52.5661C52.5661 52.8179 52.1518 53.2323 51.6408 53.2323V53.4323ZM52.7661 52.3069V45.5396H52.5661V52.3069H52.7661ZM52.7661 45.5396C52.7661 43.5852 51.425 41.9387 49.6151 41.4711L49.5651 41.6648C51.2891 42.1102 52.5661 43.6788 52.5661 45.5396H52.7661ZM49.6901 41.568V35.7988H49.4901V41.568H49.6901ZM49.6901 35.7988C49.6901 35.1774 49.1862 34.6734 48.5647 34.6734V34.8734C49.0758 34.8734 49.4901 35.2878 49.4901 35.7988H49.6901ZM48.5647 34.6734C47.9432 34.6734 47.4394 35.1774 47.4394 35.7988H47.6394C47.6394 35.2878 48.0536 34.8734 48.5647 34.8734V34.6734ZM47.4394 35.7988V41.568H47.6394V35.7988H47.4394ZM47.5143 41.4711C45.7044 41.9387 44.3633 43.5852 44.3633 45.5396H44.5633C44.5633 43.6788 45.8403 42.1102 47.5644 41.6648L47.5143 41.4711ZM44.3633 45.5396V51.2815H44.5633V45.5396H44.3633ZM44.4633 51.1815H36.5836V51.3815H44.4633V51.1815ZM36.6833 51.2727L33.8079 18.8666L33.6086 18.8843L36.484 51.2904L36.6833 51.2727ZM33.7333 18.9722L42.411 16.7223L42.3608 16.5287L33.6831 18.7786L33.7333 18.9722ZM42.2893 16.6514L43.6183 21.611L43.8115 21.5592L42.4825 16.5996L42.2893 16.6514ZM43.6183 21.611C43.7803 22.2153 44.402 22.5677 44.9991 22.406L44.9469 22.2129C44.4559 22.3459 43.9446 22.056 43.8115 21.5592L43.6183 21.611ZM44.9991 22.406L47.5656 21.712L47.5134 21.5189L44.9469 22.2129L44.9991 22.406ZM47.4395 21.6155V26.5704H47.6395V21.6155H47.4395ZM47.4395 26.5704C47.4395 27.1918 47.9433 27.6958 48.5648 27.6958V27.4958C48.0537 27.4958 47.6395 27.0814 47.6395 26.5704H47.4395ZM48.5648 27.6958C49.1864 27.6958 49.6902 27.1918 49.6902 26.5704H49.4902C49.4902 27.0814 49.0759 27.4958 48.5648 27.4958V27.6958ZM49.6902 26.5704V21.0601H49.4902V26.5704H49.6902ZM49.6163 21.1567L50.8855 20.8137L50.8334 20.6206L49.5641 20.9636L49.6163 21.1567ZM50.8855 20.8137C51.228 20.7212 51.5067 20.4726 51.6377 20.143L51.4519 20.0691C51.3442 20.3402 51.115 20.5446 50.8334 20.6206L50.8855 20.8137ZM51.6377 20.143C51.7221 19.9308 53.6618 14.9512 52.2624 9.72595L52.0692 9.77768C53.4509 14.9372 51.5332 19.8646 51.4519 20.0691L51.6377 20.143ZM52.2623 9.72592C50.864 4.50958 46.757 1.12926 46.5805 0.985938L46.4545 1.14121C46.6245 1.27925 50.688 4.62567 52.0692 9.77771L52.2623 9.72592ZM46.5805 0.985931C46.2985 0.757057 45.9233 0.678147 45.5731 0.774492L45.6261 0.96733C45.914 0.888133 46.2225 0.952979 46.4545 1.14122L46.5805 0.985931ZM45.5731 0.774482L39.6301 2.40685L39.6831 2.5997L45.6261 0.967339L45.5731 0.774482ZM39.6302 2.40685C39.0335 2.5707 38.681 3.18559 38.8412 3.78317L39.0343 3.7314C38.9027 3.24006 39.1925 2.73444 39.6831 2.59971L39.6302 2.40685ZM38.8412 3.78317L40.1661 8.72763L40.3593 8.67586L39.0344 3.7314L38.8412 3.78317ZM40.2376 8.60495L3.18284 18.2126L3.23304 18.4062L40.2878 8.79855L40.2376 8.60495ZM3.18202 18.2128C1.34849 18.7048 0.0679687 20.3736 0.0679687 22.2713H0.267969C0.267969 20.4642 1.48767 18.8746 3.23386 18.406L3.18202 18.2128ZM0.0679687 22.2713C0.0679687 25.045 2.70056 27.0405 5.34839 26.3318L5.29667 26.1386C2.77528 26.8135 0.267969 24.9129 0.267969 22.2713H0.0679687ZM5.34763 26.332L6.3452 26.0733L6.29499 25.8797L5.29743 26.1384L5.34763 26.332ZM6.2201 25.9765V32.2099H6.4201V25.9765H6.2201ZM6.3201 32.1099H4.26939V32.3099H6.3201V32.1099ZM4.26939 32.1099C3.8431 32.1099 3.4535 32.3508 3.26287 32.732L3.44175 32.8215C3.59851 32.508 3.91887 32.3099 4.26939 32.3099V32.1099ZM3.26287 32.732L0.186803 38.8842L0.365689 38.9736L3.44175 32.8215L3.26287 32.732ZM0.186829 38.8841C0.108586 39.0404 0.0679687 39.2128 0.0679687 39.3874H0.267969C0.267969 39.2438 0.301382 39.102 0.365663 38.9737L0.186829 38.8841ZM0.0679687 39.3874V52.3069H0.267969V39.3874H0.0679687ZM0.0679687 52.3069C0.0679687 52.9284 0.571792 53.4323 1.19332 53.4323V53.2323C0.682248 53.2323 0.267969 52.818 0.267969 52.3069H0.0679687ZM15.4483 40.4128V51.2815H15.6483V40.4128H15.4483ZM15.5483 51.1815H8.37081V51.3815H15.5483V51.1815ZM8.47081 51.2815V40.4128H8.27081V51.2815H8.47081ZM8.37081 40.5128H15.5483V40.3128H8.37081V40.5128ZM34.3705 48.5635L26.8052 37.8941L26.6421 38.0098L34.2073 48.6792L34.3705 48.5635ZM26.7236 38.0519H33.3423V37.8519H26.7236V38.0519ZM33.2427 37.9608L34.1893 48.6302L34.3885 48.6125L33.4419 37.9431L33.2427 37.9608ZM33.0736 34.0342L28.0211 28.6553L27.8753 28.7922L32.9279 34.1711L33.0736 34.0342ZM27.9482 28.8237H32.5235V28.6237H27.9482V28.8237ZM32.4239 28.7326L32.9011 34.1115L33.1004 34.0938L32.6232 28.7149L32.4239 28.7326ZM31.8768 35.8012H25.8241V36.0012H31.8768V35.8012ZM25.9237 35.9101L26.4454 30.022L26.2462 30.0043L25.7245 35.8924L25.9237 35.9101ZM26.2729 30.0816L31.8039 35.9697L31.9496 35.8328L26.4187 29.9447L26.2729 30.0816ZM25.4017 39.8059L33.5797 51.3394L33.7429 51.2237L25.5648 39.6902L25.4017 39.8059ZM33.6613 51.1815H24.4613V51.3815H33.6613V51.1815ZM24.5609 51.2904L25.5829 39.7569L25.3836 39.7392L24.3617 51.2727L24.5609 51.2904ZM46.614 45.5396C46.614 44.464 47.4892 43.5889 48.5647 43.5889V43.3889C47.3787 43.3889 46.414 44.3536 46.414 45.5396H46.614ZM48.5647 43.5889C49.6402 43.5889 50.5154 44.464 50.5154 45.5396H50.7154C50.7154 44.3536 49.7507 43.3889 48.5647 43.3889V43.5889ZM50.5154 45.5396V51.2815H50.7154V45.5396H50.5154ZM50.6154 51.1815H46.514V51.3815H50.6154V51.1815ZM46.614 51.2815V45.5396H46.414V51.2815H46.614ZM32.3417 26.573H26.6418V26.773H32.3417V26.573ZM26.7414 26.6819L27.2824 20.5761L27.0832 20.5584L26.5422 26.6642L26.7414 26.6819ZM27.2079 20.6641L31.7212 19.4938L31.671 19.3002L27.1577 20.4705L27.2079 20.6641ZM31.5965 19.4059L32.242 26.6819L32.4413 26.6642L31.7957 19.3882L31.5965 19.4059ZM45.5394 3.06858C46.5189 3.97935 49.1101 6.65948 50.0883 10.3083L50.2815 10.2565C49.2885 6.55258 46.6635 3.84077 45.6756 2.92211L45.5394 3.06858ZM50.0883 10.3083C51.0631 13.9484 50.1099 17.5827 49.7056 18.8486L49.8961 18.9094C50.3038 17.633 51.2714 13.9533 50.2815 10.2566L50.0883 10.3083ZM49.7748 18.7825C46.8455 19.575 45.8465 19.8453 45.5329 19.9302C45.4545 19.9514 45.419 19.961 45.4068 19.9643C45.4037 19.9651 45.4022 19.9656 45.4018 19.9657C45.4017 19.9657 45.4017 19.9657 45.4018 19.9657C45.4019 19.9656 45.522 20.0289 45.4684 20.1536C45.4614 20.1564 45.4541 20.1587 45.454 20.1587C45.454 20.1587 45.454 20.1587 45.4542 20.1587C45.4545 20.1586 45.4551 20.1584 45.4559 20.1582C45.4591 20.1573 45.4657 20.1556 45.4732 20.1535C45.4884 20.1494 45.5075 20.1442 45.5112 20.1432C45.5114 20.1432 45.5116 20.1431 45.5118 20.1431C45.5118 20.1431 45.5121 20.143 45.5124 20.1429C45.5127 20.1428 45.5834 20.0259 45.4718 19.9475C45.4662 19.9485 45.4603 19.9498 45.4601 19.9499C45.4596 19.95 45.4589 19.9502 45.4584 19.9503C45.4571 19.9507 45.4544 19.9514 45.4502 19.9525C45.4418 19.9548 45.4271 19.9588 45.4037 19.9651L45.4559 20.1582C45.4793 20.1518 45.494 20.1479 45.5024 20.1456C45.5066 20.1445 45.5092 20.1438 45.5105 20.1434C45.5114 20.1432 45.5113 20.1432 45.5111 20.1433C45.5108 20.1433 45.505 20.1447 45.4993 20.1456C45.3877 20.0673 45.4584 19.9503 45.4588 19.9502C45.459 19.9502 45.4592 19.9501 45.4591 19.9501C45.4591 19.9501 45.459 19.9502 45.4588 19.9502C45.4552 19.9512 45.4362 19.9563 45.421 19.9605C45.4134 19.9625 45.4068 19.9643 45.4036 19.9652C45.4028 19.9654 45.4022 19.9655 45.4019 19.9656C45.4018 19.9657 45.4016 19.9657 45.4015 19.9657C45.4014 19.9658 45.3941 19.9681 45.3871 19.9709C45.3334 20.0955 45.4536 20.1588 45.4537 20.1588C45.4538 20.1588 45.4539 20.1588 45.4539 20.1587C45.4544 20.1586 45.456 20.1582 45.459 20.1574C45.4712 20.1541 45.5067 20.1445 45.5851 20.1232C45.8987 20.0384 46.8978 19.7681 49.827 18.9755L49.7748 18.7825ZM45.5264 20.0358L41.2789 4.18481L41.0857 4.23658L45.3332 20.0875L45.5264 20.0358ZM41.2087 4.30713L45.634 3.09177L45.581 2.89891L41.1558 4.11427L41.2087 4.30713ZM4.77395 24.1556C3.53529 24.487 2.31868 23.5545 2.31868 22.2713H2.11868C2.11868 23.6862 3.46012 24.7142 4.82565 24.3488L4.77395 24.1556ZM2.31868 22.2713C2.31868 21.3901 2.91385 20.6151 3.757 20.3888L3.70515 20.1957C2.77424 20.4455 2.11868 21.3 2.11868 22.2713H2.31868ZM3.75618 20.3891L40.8185 10.7793L40.7683 10.5857L3.70598 20.1955L3.75618 20.3891ZM40.6969 10.7084L41.7585 14.6705L41.9517 14.6187L40.89 10.6566L40.6969 10.7084ZM41.83 14.5478C33.5471 16.6954 12.4498 22.1655 4.77471 24.1554L4.8249 24.349C12.5 22.3591 33.5973 16.889 41.8802 14.7414L41.83 14.5478ZM8.3959 25.5417L25.1008 21.2105L25.0506 21.0169L8.34571 25.3481L8.3959 25.5417ZM24.9761 21.1049C24.9741 21.1269 24.3061 28.6663 23.6384 36.2015C23.3045 39.9691 22.9707 43.7356 22.7204 46.5609C22.5952 47.9735 22.4909 49.1508 22.4178 49.9753C22.3813 50.3876 22.3526 50.7116 22.333 50.9327C22.3232 51.0433 22.3157 51.1281 22.3106 51.1854C22.3081 51.214 22.3061 51.2358 22.3048 51.2504C22.3042 51.2577 22.3037 51.2633 22.3034 51.267C22.303 51.2708 22.3029 51.2726 22.3029 51.2726L22.5021 51.2905C22.503 51.2802 25.1714 21.1665 25.1753 21.1225L24.9761 21.1049ZM22.4025 51.1815H17.599V51.3815H22.4025V51.1815ZM17.699 51.2815V39.3874H17.499V51.2815H17.699ZM17.699 39.3874C17.699 38.766 17.1952 38.2621 16.5736 38.2621V38.4621C17.0847 38.4621 17.499 38.8765 17.499 39.3874H17.699ZM16.5736 38.2621H14.5229V38.4621H16.5736V38.2621ZM14.6229 38.3621V33.2353H14.4229V38.3621H14.6229ZM14.6229 33.2353C14.6229 32.6139 14.1191 32.1099 13.4976 32.1099V32.3099C14.0086 32.3099 14.4229 32.7243 14.4229 33.2353H14.6229ZM13.4976 32.1099H8.37081V32.3099H13.4976V32.1099ZM8.47081 32.2099V25.4449H8.27081V32.2099H8.47081ZM2.30812 39.6742L4.9925 34.3055L4.81361 34.216L2.12924 39.5848L2.30812 39.6742ZM4.90306 34.3608H12.4722V34.1608H4.90306V34.3608ZM12.3722 34.2608V38.3622H12.5722V34.2608H12.3722ZM12.4722 38.2622H7.34545V38.4622H12.4722V38.2622ZM7.34545 38.2622C6.72391 38.2622 6.2201 38.7661 6.2201 39.3875H6.4201C6.4201 38.8766 6.83438 38.4622 7.34545 38.4622V38.2622ZM6.2201 39.3875V51.2816H6.4201V39.3875H6.2201ZM6.3201 51.1816H2.21868V51.3816H6.3201V51.1816ZM2.31868 51.2816V39.6295H2.11868V51.2816H2.31868Z" fill="#F4F7FA" mask="url(#path-1-inside-1)"/>
<path d="M49.4898 31.1847C49.4898 31.6958 49.0755 32.1101 48.5645 32.1101C48.0534 32.1101 47.6391 31.6958 47.6391 31.1847C47.6391 30.6736 48.0534 30.2593 48.5645 30.2593C49.0755 30.2593 49.4898 30.6736 49.4898 31.1847Z" fill="#3480A3" stroke="#F4F7FA" stroke-width="0.2"/>
</g>
<defs>
<clipPath id="clip0">
<rect width="52.5" height="52.5" fill="white" transform="translate(0.167969 0.833313)"/>
</clipPath>
</defs>
</svg>
