<svg width="50" height="42" viewBox="0 0 50 42" fill="none" xmlns="http://www.w3.org/2000/svg">
<path d="M34.027 8.04491V8.19491H34.177H47.1598C48.6286 8.19491 49.7839 9.40189 49.7839 10.819V39.2259C49.7839 40.6965 48.6305 41.85 47.1598 41.85H2.77411C1.30345 41.85 0.15 40.6965 0.15 39.2259V10.819C0.15 9.34836 1.30345 8.19491 2.77411 8.19491H15.7569H15.9069V8.04491V3.88375C15.9069 1.80279 17.5597 0.15 19.6407 0.15H30.2933C32.3742 0.15 34.027 1.80279 34.027 3.88375V8.04491ZM38.8765 10.2642V10.1142H38.7266H10.6526H10.5026V10.2642V39.7807V39.9307H10.6526H38.7266H38.8765V39.7807V10.2642ZM31.9577 8.19491H32.1077V8.04491V3.88375C32.1077 2.85771 31.3193 2.06929 30.2933 2.06929H19.6407C18.6146 2.06929 17.8262 2.85771 17.8262 3.88375V8.04491V8.19491H17.9762H31.9577ZM8.58329 10.2642V10.1142H8.43329H2.77411C2.58662 10.1142 2.41168 10.2064 2.2866 10.3315C2.16152 10.4566 2.06929 10.6315 2.06929 10.819V39.2814C2.06929 39.4683 2.16116 39.645 2.29032 39.7655C2.41635 39.8832 2.59571 39.963 2.7877 39.9307H8.43329H8.58329V39.7807V10.2642ZM40.7958 39.8362V39.9862H40.9458H47.1598C47.3473 39.9862 47.5223 39.894 47.6473 39.7689C47.7724 39.6438 47.8647 39.4689 47.8647 39.2814V10.819C47.8647 10.6315 47.7724 10.4566 47.6473 10.3315C47.5223 10.2064 47.3473 10.1142 47.1598 10.1142H40.9458H40.7958V10.2642V39.8362Z" fill="#347796" stroke="#FAF4F4" stroke-width="0.3"/>
<path d="M27.188 23.4138C26.1123 23.4138 25.2021 24.0792 24.8711 25.0773H16.4307V26.7408H24.8711C25.2848 28.0715 26.6915 28.7369 28.0155 28.2379C28.7603 27.9884 29.2567 27.4061 29.505 26.7408H32.9804V25.0773H29.505C29.174 24.0792 28.2638 23.4138 27.188 23.4138ZM27.188 26.7408C26.6915 26.7408 26.3605 26.4081 26.3605 25.909C26.3605 25.41 26.6915 25.0773 27.188 25.0773C27.6845 25.0773 28.0155 25.41 28.0155 25.909C28.0155 26.4081 27.6845 26.7408 27.188 26.7408Z" fill="#347796"/>
<path d="M21.3956 30.0674C20.3199 30.0674 19.4097 30.7328 19.0787 31.7309H16.4307V33.3943H19.0787C19.4924 34.7251 20.8991 35.3905 22.2231 34.8914C22.9679 34.6419 23.4643 34.0597 23.7126 33.3943H32.9804V31.7309H23.7126C23.3816 30.7328 22.4714 30.0674 21.3956 30.0674ZM21.3956 33.3943C20.8991 33.3943 20.5681 33.0616 20.5681 32.5626C20.5681 32.0636 20.8991 31.7309 21.3956 31.7309C21.8921 31.7309 22.2231 32.0636 22.2231 32.5626C22.2231 33.0616 21.8921 33.3943 21.3956 33.3943Z" fill="#347796"/>
<path d="M21.3956 16.7599C20.3199 16.7599 19.4097 17.4252 19.0787 18.4233H16.4307V20.0868H19.0787C19.4924 21.4175 20.8991 22.0829 22.2231 21.5839C22.9679 21.3344 23.4643 20.7522 23.7126 20.0868H32.9804V18.4233H23.7126C23.3816 17.4252 22.4714 16.7599 21.3956 16.7599ZM21.3956 20.0868C20.8991 20.0868 20.5681 19.7541 20.5681 19.2551C20.5681 18.756 20.8991 18.4233 21.3956 18.4233C21.8921 18.4233 22.2231 18.756 22.2231 19.2551C22.2231 19.7541 21.8921 20.0868 21.3956 20.0868Z" fill="#347796"/>
</svg>
