<svg width="59" height="48" viewBox="0 0 59 48" fill="none" xmlns="http://www.w3.org/2000/svg">
<mask id="path-1-inside-1" fill="white">
<path d="M41.564 18.0004C38.7579 18.0004 36.05 18.1966 33.6307 18.5831C33.6307 18.5415 33.6368 18.4939 33.6368 18.4523L33.6553 12.8092C33.6553 12.7081 33.6368 12.613 33.6123 12.5238C33.643 12.3692 33.6553 12.2206 33.6553 12.0838L33.6737 6.44074C33.6798 5.22769 32.7465 3.50921 28.2947 2.21886C25.2368 1.33881 21.1904 0.845268 16.9044 0.833375C8.8421 0.821482 0.110526 2.52213 0.0982457 6.33965L0.0798246 11.9827C0.0798246 12.1314 0.0982456 12.28 0.122807 12.4287C0.0982456 12.5179 0.0798246 12.613 0.0798246 12.7141L0.0614034 18.3571C0.0614034 18.5058 0.0798246 18.6485 0.104386 18.7912C0.0798246 18.8864 0.0552631 18.9815 0.0552631 19.0826L0.0368421 24.7316C0.0368421 24.8802 0.0552632 25.0289 0.0798246 25.1716C0.0552632 25.2608 0.0368421 25.3559 0.0368421 25.457L0.018421 31.1001C0.018421 31.2487 0.036842 31.3974 0.0614034 31.5401C0.036842 31.6293 0.018421 31.7244 0.018421 31.8196L0 37.4686C0 37.9681 0.159649 38.7292 0.957895 39.5022C3.16228 41.6488 9.36403 43.0521 16.7693 43.07C16.8307 43.07 16.8982 43.07 16.9597 43.07C19.7351 43.07 22.4061 42.8678 24.7763 42.4813C25.6175 45.8945 33.8149 47.4762 41.4719 47.5C41.5272 47.5 41.5825 47.5 41.6377 47.5C45.8623 47.5 49.8474 47.0302 52.8684 46.1799C57.3325 44.9193 58.2719 43.2067 58.2719 41.9937L58.2903 36.3507C58.2903 36.2496 58.2719 36.1544 58.2474 36.0593C58.2781 35.9106 58.2903 35.762 58.2903 35.6193L58.3088 29.9762C58.3088 29.8811 58.2903 29.7859 58.2658 29.6967C58.2903 29.5481 58.3149 29.3994 58.3149 29.2448L58.3333 23.6077C58.3395 19.7902 49.6447 18.0241 41.564 18.0004ZM56.0491 35.6133C56.0491 35.9047 55.3675 36.8442 52.2605 37.7183C49.3991 38.527 45.5798 38.967 41.4965 38.9551C37.9904 38.9432 34.5702 38.5865 31.8746 37.9502C27.8588 37.0047 26.9623 35.8571 26.9623 35.5241V34.8225C26.9623 34.8225 26.9623 34.8225 26.9623 34.8165L26.9746 32.1109C28.0553 32.7294 29.5167 33.2586 31.3465 33.6927C31.6351 33.764 31.936 33.8294 32.243 33.8948C34.957 34.4478 38.1623 34.7511 41.5088 34.763C41.5579 34.763 41.607 34.763 41.6561 34.763C45.893 34.763 49.8842 34.2932 52.9114 33.4429C54.1886 33.0802 55.2325 32.6699 56.0614 32.212L56.0491 35.6133ZM31.4079 12.0778C31.4079 12.3692 30.7263 13.3087 27.6193 14.1888C24.7579 14.9975 20.9386 15.4197 16.8553 15.4256C7.83509 15.4018 2.31491 13.1898 2.32105 12.0005L2.32719 9.3247C5.42807 11.0967 11.2921 11.9411 16.8614 11.9589C16.9167 11.9589 16.9719 11.9589 17.0272 11.9589C21.2518 11.9589 25.2368 11.4892 28.2579 10.6388C29.6088 10.2583 30.6342 9.83608 31.414 9.39605L31.4079 12.0778ZM16.8491 17.596C16.9044 17.596 16.9597 17.596 17.0088 17.596C21.2395 17.596 25.2246 17.1263 28.2456 16.2759C29.5965 15.8954 30.6219 15.4732 31.4018 15.0332L31.3895 18.4582C31.3895 18.6009 31.2298 18.8507 30.8307 19.1539C29.0254 19.6059 27.607 20.1648 26.5939 20.8189C23.8553 21.4611 20.4105 21.7882 16.8368 21.7941C7.81667 21.7644 2.29649 19.5583 2.30263 18.369L2.31491 14.9677C5.41579 16.7338 11.2737 17.5782 16.8491 17.596ZM16.8307 23.9645C16.886 23.9645 16.9412 23.9645 16.9965 23.9645C19.7289 23.9645 22.4 23.7623 24.7702 23.3818C24.7702 23.4234 24.764 23.465 24.764 23.5066V23.5126L24.7518 27.5501C22.3754 27.9545 19.6614 28.1566 16.8184 28.1566C7.79825 28.1329 2.27807 25.9268 2.28421 24.7316L2.29649 21.3243C5.39123 23.1023 11.2553 23.9467 16.8307 23.9645ZM2.27193 27.7047C5.37281 29.4767 11.2368 30.3152 16.8061 30.333C16.8675 30.333 16.9351 30.333 16.9965 30.333C19.7474 30.333 22.3877 30.1308 24.7456 29.7562C24.7395 29.7978 24.7333 29.8395 24.7333 29.887L24.7211 33.9246C22.3325 34.3289 19.6123 34.5311 16.8 34.537C7.77982 34.5073 2.25965 32.3012 2.26579 31.112L2.27193 27.7047ZM56.0798 26.569L56.0737 29.2448C56.0737 29.5362 55.3921 30.4757 52.2851 31.3558C49.4237 32.1645 45.6228 32.6045 41.5149 32.5926C38.3158 32.5807 35.2702 32.3012 32.7096 31.772C32.4272 31.7125 32.157 31.6531 31.8807 31.5877C27.8833 30.6422 26.9868 29.4946 26.9868 29.1616L26.993 26.4917C26.9991 26.4976 27.0053 26.4976 27.0114 26.5036C27.214 26.6166 27.4289 26.7236 27.6561 26.8306C27.7114 26.8604 27.7728 26.8841 27.8281 26.9079C28.0491 27.009 28.2763 27.1042 28.5219 27.1993C28.5403 27.2052 28.5588 27.2171 28.5833 27.2231C28.8474 27.3242 29.1298 27.4193 29.4184 27.5144C29.4921 27.5382 29.5596 27.562 29.6333 27.5858C29.9342 27.6809 30.2412 27.7701 30.5667 27.8593C31.1316 28.008 31.7026 28.1448 32.2491 28.2518C34.9754 28.8167 38.1807 29.1199 41.5272 29.1318C41.5763 29.1318 41.6254 29.1318 41.6746 29.1318C41.9816 29.1318 42.2947 29.1259 42.6018 29.1259C42.6877 29.1259 42.7798 29.12 42.8658 29.12C43.1053 29.114 43.3447 29.1081 43.5842 29.1021C43.664 29.1021 43.75 29.0962 43.8298 29.0962C44.1368 29.0843 44.4439 29.0724 44.7509 29.0545C44.8123 29.0486 44.8737 29.0486 44.9351 29.0426C45.1868 29.0308 45.4325 29.0129 45.6842 28.9951C45.7763 28.9891 45.8746 28.9832 45.9667 28.9713C46.2123 28.9535 46.4579 28.9297 46.7035 28.9059C46.7649 28.8999 46.8263 28.894 46.8877 28.888C47.1825 28.8583 47.4772 28.8286 47.7719 28.7929C47.8579 28.781 47.9377 28.7751 48.0175 28.7632C48.2386 28.7394 48.4535 28.7097 48.6684 28.6799C48.7605 28.668 48.8526 28.6561 48.9447 28.6442C49.2149 28.6026 49.4851 28.5669 49.7491 28.5194C49.7798 28.5134 49.8105 28.5075 49.8412 28.5015C50.1053 28.4599 50.3632 28.4123 50.6149 28.3648C50.7009 28.3469 50.793 28.3291 50.8789 28.3113C51.0754 28.2696 51.2658 28.234 51.4561 28.1923C51.536 28.1745 51.6158 28.1566 51.6956 28.1388C51.9474 28.0793 52.1991 28.0199 52.4386 27.9604C52.5 27.9426 52.5553 27.9307 52.6167 27.9128C52.807 27.8593 52.9912 27.8118 53.1754 27.7582C53.2553 27.7345 53.3351 27.7107 53.4211 27.6869C53.5991 27.6334 53.771 27.5739 53.943 27.5144C53.9982 27.4966 54.0596 27.4788 54.1149 27.455C54.3298 27.3777 54.5386 27.3004 54.7412 27.2171C54.8026 27.1933 54.864 27.1636 54.9254 27.1398C55.0728 27.0804 55.214 27.015 55.3553 26.9495C55.4167 26.9198 55.4842 26.8901 55.5456 26.8604C55.7175 26.7771 55.8895 26.6879 56.0491 26.5987C56.0553 26.5809 56.0675 26.5749 56.0798 26.569ZM56.0921 23.6018C56.0921 23.6137 56.086 23.6315 56.086 23.6493C56.086 23.6731 56.0798 23.6969 56.0737 23.7207C56.0675 23.7326 56.0614 23.7445 56.0614 23.7564C56.0491 23.7861 56.043 23.8099 56.0246 23.8396C56.0184 23.8456 56.0184 23.8515 56.0123 23.8575C55.3184 25.0765 49.9395 26.9614 41.5333 26.9495C38.3404 26.9377 35.2947 26.6522 32.7096 26.1171C32.2 26.016 31.6842 25.8971 31.1684 25.7603C30.9781 25.7068 30.7939 25.6592 30.6219 25.6057C28 24.8208 27.0053 23.9288 27.0053 23.5185C27.0053 23.3639 27.1895 23.0726 27.6991 22.7158C27.7053 22.7098 27.7114 22.7098 27.7175 22.7039C27.7237 22.7039 27.7237 22.6979 27.7298 22.6979C27.736 22.692 27.7421 22.692 27.7421 22.686C28.3193 22.2936 29.443 21.7287 31.5614 21.2114C31.586 21.2054 31.6044 21.1995 31.6289 21.1995C31.9851 21.1103 32.3535 21.027 32.7403 20.9557C35.3316 20.4383 38.3833 20.1708 41.5579 20.1827C50.5719 20.2005 56.086 22.4066 56.0921 23.6018ZM16.7325 3.00972C16.7877 3.00972 16.8368 3.00972 16.8921 3.00972C20.9693 3.02162 24.7947 3.47948 27.65 4.30602C30.7509 5.19796 31.4263 6.14937 31.4263 6.43479C31.4263 6.72616 30.7447 7.66568 27.6377 8.54573C24.7763 9.35443 20.9693 9.78256 16.8737 9.78256C7.84737 9.75283 2.33333 7.54675 2.33947 6.35155C2.33947 5.16229 7.80439 3.00972 16.7325 3.00972ZM16.7754 40.8936C9.38246 40.8758 4.02807 39.4071 2.54825 37.9681C2.35175 37.7778 2.24123 37.5994 2.24123 37.4686L2.25351 34.0613C5.35439 35.8333 11.2184 36.6777 16.7877 36.6955C16.8491 36.6955 16.9105 36.6955 16.9719 36.6955C19.7105 36.6955 22.357 36.4934 24.7272 36.1128C24.7211 36.1544 24.7149 36.1961 24.7149 36.2436L24.7026 40.2871C22.3386 40.6974 19.6307 40.9055 16.7754 40.8936ZM52.2421 44.0927C49.3807 44.9014 45.5737 45.3236 41.4781 45.3296C32.4579 45.3058 26.9377 43.0997 26.9439 41.9045L26.9561 38.4854C28.043 39.1038 29.5044 39.633 31.3404 40.0671C34.2079 40.745 37.8061 41.1196 41.4903 41.1315C41.5395 41.1315 41.5886 41.1315 41.6439 41.1315C45.8746 41.1315 49.8658 40.6617 52.893 39.8055C54.2439 39.4249 55.2693 39.0027 56.0491 38.5627L56.0368 41.9818C56.0307 42.2732 55.3491 43.2127 52.2421 44.0927Z"/>
</mask>
<path d="M41.564 18.0004C38.7579 18.0004 36.05 18.1966 33.6307 18.5831C33.6307 18.5415 33.6368 18.4939 33.6368 18.4523L33.6553 12.8092C33.6553 12.7081 33.6368 12.613 33.6123 12.5238C33.643 12.3692 33.6553 12.2206 33.6553 12.0838L33.6737 6.44074C33.6798 5.22769 32.7465 3.50921 28.2947 2.21886C25.2368 1.33881 21.1904 0.845268 16.9044 0.833375C8.8421 0.821482 0.110526 2.52213 0.0982457 6.33965L0.0798246 11.9827C0.0798246 12.1314 0.0982456 12.28 0.122807 12.4287C0.0982456 12.5179 0.0798246 12.613 0.0798246 12.7141L0.0614034 18.3571C0.0614034 18.5058 0.0798246 18.6485 0.104386 18.7912C0.0798246 18.8864 0.0552631 18.9815 0.0552631 19.0826L0.0368421 24.7316C0.0368421 24.8802 0.0552632 25.0289 0.0798246 25.1716C0.0552632 25.2608 0.0368421 25.3559 0.0368421 25.457L0.018421 31.1001C0.018421 31.2487 0.036842 31.3974 0.0614034 31.5401C0.036842 31.6293 0.018421 31.7244 0.018421 31.8196L0 37.4686C0 37.9681 0.159649 38.7292 0.957895 39.5022C3.16228 41.6488 9.36403 43.0521 16.7693 43.07C16.8307 43.07 16.8982 43.07 16.9597 43.07C19.7351 43.07 22.4061 42.8678 24.7763 42.4813C25.6175 45.8945 33.8149 47.4762 41.4719 47.5C41.5272 47.5 41.5825 47.5 41.6377 47.5C45.8623 47.5 49.8474 47.0302 52.8684 46.1799C57.3325 44.9193 58.2719 43.2067 58.2719 41.9937L58.2903 36.3507C58.2903 36.2496 58.2719 36.1544 58.2474 36.0593C58.2781 35.9106 58.2903 35.762 58.2903 35.6193L58.3088 29.9762C58.3088 29.8811 58.2903 29.7859 58.2658 29.6967C58.2903 29.5481 58.3149 29.3994 58.3149 29.2448L58.3333 23.6077C58.3395 19.7902 49.6447 18.0241 41.564 18.0004ZM56.0491 35.6133C56.0491 35.9047 55.3675 36.8442 52.2605 37.7183C49.3991 38.527 45.5798 38.967 41.4965 38.9551C37.9904 38.9432 34.5702 38.5865 31.8746 37.9502C27.8588 37.0047 26.9623 35.8571 26.9623 35.5241V34.8225C26.9623 34.8225 26.9623 34.8225 26.9623 34.8165L26.9746 32.1109C28.0553 32.7294 29.5167 33.2586 31.3465 33.6927C31.6351 33.764 31.936 33.8294 32.243 33.8948C34.957 34.4478 38.1623 34.7511 41.5088 34.763C41.5579 34.763 41.607 34.763 41.6561 34.763C45.893 34.763 49.8842 34.2932 52.9114 33.4429C54.1886 33.0802 55.2325 32.6699 56.0614 32.212L56.0491 35.6133ZM31.4079 12.0778C31.4079 12.3692 30.7263 13.3087 27.6193 14.1888C24.7579 14.9975 20.9386 15.4197 16.8553 15.4256C7.83509 15.4018 2.31491 13.1898 2.32105 12.0005L2.32719 9.3247C5.42807 11.0967 11.2921 11.9411 16.8614 11.9589C16.9167 11.9589 16.9719 11.9589 17.0272 11.9589C21.2518 11.9589 25.2368 11.4892 28.2579 10.6388C29.6088 10.2583 30.6342 9.83608 31.414 9.39605L31.4079 12.0778ZM16.8491 17.596C16.9044 17.596 16.9597 17.596 17.0088 17.596C21.2395 17.596 25.2246 17.1263 28.2456 16.2759C29.5965 15.8954 30.6219 15.4732 31.4018 15.0332L31.3895 18.4582C31.3895 18.6009 31.2298 18.8507 30.8307 19.1539C29.0254 19.6059 27.607 20.1648 26.5939 20.8189C23.8553 21.4611 20.4105 21.7882 16.8368 21.7941C7.81667 21.7644 2.29649 19.5583 2.30263 18.369L2.31491 14.9677C5.41579 16.7338 11.2737 17.5782 16.8491 17.596ZM16.8307 23.9645C16.886 23.9645 16.9412 23.9645 16.9965 23.9645C19.7289 23.9645 22.4 23.7623 24.7702 23.3818C24.7702 23.4234 24.764 23.465 24.764 23.5066V23.5126L24.7518 27.5501C22.3754 27.9545 19.6614 28.1566 16.8184 28.1566C7.79825 28.1329 2.27807 25.9268 2.28421 24.7316L2.29649 21.3243C5.39123 23.1023 11.2553 23.9467 16.8307 23.9645ZM2.27193 27.7047C5.37281 29.4767 11.2368 30.3152 16.8061 30.333C16.8675 30.333 16.9351 30.333 16.9965 30.333C19.7474 30.333 22.3877 30.1308 24.7456 29.7562C24.7395 29.7978 24.7333 29.8395 24.7333 29.887L24.7211 33.9246C22.3325 34.3289 19.6123 34.5311 16.8 34.537C7.77982 34.5073 2.25965 32.3012 2.26579 31.112L2.27193 27.7047ZM56.0798 26.569L56.0737 29.2448C56.0737 29.5362 55.3921 30.4757 52.2851 31.3558C49.4237 32.1645 45.6228 32.6045 41.5149 32.5926C38.3158 32.5807 35.2702 32.3012 32.7096 31.772C32.4272 31.7125 32.157 31.6531 31.8807 31.5877C27.8833 30.6422 26.9868 29.4946 26.9868 29.1616L26.993 26.4917C26.9991 26.4976 27.0053 26.4976 27.0114 26.5036C27.214 26.6166 27.4289 26.7236 27.6561 26.8306C27.7114 26.8604 27.7728 26.8841 27.8281 26.9079C28.0491 27.009 28.2763 27.1042 28.5219 27.1993C28.5403 27.2052 28.5588 27.2171 28.5833 27.2231C28.8474 27.3242 29.1298 27.4193 29.4184 27.5144C29.4921 27.5382 29.5596 27.562 29.6333 27.5858C29.9342 27.6809 30.2412 27.7701 30.5667 27.8593C31.1316 28.008 31.7026 28.1448 32.2491 28.2518C34.9754 28.8167 38.1807 29.1199 41.5272 29.1318C41.5763 29.1318 41.6254 29.1318 41.6746 29.1318C41.9816 29.1318 42.2947 29.1259 42.6018 29.1259C42.6877 29.1259 42.7798 29.12 42.8658 29.12C43.1053 29.114 43.3447 29.1081 43.5842 29.1021C43.664 29.1021 43.75 29.0962 43.8298 29.0962C44.1368 29.0843 44.4439 29.0724 44.7509 29.0545C44.8123 29.0486 44.8737 29.0486 44.9351 29.0426C45.1868 29.0308 45.4325 29.0129 45.6842 28.9951C45.7763 28.9891 45.8746 28.9832 45.9667 28.9713C46.2123 28.9535 46.4579 28.9297 46.7035 28.9059C46.7649 28.8999 46.8263 28.894 46.8877 28.888C47.1825 28.8583 47.4772 28.8286 47.7719 28.7929C47.8579 28.781 47.9377 28.7751 48.0175 28.7632C48.2386 28.7394 48.4535 28.7097 48.6684 28.6799C48.7605 28.668 48.8526 28.6561 48.9447 28.6442C49.2149 28.6026 49.4851 28.5669 49.7491 28.5194C49.7798 28.5134 49.8105 28.5075 49.8412 28.5015C50.1053 28.4599 50.3632 28.4123 50.6149 28.3648C50.7009 28.3469 50.793 28.3291 50.8789 28.3113C51.0754 28.2696 51.2658 28.234 51.4561 28.1923C51.536 28.1745 51.6158 28.1566 51.6956 28.1388C51.9474 28.0793 52.1991 28.0199 52.4386 27.9604C52.5 27.9426 52.5553 27.9307 52.6167 27.9128C52.807 27.8593 52.9912 27.8118 53.1754 27.7582C53.2553 27.7345 53.3351 27.7107 53.4211 27.6869C53.5991 27.6334 53.771 27.5739 53.943 27.5144C53.9982 27.4966 54.0596 27.4788 54.1149 27.455C54.3298 27.3777 54.5386 27.3004 54.7412 27.2171C54.8026 27.1933 54.864 27.1636 54.9254 27.1398C55.0728 27.0804 55.214 27.015 55.3553 26.9495C55.4167 26.9198 55.4842 26.8901 55.5456 26.8604C55.7175 26.7771 55.8895 26.6879 56.0491 26.5987C56.0553 26.5809 56.0675 26.5749 56.0798 26.569ZM56.0921 23.6018C56.0921 23.6137 56.086 23.6315 56.086 23.6493C56.086 23.6731 56.0798 23.6969 56.0737 23.7207C56.0675 23.7326 56.0614 23.7445 56.0614 23.7564C56.0491 23.7861 56.043 23.8099 56.0246 23.8396C56.0184 23.8456 56.0184 23.8515 56.0123 23.8575C55.3184 25.0765 49.9395 26.9614 41.5333 26.9495C38.3404 26.9377 35.2947 26.6522 32.7096 26.1171C32.2 26.016 31.6842 25.8971 31.1684 25.7603C30.9781 25.7068 30.7939 25.6592 30.6219 25.6057C28 24.8208 27.0053 23.9288 27.0053 23.5185C27.0053 23.3639 27.1895 23.0726 27.6991 22.7158C27.7053 22.7098 27.7114 22.7098 27.7175 22.7039C27.7237 22.7039 27.7237 22.6979 27.7298 22.6979C27.736 22.692 27.7421 22.692 27.7421 22.686C28.3193 22.2936 29.443 21.7287 31.5614 21.2114C31.586 21.2054 31.6044 21.1995 31.6289 21.1995C31.9851 21.1103 32.3535 21.027 32.7403 20.9557C35.3316 20.4383 38.3833 20.1708 41.5579 20.1827C50.5719 20.2005 56.086 22.4066 56.0921 23.6018ZM16.7325 3.00972C16.7877 3.00972 16.8368 3.00972 16.8921 3.00972C20.9693 3.02162 24.7947 3.47948 27.65 4.30602C30.7509 5.19796 31.4263 6.14937 31.4263 6.43479C31.4263 6.72616 30.7447 7.66568 27.6377 8.54573C24.7763 9.35443 20.9693 9.78256 16.8737 9.78256C7.84737 9.75283 2.33333 7.54675 2.33947 6.35155C2.33947 5.16229 7.80439 3.00972 16.7325 3.00972ZM16.7754 40.8936C9.38246 40.8758 4.02807 39.4071 2.54825 37.9681C2.35175 37.7778 2.24123 37.5994 2.24123 37.4686L2.25351 34.0613C5.35439 35.8333 11.2184 36.6777 16.7877 36.6955C16.8491 36.6955 16.9105 36.6955 16.9719 36.6955C19.7105 36.6955 22.357 36.4934 24.7272 36.1128C24.7211 36.1544 24.7149 36.1961 24.7149 36.2436L24.7026 40.2871C22.3386 40.6974 19.6307 40.9055 16.7754 40.8936ZM52.2421 44.0927C49.3807 44.9014 45.5737 45.3236 41.4781 45.3296C32.4579 45.3058 26.9377 43.0997 26.9439 41.9045L26.9561 38.4854C28.043 39.1038 29.5044 39.633 31.3404 40.0671C34.2079 40.745 37.8061 41.1196 41.4903 41.1315C41.5395 41.1315 41.5886 41.1315 41.6439 41.1315C45.8746 41.1315 49.8658 40.6617 52.893 39.8055C54.2439 39.4249 55.2693 39.0027 56.0491 38.5627L56.0368 41.9818C56.0307 42.2732 55.3491 43.2127 52.2421 44.0927Z" fill="#3480A3" stroke="#F4F7FA" stroke-width="0.4" mask="url(#path-1-inside-1)"/>
</svg>
