<svg width="62" height="63" viewBox="0 0 62 63" fill="none" xmlns="http://www.w3.org/2000/svg">
<path d="M19.3914 61.2305H1.66797V37.1773C1.66797 32.2831 5.63549 28.3156 10.5297 28.3156C15.4239 28.3156 19.3914 32.2831 19.3914 37.1773V61.2305Z" stroke="#3480A3" stroke-width="1.6" stroke-linecap="round" stroke-linejoin="round"/>
<path d="M37.9567 61.2306H24.4531L27.3474 15.7486C27.3809 15.2221 27.8178 14.8121 28.3454 14.8121H33.6509C34.175 14.8121 34.6102 15.2168 34.6482 15.7396L37.9567 61.2306Z" stroke="#3480A3" stroke-width="1.6" stroke-linecap="round" stroke-linejoin="round"/>
<path d="M54.8395 61.2306H41.3359L44.2302 15.7486C44.2638 15.2221 44.7006 14.8121 45.2282 14.8121H50.5337C51.0578 14.8121 51.493 15.2168 51.5311 15.7396L54.8395 61.2306Z" stroke="#3480A3" stroke-width="1.6" stroke-linecap="round" stroke-linejoin="round"/>
<path d="M19.3906 36.7553H25.7204" stroke="#3480A3" stroke-width="1.6" stroke-linecap="round" stroke-linejoin="round"/>
<path d="M22.3438 36.7553V32.5815C22.3438 30.9247 23.6869 29.5815 25.3437 29.5815H26.1416" stroke="#3480A3" stroke-width="1.6" stroke-linecap="round" stroke-linejoin="round"/>
<path d="M60.7461 36.7553H53.1503" stroke="#3480A3" stroke-width="1.6" stroke-linecap="round" stroke-linejoin="round"/>
<path d="M42.5977 36.7553H36.2679" stroke="#3480A3" stroke-width="1.6" stroke-linecap="round" stroke-linejoin="round"/>
<path d="M60.7461 43.5072H53.5723" stroke="#3480A3" stroke-width="1.6" stroke-linecap="round" stroke-linejoin="round"/>
<path d="M42.1758 43.5072H37.112" stroke="#3480A3" stroke-width="1.6" stroke-linecap="round" stroke-linejoin="round"/>
<path d="M60.7461 61.2305V32.5815C60.7461 30.9247 59.4029 29.5815 57.7461 29.5815H52.7284" stroke="#3480A3" stroke-width="1.6" stroke-linecap="round" stroke-linejoin="round"/>
<path d="M35.8497 29.5815L43.0234 29.5815" stroke="#3480A3" stroke-width="1.6" stroke-linecap="round" stroke-linejoin="round"/>
<path d="M48.0886 14.3901V12.1702C48.0886 11.0657 48.984 10.1702 50.0886 10.1702H51.2535C52.0692 10.1702 52.7304 9.50898 52.7304 8.69328V8.69328C52.7304 7.87759 53.3917 7.21633 54.2074 7.21633H61.1701M29.9432 13.5461V12.5922C29.9432 11.4877 29.0477 10.5922 27.9432 10.5922H24.8793C23.9471 10.5922 23.1914 9.8365 23.1914 8.90428V8.90428C23.1914 7.97205 23.9471 7.21633 24.8793 7.21633H27.3269C28.3057 7.21633 29.0992 6.42283 29.0992 5.44399V5.44399C29.0992 4.79144 29.6282 4.26243 30.2808 4.26243H32.585C33.6896 4.26243 34.585 3.367 34.585 2.26243V1.30853" stroke="#3480A3" stroke-width="1.6" stroke-linecap="round" stroke-linejoin="round"/>
<path d="M32.8945 14.3901V12.1703C32.8945 11.0657 33.79 10.1703 34.8945 10.1703H36.0594C36.8751 10.1703 37.5364 9.50902 37.5364 8.69332V8.69332C37.5364 7.87762 38.1976 7.21637 39.0133 7.21637H45.9761" stroke="#3480A3" stroke-width="1.6" stroke-linecap="round" stroke-linejoin="round"/>
</svg>
