<svg width="47" height="55" viewBox="0 0 47 55" fill="none" xmlns="http://www.w3.org/2000/svg">
<mask id="path-1-outside-1" maskUnits="userSpaceOnUse" x="0" y="0" width="47" height="42" fill="black">
<rect fill="white" width="47" height="42"/>
<path d="M45.2083 19.8225L41.0959 19.4213C40.6549 17.6538 39.9525 15.9644 39.0127 14.4104L41.6259 11.2064C41.7625 11.0387 41.8326 10.8253 41.8224 10.6079C41.8122 10.3905 41.7225 10.1847 41.5707 10.0309L37.0769 5.47051C36.9251 5.3166 36.7223 5.2257 36.508 5.21559C36.2937 5.20549 36.0834 5.27691 35.9183 5.41588L32.759 8.07096C31.2251 7.12533 29.5623 6.41429 27.8241 5.96075L27.4281 1.79026C27.4076 1.57396 27.3084 1.37317 27.1499 1.22706C26.9914 1.08095 26.785 1 26.5709 1H20.4299C20.2158 1 20.0094 1.08094 19.8509 1.22702C19.6924 1.37311 19.5932 1.57387 19.5726 1.79015L19.1766 5.96053C17.4384 6.41406 15.7755 7.1251 14.2416 8.07074L11.0823 5.41577C10.9171 5.2769 10.7069 5.20553 10.4927 5.21563C10.2785 5.22574 10.0757 5.31658 9.924 5.4704L5.43067 10.0308C5.27911 10.1848 5.18959 10.3906 5.17964 10.608C5.16968 10.8254 5.24 11.0388 5.37684 11.2063L7.99136 14.4102C7.0524 15.9643 6.35103 17.6539 5.91114 19.4213L1.79202 19.8231C1.57745 19.8432 1.37782 19.9433 1.23158 20.1039C1.08535 20.2646 1.00286 20.4744 1 20.6931V27.1581C1.00287 27.3767 1.08533 27.5866 1.23149 27.7472C1.37765 27.9078 1.57719 28.0079 1.7917 28.0281L5.90726 28.4298C6.35524 30.1938 7.05675 31.8813 7.98921 33.4378L5.37437 36.6442C5.2319 36.8191 5.16201 37.0433 5.17947 37.2695C5.19692 37.4957 5.30036 37.7061 5.46792 37.8563L8.87662 40.9156C8.96761 40.9973 9.07463 41.0586 9.19062 41.0954C9.30662 41.1321 9.42897 41.1436 9.54963 41.129C9.6703 41.1143 9.78655 41.0739 9.89074 41.0105C9.99493 40.947 10.0847 40.8618 10.1542 40.7606L15.0525 33.6276C15.1681 33.4593 15.2216 33.2551 15.2038 33.0507C15.186 32.8464 15.0979 32.6549 14.955 32.5098C13.282 30.8119 12.1427 28.6487 11.6811 26.2937C11.2195 23.9387 11.4564 21.4977 12.3618 19.2793C13.2672 17.0609 14.8005 15.1648 16.7677 13.8308C18.7349 12.4968 21.0477 11.7848 23.4136 11.7848C25.7795 11.7848 28.0923 12.4968 30.0595 13.8308C32.0267 15.1648 33.56 17.0609 34.4654 19.2793C35.3708 21.4977 35.6077 23.9387 35.1461 26.2937C34.6845 28.6487 33.5452 30.8119 31.8723 32.5098C31.7276 32.6566 31.6392 32.8509 31.6228 33.0578C31.6064 33.2647 31.6631 33.4708 31.7828 33.6392L36.8534 40.7719C36.9237 40.8709 37.0138 40.9538 37.1176 41.0153C37.2215 41.0768 37.3369 41.1156 37.4564 41.1291C37.5759 41.1426 37.6969 41.1306 37.8115 41.0938C37.9262 41.0569 38.032 40.9962 38.1221 40.9153L41.5312 37.8571C41.6989 37.7068 41.8023 37.4962 41.8197 37.2698C41.8371 37.0435 41.767 36.8192 41.6242 36.6443L39.0082 33.4379C39.9397 31.881 40.6402 30.1934 41.0869 28.4292L45.2087 28.0276C45.4231 28.0072 45.6224 27.9072 45.7685 27.7467C45.9146 27.5862 45.997 27.3766 46 27.1581V20.6927C45.9971 20.474 45.9147 20.2642 45.7685 20.1036C45.6224 19.9429 45.4228 19.8428 45.2083 19.8225ZM44.2775 26.3641L40.3226 26.7495C40.1408 26.767 39.9691 26.8423 39.8319 26.9646C39.6947 27.0868 39.5989 27.2499 39.5582 27.4305C39.1231 29.4247 38.3341 31.3219 37.2295 33.0293C37.1284 33.1854 37.0793 33.3703 37.0893 33.5568C37.0993 33.7433 37.1679 33.9217 37.2851 34.0657L39.7667 37.108L37.6945 38.9666L33.5977 33.2039C35.3641 31.2068 36.5227 28.733 36.9331 26.0818C37.3435 23.4306 36.9883 20.7155 35.9104 18.2648C34.8325 15.8141 33.0781 13.7329 30.8593 12.2728C28.6405 10.8127 26.0525 10.0363 23.4081 10.0374C20.7637 10.0386 18.1763 10.8173 15.9587 12.2794C13.7412 13.7414 11.9886 15.8242 10.9127 18.2758C9.83692 20.7274 9.48403 23.4429 9.89674 26.0937C10.3095 28.7446 11.4701 31.2173 13.2383 33.2129L9.29421 38.9562L7.23433 37.1075L9.71719 34.0651C9.8346 33.9212 9.9035 33.7429 9.91379 33.5564C9.92408 33.3699 9.87521 33.1849 9.77435 33.0287C8.67095 31.3212 7.88299 29.4242 7.449 27.4304C7.4068 27.2493 7.30968 27.0861 7.17133 26.964C7.03297 26.8418 6.86034 26.7668 6.67775 26.7494L2.72249 26.3641V21.487L6.67775 21.1012C6.86031 21.0836 7.03271 21.0079 7.17024 20.8848C7.30778 20.7617 7.4034 20.5975 7.4434 20.4159C7.86757 18.4214 8.6563 16.5253 9.76876 14.8257C9.87108 14.6695 9.92117 14.4841 9.91163 14.2967C9.9021 14.1094 9.83343 13.9302 9.71579 13.7855L7.20214 10.7044L10.587 7.26944L13.6229 9.82127C13.7647 9.94046 13.9404 10.0104 14.1242 10.0208C14.308 10.0313 14.4903 9.98167 14.6443 9.87929C16.3268 8.75914 18.1963 7.95932 20.1612 7.51899C20.3381 7.48111 20.4986 7.38696 20.6193 7.25021C20.7399 7.11346 20.8145 6.94124 20.8321 6.75855L21.212 2.76627H25.7887L26.1686 6.75834C26.1862 6.94149 26.2606 7.11424 26.3812 7.25169C26.5018 7.38914 26.6623 7.48419 26.8395 7.52314C28.804 7.96292 30.6732 8.76206 32.3556 9.88148C32.5097 9.98368 32.692 10.0331 32.8758 10.0225C33.0596 10.0118 33.2352 9.94169 33.3769 9.82237L36.4127 7.26988L39.7974 10.7045L37.2829 13.7856C37.165 13.9301 37.0961 14.1092 37.0862 14.2965C37.0764 14.4838 37.1262 14.6694 37.2282 14.8257C38.3396 16.5255 39.1273 18.4216 39.5504 20.4158C39.5917 20.5979 39.6886 20.7622 39.8273 20.8853C39.9659 21.0083 40.1392 21.0839 40.3226 21.1013L44.2775 21.4865V26.3641Z"/>
</mask>
<path d="M45.2083 19.8225L41.0959 19.4213C40.6549 17.6538 39.9525 15.9644 39.0127 14.4104L41.6259 11.2064C41.7625 11.0387 41.8326 10.8253 41.8224 10.6079C41.8122 10.3905 41.7225 10.1847 41.5707 10.0309L37.0769 5.47051C36.9251 5.3166 36.7223 5.2257 36.508 5.21559C36.2937 5.20549 36.0834 5.27691 35.9183 5.41588L32.759 8.07096C31.2251 7.12533 29.5623 6.41429 27.8241 5.96075L27.4281 1.79026C27.4076 1.57396 27.3084 1.37317 27.1499 1.22706C26.9914 1.08095 26.785 1 26.5709 1H20.4299C20.2158 1 20.0094 1.08094 19.8509 1.22702C19.6924 1.37311 19.5932 1.57387 19.5726 1.79015L19.1766 5.96053C17.4384 6.41406 15.7755 7.1251 14.2416 8.07074L11.0823 5.41577C10.9171 5.2769 10.7069 5.20553 10.4927 5.21563C10.2785 5.22574 10.0757 5.31658 9.924 5.4704L5.43067 10.0308C5.27911 10.1848 5.18959 10.3906 5.17964 10.608C5.16968 10.8254 5.24 11.0388 5.37684 11.2063L7.99136 14.4102C7.0524 15.9643 6.35103 17.6539 5.91114 19.4213L1.79202 19.8231C1.57745 19.8432 1.37782 19.9433 1.23158 20.1039C1.08535 20.2646 1.00286 20.4744 1 20.6931V27.1581C1.00287 27.3767 1.08533 27.5866 1.23149 27.7472C1.37765 27.9078 1.57719 28.0079 1.7917 28.0281L5.90726 28.4298C6.35524 30.1938 7.05675 31.8813 7.98921 33.4378L5.37437 36.6442C5.2319 36.8191 5.16201 37.0433 5.17947 37.2695C5.19692 37.4957 5.30036 37.7061 5.46792 37.8563L8.87662 40.9156C8.96761 40.9973 9.07463 41.0586 9.19062 41.0954C9.30662 41.1321 9.42897 41.1436 9.54963 41.129C9.6703 41.1143 9.78655 41.0739 9.89074 41.0105C9.99493 40.947 10.0847 40.8618 10.1542 40.7606L15.0525 33.6276C15.1681 33.4593 15.2216 33.2551 15.2038 33.0507C15.186 32.8464 15.0979 32.6549 14.955 32.5098C13.282 30.8119 12.1427 28.6487 11.6811 26.2937C11.2195 23.9387 11.4564 21.4977 12.3618 19.2793C13.2672 17.0609 14.8005 15.1648 16.7677 13.8308C18.7349 12.4968 21.0477 11.7848 23.4136 11.7848C25.7795 11.7848 28.0923 12.4968 30.0595 13.8308C32.0267 15.1648 33.56 17.0609 34.4654 19.2793C35.3708 21.4977 35.6077 23.9387 35.1461 26.2937C34.6845 28.6487 33.5452 30.8119 31.8723 32.5098C31.7276 32.6566 31.6392 32.8509 31.6228 33.0578C31.6064 33.2647 31.6631 33.4708 31.7828 33.6392L36.8534 40.7719C36.9237 40.8709 37.0138 40.9538 37.1176 41.0153C37.2215 41.0768 37.3369 41.1156 37.4564 41.1291C37.5759 41.1426 37.6969 41.1306 37.8115 41.0938C37.9262 41.0569 38.032 40.9962 38.1221 40.9153L41.5312 37.8571C41.6989 37.7068 41.8023 37.4962 41.8197 37.2698C41.8371 37.0435 41.767 36.8192 41.6242 36.6443L39.0082 33.4379C39.9397 31.881 40.6402 30.1934 41.0869 28.4292L45.2087 28.0276C45.4231 28.0072 45.6224 27.9072 45.7685 27.7467C45.9146 27.5862 45.997 27.3766 46 27.1581V20.6927C45.9971 20.474 45.9147 20.2642 45.7685 20.1036C45.6224 19.9429 45.4228 19.8428 45.2083 19.8225ZM44.2775 26.3641L40.3226 26.7495C40.1408 26.767 39.9691 26.8423 39.8319 26.9646C39.6947 27.0868 39.5989 27.2499 39.5582 27.4305C39.1231 29.4247 38.3341 31.3219 37.2295 33.0293C37.1284 33.1854 37.0793 33.3703 37.0893 33.5568C37.0993 33.7433 37.1679 33.9217 37.2851 34.0657L39.7667 37.108L37.6945 38.9666L33.5977 33.2039C35.3641 31.2068 36.5227 28.733 36.9331 26.0818C37.3435 23.4306 36.9883 20.7155 35.9104 18.2648C34.8325 15.8141 33.0781 13.7329 30.8593 12.2728C28.6405 10.8127 26.0525 10.0363 23.4081 10.0374C20.7637 10.0386 18.1763 10.8173 15.9587 12.2794C13.7412 13.7414 11.9886 15.8242 10.9127 18.2758C9.83692 20.7274 9.48403 23.4429 9.89674 26.0937C10.3095 28.7446 11.4701 31.2173 13.2383 33.2129L9.29421 38.9562L7.23433 37.1075L9.71719 34.0651C9.8346 33.9212 9.9035 33.7429 9.91379 33.5564C9.92408 33.3699 9.87521 33.1849 9.77435 33.0287C8.67095 31.3212 7.88299 29.4242 7.449 27.4304C7.4068 27.2493 7.30968 27.0861 7.17133 26.964C7.03297 26.8418 6.86034 26.7668 6.67775 26.7494L2.72249 26.3641V21.487L6.67775 21.1012C6.86031 21.0836 7.03271 21.0079 7.17024 20.8848C7.30778 20.7617 7.4034 20.5975 7.4434 20.4159C7.86757 18.4214 8.6563 16.5253 9.76876 14.8257C9.87108 14.6695 9.92117 14.4841 9.91163 14.2967C9.9021 14.1094 9.83343 13.9302 9.71579 13.7855L7.20214 10.7044L10.587 7.26944L13.6229 9.82127C13.7647 9.94046 13.9404 10.0104 14.1242 10.0208C14.308 10.0313 14.4903 9.98167 14.6443 9.87929C16.3268 8.75914 18.1963 7.95932 20.1612 7.51899C20.3381 7.48111 20.4986 7.38696 20.6193 7.25021C20.7399 7.11346 20.8145 6.94124 20.8321 6.75855L21.212 2.76627H25.7887L26.1686 6.75834C26.1862 6.94149 26.2606 7.11424 26.3812 7.25169C26.5018 7.38914 26.6623 7.48419 26.8395 7.52314C28.804 7.96292 30.6732 8.76206 32.3556 9.88148C32.5097 9.98368 32.692 10.0331 32.8758 10.0225C33.0596 10.0118 33.2352 9.94169 33.3769 9.82237L36.4127 7.26988L39.7974 10.7045L37.2829 13.7856C37.165 13.9301 37.0961 14.1092 37.0862 14.2965C37.0764 14.4838 37.1262 14.6694 37.2282 14.8257C38.3396 16.5255 39.1273 18.4216 39.5504 20.4158C39.5917 20.5979 39.6886 20.7622 39.8273 20.8853C39.9659 21.0083 40.1392 21.0839 40.3226 21.1013L44.2775 21.4865V26.3641Z" fill="#347796"/>
<path d="M45.2083 19.8225L41.0959 19.4213C40.6549 17.6538 39.9525 15.9644 39.0127 14.4104L41.6259 11.2064C41.7625 11.0387 41.8326 10.8253 41.8224 10.6079C41.8122 10.3905 41.7225 10.1847 41.5707 10.0309L37.0769 5.47051C36.9251 5.3166 36.7223 5.2257 36.508 5.21559C36.2937 5.20549 36.0834 5.27691 35.9183 5.41588L32.759 8.07096C31.2251 7.12533 29.5623 6.41429 27.8241 5.96075L27.4281 1.79026C27.4076 1.57396 27.3084 1.37317 27.1499 1.22706C26.9914 1.08095 26.785 1 26.5709 1H20.4299C20.2158 1 20.0094 1.08094 19.8509 1.22702C19.6924 1.37311 19.5932 1.57387 19.5726 1.79015L19.1766 5.96053C17.4384 6.41406 15.7755 7.1251 14.2416 8.07074L11.0823 5.41577C10.9171 5.2769 10.7069 5.20553 10.4927 5.21563C10.2785 5.22574 10.0757 5.31658 9.924 5.4704L5.43067 10.0308C5.27911 10.1848 5.18959 10.3906 5.17964 10.608C5.16968 10.8254 5.24 11.0388 5.37684 11.2063L7.99136 14.4102C7.0524 15.9643 6.35103 17.6539 5.91114 19.4213L1.79202 19.8231C1.57745 19.8432 1.37782 19.9433 1.23158 20.1039C1.08535 20.2646 1.00286 20.4744 1 20.6931V27.1581C1.00287 27.3767 1.08533 27.5866 1.23149 27.7472C1.37765 27.9078 1.57719 28.0079 1.7917 28.0281L5.90726 28.4298C6.35524 30.1938 7.05675 31.8813 7.98921 33.4378L5.37437 36.6442C5.2319 36.8191 5.16201 37.0433 5.17947 37.2695C5.19692 37.4957 5.30036 37.7061 5.46792 37.8563L8.87662 40.9156C8.96761 40.9973 9.07463 41.0586 9.19062 41.0954C9.30662 41.1321 9.42897 41.1436 9.54963 41.129C9.6703 41.1143 9.78655 41.0739 9.89074 41.0105C9.99493 40.947 10.0847 40.8618 10.1542 40.7606L15.0525 33.6276C15.1681 33.4593 15.2216 33.2551 15.2038 33.0507C15.186 32.8464 15.0979 32.6549 14.955 32.5098C13.282 30.8119 12.1427 28.6487 11.6811 26.2937C11.2195 23.9387 11.4564 21.4977 12.3618 19.2793C13.2672 17.0609 14.8005 15.1648 16.7677 13.8308C18.7349 12.4968 21.0477 11.7848 23.4136 11.7848C25.7795 11.7848 28.0923 12.4968 30.0595 13.8308C32.0267 15.1648 33.56 17.0609 34.4654 19.2793C35.3708 21.4977 35.6077 23.9387 35.1461 26.2937C34.6845 28.6487 33.5452 30.8119 31.8723 32.5098C31.7276 32.6566 31.6392 32.8509 31.6228 33.0578C31.6064 33.2647 31.6631 33.4708 31.7828 33.6392L36.8534 40.7719C36.9237 40.8709 37.0138 40.9538 37.1176 41.0153C37.2215 41.0768 37.3369 41.1156 37.4564 41.1291C37.5759 41.1426 37.6969 41.1306 37.8115 41.0938C37.9262 41.0569 38.032 40.9962 38.1221 40.9153L41.5312 37.8571C41.6989 37.7068 41.8023 37.4962 41.8197 37.2698C41.8371 37.0435 41.767 36.8192 41.6242 36.6443L39.0082 33.4379C39.9397 31.881 40.6402 30.1934 41.0869 28.4292L45.2087 28.0276C45.4231 28.0072 45.6224 27.9072 45.7685 27.7467C45.9146 27.5862 45.997 27.3766 46 27.1581V20.6927C45.9971 20.474 45.9147 20.2642 45.7685 20.1036C45.6224 19.9429 45.4228 19.8428 45.2083 19.8225ZM44.2775 26.3641L40.3226 26.7495C40.1408 26.767 39.9691 26.8423 39.8319 26.9646C39.6947 27.0868 39.5989 27.2499 39.5582 27.4305C39.1231 29.4247 38.3341 31.3219 37.2295 33.0293C37.1284 33.1854 37.0793 33.3703 37.0893 33.5568C37.0993 33.7433 37.1679 33.9217 37.2851 34.0657L39.7667 37.108L37.6945 38.9666L33.5977 33.2039C35.3641 31.2068 36.5227 28.733 36.9331 26.0818C37.3435 23.4306 36.9883 20.7155 35.9104 18.2648C34.8325 15.8141 33.0781 13.7329 30.8593 12.2728C28.6405 10.8127 26.0525 10.0363 23.4081 10.0374C20.7637 10.0386 18.1763 10.8173 15.9587 12.2794C13.7412 13.7414 11.9886 15.8242 10.9127 18.2758C9.83692 20.7274 9.48403 23.4429 9.89674 26.0937C10.3095 28.7446 11.4701 31.2173 13.2383 33.2129L9.29421 38.9562L7.23433 37.1075L9.71719 34.0651C9.8346 33.9212 9.9035 33.7429 9.91379 33.5564C9.92408 33.3699 9.87521 33.1849 9.77435 33.0287C8.67095 31.3212 7.88299 29.4242 7.449 27.4304C7.4068 27.2493 7.30968 27.0861 7.17133 26.964C7.03297 26.8418 6.86034 26.7668 6.67775 26.7494L2.72249 26.3641V21.487L6.67775 21.1012C6.86031 21.0836 7.03271 21.0079 7.17024 20.8848C7.30778 20.7617 7.4034 20.5975 7.4434 20.4159C7.86757 18.4214 8.6563 16.5253 9.76876 14.8257C9.87108 14.6695 9.92117 14.4841 9.91163 14.2967C9.9021 14.1094 9.83343 13.9302 9.71579 13.7855L7.20214 10.7044L10.587 7.26944L13.6229 9.82127C13.7647 9.94046 13.9404 10.0104 14.1242 10.0208C14.308 10.0313 14.4903 9.98167 14.6443 9.87929C16.3268 8.75914 18.1963 7.95932 20.1612 7.51899C20.3381 7.48111 20.4986 7.38696 20.6193 7.25021C20.7399 7.11346 20.8145 6.94124 20.8321 6.75855L21.212 2.76627H25.7887L26.1686 6.75834C26.1862 6.94149 26.2606 7.11424 26.3812 7.25169C26.5018 7.38914 26.6623 7.48419 26.8395 7.52314C28.804 7.96292 30.6732 8.76206 32.3556 9.88148C32.5097 9.98368 32.692 10.0331 32.8758 10.0225C33.0596 10.0118 33.2352 9.94169 33.3769 9.82237L36.4127 7.26988L39.7974 10.7045L37.2829 13.7856C37.165 13.9301 37.0961 14.1092 37.0862 14.2965C37.0764 14.4838 37.1262 14.6694 37.2282 14.8257C38.3396 16.5255 39.1273 18.4216 39.5504 20.4158C39.5917 20.5979 39.6886 20.7622 39.8273 20.8853C39.9659 21.0083 40.1392 21.0839 40.3226 21.1013L44.2775 21.4865V26.3641Z" stroke="#F4F7FA" stroke-width="0.6" mask="url(#path-1-outside-1)"/>
<path d="M22.8942 25.2243L22.8942 25.2244C23.0453 25.228 23.1934 25.2682 23.3263 25.3417C23.4589 25.4151 23.5727 25.5195 23.6584 25.6461C23.6585 25.6463 23.6587 25.6465 23.6588 25.6467L32.5496 38.4169C32.5497 38.417 32.5497 38.4171 32.5498 38.4172L32.5499 38.4173L32.4678 38.4744C32.4831 38.4961 32.4971 38.5184 32.5103 38.5417L22.8942 25.2243ZM22.8942 25.2243L22.8894 25.2244C22.7384 25.228 22.5905 25.2681 22.4577 25.3414C22.3251 25.4146 22.2114 25.5186 22.1255 25.645C22.1254 25.6452 22.1252 25.6454 22.1251 25.6456L13.2333 38.373L22.8942 25.2243ZM13.1842 38.4551C11.3776 41.6459 11.4012 45.5245 13.2435 48.8256L13.2333 38.3731C13.2172 38.3961 13.202 38.4233 13.1907 38.4436C13.1884 38.4477 13.1862 38.4516 13.1842 38.4551L13.1842 38.4551ZM30.9117 47.8553L30.9114 47.8558C30.11 49.319 28.9457 50.5364 27.5378 51.3837C26.13 52.231 24.529 52.678 22.8987 52.6791C21.2684 52.6801 19.6668 52.2353 18.2579 51.3899C16.849 50.5445 15.6831 49.3287 14.8799 47.8666L14.8796 47.866C13.3587 45.1411 13.3293 42.0854 14.7923 39.4707L22.8902 27.8864L30.9902 39.5059C32.45 42.0997 32.4237 45.1387 30.9117 47.8553Z" fill="#347796" stroke="#F4F7FA" stroke-width="0.2"/>
<path d="M25.4114 40.6C25.2087 40.6 25.0144 40.6808 24.8711 40.8247C24.7278 40.9686 24.6473 41.1637 24.6473 41.3672C24.6425 42.463 24.2052 43.5121 23.4311 44.2844C22.657 45.0568 21.6093 45.4893 20.518 45.4871C20.3154 45.4871 20.121 45.5679 19.9777 45.7118C19.8344 45.8557 19.7539 46.0509 19.7539 46.2543C19.7539 46.4578 19.8344 46.653 19.9777 46.7969C20.121 46.9408 20.3154 47.0216 20.518 47.0216C22.0145 47.0234 23.4506 46.429 24.5112 45.369C25.5718 44.309 26.1704 42.8698 26.1755 41.3672C26.1755 41.1637 26.095 40.9686 25.9517 40.8247C25.8084 40.6808 25.6141 40.6 25.4114 40.6Z" fill="#347796"/>
</svg>
