<svg width="60" height="54" viewBox="0 0 60 54" fill="none" xmlns="http://www.w3.org/2000/svg">
<mask id="path-1-inside-1" fill="white">
<path d="M59.3346 49.3787V52.3484H58.2114L55.2711 53.8333H53.1069L50.1666 52.3484H49.3903L46.45 53.8333H44.2859L41.3455 52.3484H40.5692L37.6289 53.8333H35.4648L32.5244 52.3484H31.7481L28.8078 53.8333H26.6437L23.7033 52.3484H22.927L19.9867 53.8333H17.8226L14.8822 52.3484H14.1059L11.1656 53.8333H9.00147L6.06111 52.3484H5.28485L2.34449 53.8333H0.527344V50.8636H1.65056L4.59093 49.3787H6.75504L9.6954 50.8636H10.4717L13.412 49.3787H15.5761L18.5165 50.8636H19.2928L22.2331 49.3787H24.3972L27.3376 50.8636H28.1138L31.0542 49.3787H33.2183L36.1587 50.8636H36.9349L39.8753 49.3787H42.0394L44.9798 50.8636H45.756L48.6964 49.3787H50.8605L53.8009 50.8636H54.5771L57.5175 49.3787H59.3346ZM12.2888 46.8559C8.38694 40.8361 6.40807 35.1921 6.40807 30.0752C6.40807 29.4015 6.86012 28.8116 7.51065 28.6363L10.8186 27.7454V23.0992L8.20909 19.1458C7.99329 18.8188 7.87826 18.4357 7.87826 18.044V14.2566C7.87826 13.152 8.77369 12.2566 9.87826 12.2566H13.759V8.31704C13.759 7.21247 14.6544 6.31704 15.759 6.31704H25.5204V2.3775C25.5204 1.27293 26.4159 0.377502 27.5204 0.377502H32.3415C33.4461 0.377502 34.3415 1.27293 34.3415 2.3775V6.31704H44.103C45.2076 6.31704 46.103 7.21247 46.103 8.31704V12.2566H49.9837C51.0883 12.2566 51.9837 13.152 51.9837 14.2566V18.0455C51.9837 18.4372 51.8687 18.8203 51.6529 19.1472L49.0434 23.1007V27.7469L52.3528 28.6382C53.0025 28.8132 53.4539 29.4023 53.4539 30.0752C53.4539 35.1921 51.475 40.8361 47.5732 46.8559V47.8938H44.6328V45.959L44.8798 45.5848C47.2821 41.9453 50.1151 36.5953 50.4753 31.2052L46.2765 30.0752H46.103V30.0291L31.4012 26.069V47.8938H28.4608V26.069L13.759 30.0291V30.0752H13.5855L9.38666 31.2067C9.74686 36.5968 12.5799 41.9453 14.9822 45.5863L15.2292 45.959V47.8938H12.2888V46.8559ZM28.4608 6.31704H31.4012V3.34727H28.4608V6.31704ZM16.6994 12.2566H43.1626V9.28681H16.6994V12.2566ZM13.759 22.2008V26.954L29.931 22.5988L46.103 26.954V22.2008L49.0434 17.7462V15.2263H46.103H13.759H10.8186V17.7462L13.759 22.2008ZM19.6397 16.7112H16.6994V19.681H19.6397V16.7112ZM25.5204 16.7112H22.5801V19.681H25.5204V16.7112ZM31.4012 16.7112H28.4608V19.681H31.4012V16.7112ZM37.2819 16.7112H34.3415V19.681H37.2819V16.7112ZM43.1626 16.7112H40.2223V19.681H43.1626V16.7112Z"/>
</mask>
<path d="M59.3346 49.3787V52.3484H58.2114L55.2711 53.8333H53.1069L50.1666 52.3484H49.3903L46.45 53.8333H44.2859L41.3455 52.3484H40.5692L37.6289 53.8333H35.4648L32.5244 52.3484H31.7481L28.8078 53.8333H26.6437L23.7033 52.3484H22.927L19.9867 53.8333H17.8226L14.8822 52.3484H14.1059L11.1656 53.8333H9.00147L6.06111 52.3484H5.28485L2.34449 53.8333H0.527344V50.8636H1.65056L4.59093 49.3787H6.75504L9.6954 50.8636H10.4717L13.412 49.3787H15.5761L18.5165 50.8636H19.2928L22.2331 49.3787H24.3972L27.3376 50.8636H28.1138L31.0542 49.3787H33.2183L36.1587 50.8636H36.9349L39.8753 49.3787H42.0394L44.9798 50.8636H45.756L48.6964 49.3787H50.8605L53.8009 50.8636H54.5771L57.5175 49.3787H59.3346ZM12.2888 46.8559C8.38694 40.8361 6.40807 35.1921 6.40807 30.0752C6.40807 29.4015 6.86012 28.8116 7.51065 28.6363L10.8186 27.7454V23.0992L8.20909 19.1458C7.99329 18.8188 7.87826 18.4357 7.87826 18.044V14.2566C7.87826 13.152 8.77369 12.2566 9.87826 12.2566H13.759V8.31704C13.759 7.21247 14.6544 6.31704 15.759 6.31704H25.5204V2.3775C25.5204 1.27293 26.4159 0.377502 27.5204 0.377502H32.3415C33.4461 0.377502 34.3415 1.27293 34.3415 2.3775V6.31704H44.103C45.2076 6.31704 46.103 7.21247 46.103 8.31704V12.2566H49.9837C51.0883 12.2566 51.9837 13.152 51.9837 14.2566V18.0455C51.9837 18.4372 51.8687 18.8203 51.6529 19.1472L49.0434 23.1007V27.7469L52.3528 28.6382C53.0025 28.8132 53.4539 29.4023 53.4539 30.0752C53.4539 35.1921 51.475 40.8361 47.5732 46.8559V47.8938H44.6328V45.959L44.8798 45.5848C47.2821 41.9453 50.1151 36.5953 50.4753 31.2052L46.2765 30.0752H46.103V30.0291L31.4012 26.069V47.8938H28.4608V26.069L13.759 30.0291V30.0752H13.5855L9.38666 31.2067C9.74686 36.5968 12.5799 41.9453 14.9822 45.5863L15.2292 45.959V47.8938H12.2888V46.8559ZM28.4608 6.31704H31.4012V3.34727H28.4608V6.31704ZM16.6994 12.2566H43.1626V9.28681H16.6994V12.2566ZM13.759 22.2008V26.954L29.931 22.5988L46.103 26.954V22.2008L49.0434 17.7462V15.2263H46.103H13.759H10.8186V17.7462L13.759 22.2008ZM19.6397 16.7112H16.6994V19.681H19.6397V16.7112ZM25.5204 16.7112H22.5801V19.681H25.5204V16.7112ZM31.4012 16.7112H28.4608V19.681H31.4012V16.7112ZM37.2819 16.7112H34.3415V19.681H37.2819V16.7112ZM43.1626 16.7112H40.2223V19.681H43.1626V16.7112Z" fill="#3480A3" stroke="white" mask="url(#path-1-inside-1)"/>
</svg>
