<svg width="54" height="57" viewBox="0 0 54 57" fill="none" xmlns="http://www.w3.org/2000/svg">
<path d="M18.418 25.9174V53.4181C24.8348 57.5432 52.3356 56.1681 52.3356 52.9597V25.9174C45.9187 22.2506 24.8348 22.2506 18.418 25.9174Z" stroke="#3480A3" stroke-width="1.6" stroke-linecap="round" stroke-linejoin="round"/>
<path d="M29.4175 14.9348C24.0412 11.2445 6.37628 11.2444 1 14.9348V38.9218C3.85549 41.1268 11.6942 41.7229 18.4172 41.3135" stroke="#3480A3" stroke-width="1.6" stroke-linecap="round" stroke-linejoin="round"/>
<path d="M48.668 24.084V3.93441C43.2917 0.244073 25.6268 0.244151 20.2505 3.93441" stroke="#3480A3" stroke-width="1.6" stroke-linecap="round" stroke-linejoin="round"/>
<path d="M18.418 25.9174C18.418 30.0425 52.3354 30.0425 52.3354 25.9174" stroke="#3480A3" stroke-width="1.6" stroke-linecap="round" stroke-linejoin="round"/>
<path d="M1 14.9171C1 18.5839 29.4175 18.5839 29.4175 14.9171" stroke="#3480A3" stroke-width="1.6" stroke-linecap="round" stroke-linejoin="round"/>
<path d="M48.668 3.91675C48.668 7.58352 20.2505 7.58352 20.2505 3.91675" stroke="#3480A3" stroke-width="1.6" stroke-linecap="round" stroke-linejoin="round"/>
<path d="M29.418 14.9171V23.1673" stroke="#3480A3" stroke-width="1.6" stroke-linecap="round" stroke-linejoin="round"/>
<path d="M20.25 3.91675V12.167" stroke="#3480A3" stroke-width="1.6" stroke-linecap="round" stroke-linejoin="round"/>
<path d="M5.58203 17.2088V36.4593" stroke="#3480A3" stroke-width="1.6" stroke-linecap="round" stroke-linejoin="round"/>
<path d="M38.5859 29.1258V48.3764" stroke="#3480A3" stroke-width="1.6" stroke-linecap="round" stroke-linejoin="round"/>
<path d="M12.4609 17.6672V36.4594" stroke="#3480A3" stroke-width="1.6" stroke-linecap="round" stroke-linejoin="round"/>
<path d="M41.3359 6.66681V19.9589" stroke="#3480A3" stroke-width="1.6" stroke-linecap="round" stroke-linejoin="round"/>
<path d="M5.58203 22.2505L11.9989 22.2505" stroke="#3480A3" stroke-width="1.6" stroke-linecap="round" stroke-linejoin="round"/>
<path d="M45.457 28.6674V48.3763" stroke="#3480A3" stroke-width="1.6" stroke-linecap="round" stroke-linejoin="round"/>
<path d="M5.58203 27.7508H11.9989" stroke="#3480A3" stroke-width="1.6" stroke-linecap="round" stroke-linejoin="round"/>
<path d="M5.58203 33.2509L11.9989 33.2509" stroke="#3480A3" stroke-width="1.6" stroke-linecap="round" stroke-linejoin="round"/>
<path d="M34.918 6.66681V19.9588" stroke="#3480A3" stroke-width="1.6" stroke-linecap="round" stroke-linejoin="round"/>
<path d="M38.5859 34.1677L45.0028 34.1677" stroke="#3480A3" stroke-width="1.6" stroke-linecap="round" stroke-linejoin="round"/>
<path d="M41.3359 11.2503H34.9191" stroke="#3480A3" stroke-width="1.6" stroke-linecap="round" stroke-linejoin="round"/>
<path d="M41.3359 15.8337H34.9191" stroke="#3480A3" stroke-width="1.6" stroke-linecap="round" stroke-linejoin="round"/>
<path d="M38.5859 39.6678L45.0028 39.6678" stroke="#3480A3" stroke-width="1.6" stroke-linecap="round" stroke-linejoin="round"/>
<path d="M38.5859 45.1679H45.0028" stroke="#3480A3" stroke-width="1.6" stroke-linecap="round" stroke-linejoin="round"/>
</svg>
