<svg width="26" height="26" viewBox="0 0 26 26" fill="none" xmlns="http://www.w3.org/2000/svg">
<path fill-rule="evenodd" clip-rule="evenodd" d="M13.7597 0.436792C13.3628 -0.145922 12.5037 -0.145923 12.1067 0.436791L10.7817 2.38201C10.503 2.79117 9.96691 2.93482 9.52097 2.71983L7.40088 1.69772C6.76578 1.39154 6.02176 1.8211 5.96937 2.5242L5.79449 4.87132C5.75771 5.365 5.36525 5.75747 4.87156 5.79425L2.52445 5.96913C1.82134 6.02151 1.39178 6.76553 1.69797 7.40063L2.72008 9.52073C2.93506 9.96667 2.79141 10.5028 2.38226 10.7815L0.437036 12.1065C-0.145678 12.5034 -0.145679 13.3625 0.437036 13.7594L2.38226 15.0845C2.79141 15.3631 2.93506 15.8993 2.72008 16.3452L1.69797 18.4653C1.39178 19.1004 1.82134 19.8444 2.52445 19.8968L4.87156 20.0717C5.36524 20.1085 5.75771 20.5009 5.79449 20.9946L5.96937 23.3417C6.02176 24.0448 6.76578 24.4744 7.40088 24.1682L9.52097 23.1461C9.96691 22.9311 10.503 23.0748 10.7817 23.4839L12.1067 25.4291C12.5037 26.0119 13.3628 26.0119 13.7597 25.4291L15.0847 23.4839C15.3634 23.0748 15.8995 22.9311 16.3454 23.1461L18.4655 24.1682C19.1006 24.4744 19.8447 24.0448 19.8971 23.3417L20.0719 20.9946C20.1087 20.5009 20.5012 20.1085 20.9949 20.0717L23.342 19.8968C24.0451 19.8444 24.4746 19.1004 24.1685 18.4653L23.1463 16.3452C22.9314 15.8993 23.075 15.3631 23.4842 15.0845L25.4294 13.7594C26.0121 13.3625 26.0121 12.5034 25.4294 12.1065L23.4842 10.7815C23.075 10.5028 22.9314 9.96667 23.1463 9.52073L24.1685 7.40063C24.4746 6.76553 24.0451 6.02151 23.342 5.96913L20.9949 5.79425C20.5012 5.75747 20.1087 5.365 20.0719 4.87132L19.8971 2.5242C19.8447 1.8211 19.1006 1.39154 18.4655 1.69772L16.3454 2.71983C15.8995 2.93482 15.3634 2.79117 15.0847 2.38201L13.7597 0.436792ZM18.7328 9.91286C19.072 9.50101 19.0281 8.89541 18.6331 8.53678C18.2381 8.17814 17.631 8.19278 17.2538 8.57005L11.4357 14.3881L8.00495 12.101C7.57717 11.8158 7.00286 11.9014 6.67691 12.299C6.35096 12.6966 6.3796 13.2766 6.74314 13.6401L10.856 17.753C11.0554 17.9524 11.3297 18.0583 11.6113 18.0447C11.893 18.0311 12.1558 17.8993 12.335 17.6816L18.7328 9.91286Z" fill="white"/>
</svg>
