<svg width="31" height="24" viewBox="0 0 31 24" fill="none" xmlns="http://www.w3.org/2000/svg">
<path d="M30.246 3.18145C29.1212 3.63321 27.9227 3.93266 26.6732 4.07806C27.9586 3.37531 28.9397 2.27099 29.401 0.93992C28.2025 1.5942 26.8792 2.05636 25.469 2.31426C24.331 1.20475 22.709 0.517578 20.9397 0.517578C17.5067 0.517578 14.743 3.06894 14.743 6.19669C14.743 6.64672 14.7846 7.07945 14.8867 7.49141C9.73164 7.26119 5.17017 4.9989 2.10588 1.55266C1.5709 2.40254 1.2571 3.37531 1.2571 4.42251C1.2571 6.38882 2.36297 8.13184 4.01137 9.14096C3.01514 9.12365 2.03782 8.85882 1.20984 8.44167C1.20984 8.45898 1.20984 8.48148 1.20984 8.50399C1.20984 11.2631 3.35919 13.5548 6.17774 14.0827C5.67301 14.2091 5.12291 14.2696 4.55202 14.2696C4.15504 14.2696 3.75428 14.2489 3.3781 14.1727C4.1815 16.4212 6.46129 18.0742 9.17209 18.1278C7.06243 19.6389 4.38377 20.5494 1.48394 20.5494C0.975432 20.5494 0.487716 20.5286 0 20.4715C2.74671 22.0933 6.00193 23.0194 9.51236 23.0194C20.9226 23.0194 27.1609 14.3648 27.1609 6.86309C27.1609 6.6121 27.1514 6.36978 27.1382 6.12918C28.3688 5.3295 29.4029 4.33077 30.246 3.18145Z" fill="white"/>
</svg>
