<svg width="54" height="47" viewBox="0 0 54 47" fill="none" xmlns="http://www.w3.org/2000/svg">
<rect x="1" y="1" width="52" height="45" rx="3" stroke-width="2"/>
<rect x="11" y="1" width="32" height="45" stroke-width="2"/>
<rect x="46.5" y="5.5" width="3" height="1" />
<rect x="4.5" y="5.5" width="3" height="1" />
<rect x="46.5" y="11.5" width="3" height="1" />
<rect x="4.5" y="11.5" width="3" height="1" />
<rect x="46.5" y="17.5" width="3" height="1" />
<rect x="4.5" y="17.5" width="3" height="1" />
<rect x="46.5" y="23.5" width="3" height="1" />
<rect x="4.5" y="23.5" width="3" height="1" />
<rect x="46.5" y="29.5" width="3" height="1" />
<rect x="4.5" y="29.5" width="3" height="1" />
<rect x="46.5" y="34.5" width="3" height="1" />
<rect x="4.5" y="34.5" width="3" height="1" />
<rect x="46.5" y="40.5" width="3" height="1" />
<rect x="4.5" y="40.5" width="3" height="1" />
<path d="M34.2441 24L22 32.4829L22 15.5171L34.2441 24Z" stroke-width="2" stroke-linejoin="round"/>
</svg>
