<svg width="32" height="32" viewBox="0 0 32 32" fill="none" xmlns="http://www.w3.org/2000/svg">
<path d="M25.8659 8.00193L25.4894 8.12128L23.4845 8.29991L22.9181 9.20428L22.5072 9.07371L20.9115 7.63506L20.68 6.88689L20.37 6.08906L19.3672 5.18951L18.184 4.95801L18.1568 5.49951L19.3159 6.63056L19.883 7.29862L19.2454 7.63185L18.7263 7.47885L17.9485 7.15444L17.975 6.52723L16.9545 6.10749L16.6156 7.58219L15.5871 7.81529L15.6888 8.63795L17.0289 8.89588L17.2604 7.58139L18.3667 7.7448L18.8809 8.04598H19.706L20.2707 9.17704L21.7678 10.6958L21.6581 11.2862L20.451 11.1324L18.3651 12.1857L16.8631 13.9872L16.6677 14.7851H16.1286L15.1241 14.3221L14.1484 14.7851L14.3912 15.8144L14.8157 15.325L15.5623 15.3017L15.5102 16.2261L16.1286 16.4072L16.7462 17.1008L17.7547 16.8173L18.9066 16.9991L20.2443 17.3588L20.9123 17.4373L22.045 18.7229L24.231 20.0086L22.8172 22.7097L21.3249 23.4034L20.7585 24.9469L18.599 26.3888L18.3691 27.2203C23.8898 25.8906 27.9967 20.9314 27.9967 15.0021C27.9951 12.4124 27.2101 10.0021 25.8659 8.00193Z" fill="white"/>
<path d="M16.8667 21.5788L15.9503 19.8798L16.7914 18.1271L15.9503 17.8756L15.0059 16.9272L12.9136 16.4578L12.2191 15.0047V15.8674H11.9131L10.11 13.4227V11.4145L8.7883 9.2653L6.6896 9.63938H5.27578L4.56446 9.17318L5.47203 8.45386L4.56687 8.66293C3.47586 10.5261 2.83984 12.6881 2.83984 15.0039C2.83984 21.9512 8.4719 27.5857 15.42 27.5857C15.9551 27.5857 16.4798 27.5384 16.9989 27.476L16.8675 25.9516C16.8675 25.9516 17.445 23.6879 17.445 23.611C17.4442 23.5333 16.8667 21.5788 16.8667 21.5788Z" fill="white"/>
<path d="M7.51236 6.47763L9.74724 6.16603L10.7774 5.60131L11.9365 5.93534L13.7884 5.8328L14.4229 4.83552L15.348 4.98772L17.5949 4.77704L18.2141 4.09457L19.0873 3.51142L20.3225 3.69725L20.7726 3.62917C19.1457 2.86338 17.3354 2.42041 15.4169 2.42041C11.5119 2.42041 8.02021 4.2003 5.71484 6.9951H5.72125L7.51236 6.47763ZM15.9488 3.67162L17.2337 2.96431L18.0587 3.44092L16.8644 4.35009L15.7237 4.46464L15.2103 4.13141L15.9488 3.67162ZM12.1431 3.77495L12.7103 4.01126L13.4528 3.77495L13.8573 4.47586L12.1431 4.92604L11.3189 4.44382C11.3181 4.44382 12.1247 3.92475 12.1431 3.77495Z" fill="white"/>
</svg>
